<svg width="17" height="20" viewBox="0 0 17 20" fill="none" xmlns="http://www.w3.org/2000/svg">
<path d="M11.7734 3.19C12.1515 2.75428 12.4397 2.24817 12.6216 1.70074C12.8035 1.1533 12.8755 0.575328 12.8334 0C11.6728 0.093687 10.5954 0.639556 9.83341 1.52C9.46851 1.94198 9.19199 2.43288 9.02022 2.96364C8.84845 3.49441 8.78492 4.05424 8.83341 4.61C9.39955 4.61472 9.95919 4.4891 10.469 4.24286C10.9788 3.99662 11.4251 3.63637 11.7734 3.19V3.19ZM14.2934 10.63C14.3001 9.86374 14.502 9.11182 14.8799 8.4452C15.2578 7.77859 15.7993 7.21926 16.4534 6.82C16.0406 6.22524 15.495 5.73483 14.8597 5.38767C14.2243 5.04052 13.5169 4.84615 12.7934 4.82C11.2334 4.66 9.79341 5.73 8.96341 5.73C8.13341 5.73 6.96341 4.84 5.66341 4.86C4.81354 4.888 3.98543 5.13578 3.25985 5.57919C2.53428 6.02259 1.93601 6.64648 1.52341 7.39C-0.236592 10.45 1.07341 15 2.83341 17.47C3.63341 18.68 4.63341 20.05 5.95341 20C7.27341 19.95 7.70341 19.18 9.23341 19.18C10.7634 19.18 11.2334 20 12.5334 19.97C13.8334 19.94 14.7534 18.73 15.5934 17.52C16.1885 16.6415 16.6533 15.6816 16.9734 14.67C16.1809 14.332 15.5047 13.7693 15.0284 13.0513C14.5522 12.3333 14.2966 11.4916 14.2934 10.63V10.63Z" fill="black"/>
</svg>
