<svg width="12" height="13" viewBox="0 0 12 13" fill="none" xmlns="http://www.w3.org/2000/svg">
<path d="M10.9999 5.50019H3.4099L6.7099 2.21019C6.8982 2.02188 7.00399 1.76649 7.00399 1.50019C7.00399 1.23388 6.8982 0.978489 6.7099 0.790185C6.52159 0.601882 6.2662 0.496094 5.9999 0.496094C5.73359 0.496094 5.4782 0.601882 5.2899 0.790185L0.289896 5.79019C0.198856 5.88529 0.127491 5.99743 0.0798963 6.12019C-0.0201217 6.36365 -0.0201217 6.63672 0.0798963 6.88019C0.127491 7.00294 0.198856 7.11508 0.289896 7.21019L5.2899 12.2102C5.38286 12.3039 5.49346 12.3783 5.61532 12.4291C5.73718 12.4798 5.86788 12.506 5.9999 12.506C6.13191 12.506 6.26261 12.4798 6.38447 12.4291C6.50633 12.3783 6.61693 12.3039 6.7099 12.2102C6.80363 12.1172 6.87802 12.0066 6.92879 11.8848C6.97956 11.7629 7.00569 11.6322 7.00569 11.5002C7.00569 11.3682 6.97956 11.2375 6.92879 11.1156C6.87802 10.9937 6.80363 10.8831 6.7099 10.7902L3.4099 7.50019H10.9999C11.2651 7.50019 11.5195 7.39483 11.707 7.20729C11.8945 7.01976 11.9999 6.7654 11.9999 6.50019C11.9999 6.23497 11.8945 5.98062 11.707 5.79308C11.5195 5.60554 11.2651 5.50019 10.9999 5.50019Z" fill="#111111"/>
</svg>
