<svg width="20" height="21" viewBox="0 0 20 21" fill="none" xmlns="http://www.w3.org/2000/svg">
<path fill-rule="evenodd" clip-rule="evenodd" d="M5.625 2.375C5.625 2.02982 5.34518 1.75 5 1.75C4.65482 1.75 4.375 2.02982 4.375 2.375V3H3.75C2.36929 3 1.25 4.11929 1.25 5.5V6.75V16.75C1.25 18.1307 2.36929 19.25 3.75 19.25H16.25C17.6307 19.25 18.75 18.1307 18.75 16.75V6.75V5.5C18.75 4.11929 17.6307 3 16.25 3H15.625V2.375C15.625 2.02982 15.3452 1.75 15 1.75C14.6548 1.75 14.375 2.02982 14.375 2.375V3H5.625V2.375ZM17.5 6.125V5.5C17.5 4.80964 16.9404 4.25 16.25 4.25H15H5H3.75C3.05964 4.25 2.5 4.80964 2.5 5.5V6.125H17.5ZM2.5 7.375H17.5V16.75C17.5 17.4404 16.9404 18 16.25 18H3.75C3.05964 18 2.5 17.4404 2.5 16.75V7.375Z" fill="#373737"/>
</svg>
