<svg width="25" height="24" viewBox="0 0 25 24" fill="none" xmlns="http://www.w3.org/2000/svg">
<path fill-rule="evenodd" clip-rule="evenodd" d="M17.1457 17.3533C17.0522 17.5488 16.9998 17.7682 16.9998 17.9998V19.9853C16.9998 20.3808 17.1563 20.7608 17.4353 21.0418L19.4353 23.0563C19.8633 23.4878 20.5093 23.6182 21.0713 23.3867C21.6333 23.1552 21.9998 22.6073 21.9998 21.9998V21.4998H22.4998C23.1062 21.4998 23.6533 21.1343 23.8858 20.5738C24.1178 20.0133 23.9893 19.3682 23.5603 18.9392L21.5603 16.9392C21.2793 16.6577 20.8977 16.4998 20.4998 16.4998H18.4998C18.2682 16.4998 18.0488 16.5522 17.8533 16.6457L12.8533 11.6462C12.6583 11.4513 12.3413 11.4513 12.1462 11.6462C11.9513 11.8413 11.9513 12.1583 12.1462 12.3533L17.1457 17.3533ZM20.9998 21.9998C20.9998 22.2023 20.8778 22.3847 20.6903 22.4622C20.5028 22.5392 20.2878 22.4958 20.1448 22.3518L18.1448 20.3372C18.0518 20.2437 17.9998 20.1168 17.9998 19.9853V17.9998C17.9998 17.7238 18.2238 17.4998 18.4998 17.4998H20.4998C20.6322 17.4998 20.7598 17.5522 20.8533 17.6462L22.8533 19.6462C22.9963 19.7892 23.0393 20.0042 22.9618 20.1912C22.8843 20.3777 22.7017 20.4998 22.4998 20.4998H21.4998C21.3667 20.4998 21.2397 20.5528 21.1457 20.6468C21.0522 20.7408 20.9993 20.8678 20.9998 21.0008V21.9998Z" fill="#A8A8A8"/>
<path fill-rule="evenodd" clip-rule="evenodd" d="M16.3315 21.778C15.1445 22.244 13.852 22.5 12.5 22.5C6.705 22.5 2 17.795 2 12C2 6.205 6.705 1.5 12.5 1.5C18.295 1.5 23 6.205 23 12C23 13.3485 22.7455 14.638 22.2815 15.822C22.181 16.079 22.308 16.3695 22.565 16.47C22.822 16.5705 23.112 16.444 23.2125 16.187C23.721 14.8895 24 13.477 24 12C24 5.653 18.847 0.5 12.5 0.5C6.153 0.5 1 5.653 1 12C1 18.347 6.153 23.5 12.5 23.5C13.981 23.5 15.3965 23.2195 16.697 22.7085C16.954 22.608 17.0805 22.3175 16.98 22.0605C16.879 21.8035 16.5885 21.677 16.3315 21.778Z" fill="#A8A8A8"/>
<path fill-rule="evenodd" clip-rule="evenodd" d="M15.2855 17.874C14.441 18.2755 13.4965 18.5 12.5 18.5C8.9125 18.5 6 15.5875 6 12C6 8.4125 8.9125 5.5 12.5 5.5C16.0875 5.5 19 8.4125 19 12C19 12.9965 18.7755 13.941 18.374 14.785C18.2555 15.0345 18.3615 15.333 18.6105 15.4515C18.86 15.57 19.1585 15.464 19.277 15.2145C19.7405 14.24 20 13.15 20 12C20 7.8605 16.6395 4.5 12.5 4.5C8.3605 4.5 5 7.8605 5 12C5 16.1395 8.3605 19.5 12.5 19.5C13.65 19.5 14.74 19.2405 15.7145 18.777C15.964 18.6585 16.07 18.36 15.9515 18.1105C15.833 17.8615 15.5345 17.7555 15.2855 17.874Z" fill="#A8A8A8"/>
<path fill-rule="evenodd" clip-rule="evenodd" d="M12.6395 14.496C12.593 14.4985 12.5465 14.5 12.5 14.5C11.12 14.5 10 13.38 10 12C10 10.62 11.12 9.5 12.5 9.5C13.88 9.5 15 10.62 15 12C15 12.0465 14.9985 12.093 14.996 12.1395C14.981 12.415 15.1925 12.651 15.468 12.666C15.7435 12.6815 15.9795 12.47 15.9945 12.1945C15.998 12.13 16 12.065 16 12C16 10.0685 14.4315 8.5 12.5 8.5C10.5685 8.5 9 10.0685 9 12C9 13.9315 10.5685 15.5 12.5 15.5C12.565 15.5 12.63 15.498 12.6945 15.4945C12.97 15.4795 13.1815 15.2435 13.1665 14.968C13.151 14.6925 12.915 14.481 12.6395 14.496Z" fill="#A8A8A8"/>
</svg>
