<svg width="25" height="16" viewBox="0 0 25 16" fill="none" xmlns="http://www.w3.org/2000/svg">
<path d="M23.6075 5.92259C23.9899 5.92259 24.2998 5.61261 24.2998 5.2303V1.538C24.2998 1.15564 23.9898 0.845703 23.6075 0.845703H0.992102C0.609789 0.845703 0.299805 1.15564 0.299805 1.538V5.2303C0.299805 5.61266 0.609789 5.92259 0.992102 5.92259C2.1373 5.92259 3.06904 6.85428 3.06904 7.99953C3.06904 9.14478 2.13735 10.0765 0.992102 10.0765C0.609789 10.0765 0.299805 10.3864 0.299805 10.7688V14.4611C0.299805 14.8434 0.609789 15.1534 0.992102 15.1534H23.6075C23.9899 15.1534 24.2998 14.8434 24.2998 14.4611V10.7688C24.2998 10.3864 23.9898 10.0765 23.6075 10.0765C22.4623 10.0765 21.5306 9.14478 21.5306 7.99953C21.5306 6.85428 22.4623 5.92259 23.6075 5.92259ZM22.9152 11.3915V13.7688H8.37674V11.6918C8.37674 11.3095 8.06676 10.9995 7.68445 10.9995C7.30213 10.9995 6.99215 11.3095 6.99215 11.6918V13.7688H1.6844V11.3915C3.26245 11.0698 4.45363 9.67114 4.45363 7.99953C4.45363 6.32792 3.26245 4.92917 1.6844 4.60756V2.2303H6.9921V4.30723C6.9921 4.68959 7.30209 4.99953 7.6844 4.99953C8.06671 4.99953 8.3767 4.68955 8.3767 4.30723V2.2303H22.9152V4.60756C21.3371 4.92922 20.1459 6.32792 20.1459 7.99953C20.1459 9.67114 21.3372 11.0699 22.9152 11.3915Z" fill="#A8A8A8"/>
</svg>
