<svg width="23" height="22" viewBox="0 0 23 22" fill="none" xmlns="http://www.w3.org/2000/svg">
<path fill-rule="evenodd" clip-rule="evenodd" d="M11.5001 0.5C11.825 0.5 12.1129 0.709195 12.2133 1.01819L14.4824 8H22.0001C22.3287 8 22.6191 8.21402 22.7164 8.52798C22.8137 8.84193 22.6953 9.18266 22.4242 9.36855L16.3296 13.5477L18.6794 20.5102C18.7838 20.8193 18.6762 21.1605 18.4135 21.354C18.1507 21.5474 17.793 21.5488 17.5287 21.3573L11.5001 16.9887L5.47139 21.3573C5.20715 21.5488 4.84944 21.5474 4.58666 21.354C4.32388 21.1605 4.21634 20.8193 4.32069 20.5102L6.67052 13.5477L0.57591 9.36855C0.30483 9.18266 0.18637 8.84193 0.283673 8.52798C0.380976 8.21402 0.671367 8 1.00006 8H8.51769L10.7868 1.01819C10.8872 0.709195 11.1752 0.5 11.5001 0.5ZM11.5001 3.67651L9.77583 8.98181C9.67541 9.2908 9.38745 9.5 9.06256 9.5H3.42L7.9867 12.6315C8.26349 12.8213 8.3805 13.1718 8.27317 13.4898L6.49293 18.7646L11.06 15.4552C11.3225 15.2649 11.6776 15.2649 11.9401 15.4552L16.5072 18.7646L14.7269 13.4898C14.6196 13.1718 14.7366 12.8213 15.0134 12.6315L19.5801 9.5H13.9376C13.6127 9.5 13.3247 9.2908 13.2243 8.98181L11.5001 3.67651Z" fill="#FFD80A"/>
</svg>
