<svg width="25" height="24" viewBox="0 0 25 24" fill="none" xmlns="http://www.w3.org/2000/svg">
<path d="M12.6989 21C12.4036 21 12.1129 20.9109 11.8551 20.7375C10.0926 19.5422 7.53326 17.6906 5.69576 15.45C3.82076 13.1672 2.92076 10.8188 2.94888 8.27813C2.97701 5.36719 5.31607 3 8.15669 3C10.4114 3 11.9067 4.38281 12.6989 5.39062C13.4911 4.38281 14.9864 3 17.2411 3C20.0817 3 22.4161 5.36719 22.4489 8.27813C22.4723 10.8188 21.577 13.1672 19.702 15.45C17.8645 17.6906 15.3051 19.5422 13.5426 20.7375C13.2848 20.9156 12.9942 21 12.6989 21ZM8.15669 4.5C6.13638 4.5 4.47232 6.20156 4.44888 8.29688C4.39732 13.2 8.59263 16.7156 12.6989 19.5C16.8051 16.7109 21.0004 13.2 20.9489 8.29688C20.9254 6.20625 19.2661 4.5 17.2411 4.5C14.7098 4.5 13.3786 7.05937 13.3692 7.0875C13.2426 7.34062 12.9848 7.5 12.6989 7.5C12.4129 7.5 12.1551 7.34063 12.0286 7.08281C12.0145 7.05938 10.6833 4.5 8.15669 4.5Z" fill="#A8A9A8"/>
</svg>
