<svg width="20" height="18" viewBox="0 0 20 18" fill="none" xmlns="http://www.w3.org/2000/svg">
<path d="M15.3904 17.7504C15.2589 17.7509 15.1305 17.7099 15.0236 17.6332L9.99982 13.991L4.97599 17.6332C4.86866 17.711 4.73936 17.7527 4.60677 17.7522C4.47418 17.7517 4.34518 17.7091 4.23842 17.6305C4.13165 17.5519 4.05266 17.4413 4.01286 17.3148C3.97306 17.1884 3.97451 17.0525 4.01701 16.9269L5.97638 11.1234L0.89826 7.64098C0.788264 7.56563 0.705246 7.45708 0.661335 7.33119C0.617423 7.2053 0.61492 7.06867 0.654191 6.94126C0.693463 6.81385 0.77245 6.70233 0.879612 6.623C0.986774 6.54368 1.1165 6.5007 1.24982 6.50035H7.51467L9.40529 0.681993C9.44602 0.556376 9.52549 0.446888 9.6323 0.369235C9.73911 0.291583 9.86777 0.249756 9.99982 0.249756C10.1319 0.249756 10.2605 0.291583 10.3673 0.369235C10.4742 0.446888 10.5536 0.556376 10.5944 0.681993L12.485 6.50231H18.7498C18.8833 6.50224 19.0133 6.54492 19.1208 6.62409C19.2283 6.70326 19.3076 6.81477 19.3471 6.94228C19.3866 7.06979 19.3843 7.2066 19.3404 7.33269C19.2966 7.45877 19.2135 7.56749 19.1033 7.64293L14.0233 11.1234L15.9815 16.9254C16.0132 17.0193 16.0221 17.1194 16.0075 17.2175C15.9929 17.3156 15.9551 17.4087 15.8974 17.4893C15.8397 17.5699 15.7636 17.6356 15.6754 17.681C15.5873 17.7264 15.4896 17.7502 15.3904 17.7504Z" fill="#FFD80A"/>
</svg>
