<svg width="24" height="24" viewBox="0 0 24 24" fill="none" xmlns="http://www.w3.org/2000/svg">
<path fill-rule="evenodd" clip-rule="evenodd" d="M10.0925 3.14273C9.74992 3.00081 9.37292 2.96368 9.00921 3.03603C8.64549 3.10838 8.3114 3.28695 8.04917 3.54918C7.78695 3.8114 7.60837 4.14549 7.53603 4.50921C7.46368 4.87292 7.50081 5.24992 7.64273 5.59253C7.78464 5.93514 8.02496 6.22798 8.33331 6.43401C8.64165 6.64003 9.00416 6.75 9.375 6.75H11.25V4.875C11.25 4.50416 11.14 4.14165 10.934 3.83331C10.728 3.52497 10.4351 3.28464 10.0925 3.14273ZM12 2.75368C11.6467 2.31655 11.1888 1.97322 10.6666 1.75691C10.0499 1.50146 9.37126 1.43463 8.71657 1.56485C8.06188 1.69508 7.46052 2.01651 6.98851 2.48852C6.51651 2.96052 6.19507 3.56189 6.06485 4.21657C5.93462 4.87126 6.00146 5.54986 6.25691 6.16656C6.34191 6.37178 6.44653 6.56708 6.56876 6.75H4.5C3.25736 6.75 2.25 7.75736 2.25 9V11.25C2.25 12.2297 2.87611 13.0631 3.75 13.372V19.5C3.75 20.2957 4.06607 21.0587 4.62868 21.6213C5.19129 22.1839 5.95435 22.5 6.75 22.5H17.25C18.0456 22.5 18.8087 22.1839 19.3713 21.6213C19.9339 21.0587 20.25 20.2957 20.25 19.5V13.372C21.1239 13.0631 21.75 12.2297 21.75 11.25V9C21.75 7.75736 20.7426 6.75 19.5 6.75H17.4312C17.5535 6.56708 17.6581 6.37178 17.7431 6.16656C17.9985 5.54986 18.0654 4.87126 17.9352 4.21657C17.8049 3.56189 17.4835 2.96052 17.0115 2.48852C16.5395 2.01651 15.9381 1.69508 15.2834 1.56485C14.6287 1.43463 13.9501 1.50146 13.3334 1.75691C12.8112 1.97322 12.3533 2.31655 12 2.75368ZM12.75 8.25V12H19.5C19.9142 12 20.25 11.6642 20.25 11.25V9C20.25 8.58579 19.9142 8.25 19.5 8.25H12.75ZM11.25 12V8.25H4.5C4.08579 8.25 3.75 8.58579 3.75 9V11.25C3.75 11.6642 4.08579 12 4.5 12H11.25ZM11.25 13.5V21H6.75C6.35218 21 5.97064 20.842 5.68934 20.5607C5.40804 20.2794 5.25 19.8978 5.25 19.5V13.5H11.25ZM12.75 21V13.5H18.75V19.5C18.75 19.8978 18.592 20.2794 18.3107 20.5607C18.0294 20.842 17.6478 21 17.25 21H12.75ZM12.75 6.75H14.625C14.9958 6.75 15.3584 6.64003 15.6667 6.43401C15.975 6.22798 16.2154 5.93514 16.3573 5.59253C16.4992 5.24992 16.5363 4.87292 16.464 4.50921C16.3916 4.14549 16.213 3.8114 15.9508 3.54918C15.6886 3.28695 15.3545 3.10838 14.9908 3.03603C14.6271 2.96368 14.2501 3.00081 13.9075 3.14273C13.5649 3.28464 13.272 3.52497 13.066 3.83331C12.86 4.14165 12.75 4.50416 12.75 4.875V6.75Z" fill="#005490"/>
</svg>
