<svg width="25" height="24" viewBox="0 0 25 24" fill="none" xmlns="http://www.w3.org/2000/svg">
<path d="M22.7265 12.25C22.7265 11.47 22.6565 10.72 22.5265 10H12.1665V14.255H18.0865C17.8315 15.63 17.0565 16.795 15.8915 17.575V20.335H19.4465C21.5265 18.42 22.7265 15.6 22.7265 12.25Z" fill="#4285F4"/>
<path d="M12.1664 22.9998C15.1364 22.9998 17.6264 22.0148 19.4464 20.3348L15.8914 17.5748C14.9064 18.2348 13.6464 18.6248 12.1664 18.6248C9.30143 18.6248 6.87643 16.6898 6.01143 14.0898H2.33643V16.9398C4.14643 20.5348 7.86643 22.9998 12.1664 22.9998Z" fill="#34A853"/>
<path d="M6.0115 14.0905C5.7915 13.4305 5.6665 12.7255 5.6665 12.0005C5.6665 11.2755 5.7915 10.5705 6.0115 9.91055V7.06055H2.3365C1.5665 8.59341 1.16583 10.2852 1.1665 12.0005C1.1665 13.7755 1.5915 15.4555 2.3365 16.9405L6.0115 14.0905Z" fill="#FBBC05"/>
<path d="M12.1664 5.375C13.7814 5.375 15.2314 5.93 16.3714 7.02L19.5264 3.865C17.6214 2.09 15.1314 1 12.1664 1C7.86643 1 4.14643 3.465 2.33643 7.06L6.01143 9.91C6.87643 7.31 9.30143 5.375 12.1664 5.375Z" fill="#EA4335"/>
</svg>
