<svg width="24" height="22" viewBox="0 0 24 22" fill="none" xmlns="http://www.w3.org/2000/svg">
<path fill-rule="evenodd" clip-rule="evenodd" d="M13.1389 0.904669L15.8496 3.49949V1.99918C15.8496 1.58497 16.1854 1.24918 16.5996 1.24918H18.8496C19.2638 1.24918 19.5996 1.58497 19.5996 1.99918V7.08919L23.1182 10.4574C23.4175 10.7438 23.4278 11.2186 23.1414 11.5178C22.855 11.817 22.3802 11.8274 22.081 11.541L21.0996 10.6015V19.9992C21.0996 20.397 20.9416 20.7785 20.6603 21.0598C20.379 21.3411 19.9974 21.4992 19.5996 21.4992H15.0996C14.6854 21.4992 14.3496 21.1634 14.3496 20.7492V14.3742C14.3496 14.2747 14.3101 14.1793 14.2398 14.109C14.1694 14.0387 14.0741 13.9992 13.9746 13.9992H10.2246C10.1252 13.9992 10.0298 14.0387 9.95944 14.109C9.88912 14.1793 9.84961 14.2747 9.84961 14.3742V20.7492C9.84961 21.1634 9.51382 21.4992 9.09961 21.4992H4.59961C4.20179 21.4992 3.82026 21.3411 3.53895 21.0598C3.25765 20.7785 3.09961 20.397 3.09961 19.9992V10.6015L2.11823 11.541C1.81902 11.8274 1.34425 11.817 1.05783 11.5178C0.771399 11.2186 0.781768 10.7438 1.08099 10.4574L11.061 0.904051C11.3669 0.593883 11.7838 0.499431 12.1025 0.500003C12.4199 0.500572 12.8354 0.595798 13.1389 0.904669ZM4.59961 9.16566V19.9992H8.34961V14.3742C8.34961 13.8769 8.54715 13.4 8.89878 13.0484C9.25041 12.6967 9.72733 12.4992 10.2246 12.4992H13.9746C14.4719 12.4992 14.9488 12.6967 15.3004 13.0484C15.6521 13.4 15.8496 13.8769 15.8496 14.3742V19.9992H19.5996V9.16566L12.1146 2.00065C12.1101 2.00025 12.1051 2.00001 12.0998 2C12.0944 1.99999 12.0893 2.00023 12.0846 2.00064L4.59961 9.16566ZM18.0996 5.65331V2.74918H17.3496V4.93537L18.0996 5.65331Z" fill="#A8A8A8" stroke="#A8A8A8" stroke-width="0.6" stroke-linecap="round" stroke-linejoin="round"/>
</svg>
