<svg width="24" height="24" viewBox="0 0 24 24" fill="none" xmlns="http://www.w3.org/2000/svg">
<path d="M20.6282 15.9989C20.5503 15.9052 20.4739 15.8114 20.3989 15.7209C19.3677 14.4736 18.7438 13.7208 18.7438 10.1897C18.7438 8.36156 18.3064 6.86156 17.4444 5.73656C16.8088 4.90547 15.9496 4.275 14.8171 3.80906C14.8025 3.80096 14.7895 3.79032 14.7786 3.77766C14.3713 2.41359 13.2566 1.5 11.9994 1.5C10.7422 1.5 9.628 2.41359 9.22066 3.77625C9.20979 3.78845 9.19695 3.79875 9.18269 3.80672C6.53988 4.89469 5.2555 6.98203 5.2555 10.1883C5.2555 13.7208 4.63253 14.4736 3.60034 15.7195C3.52534 15.81 3.44894 15.9019 3.37113 15.9975C3.17013 16.2399 3.04278 16.5348 3.00415 16.8473C2.96552 17.1598 3.01723 17.4769 3.15316 17.7609C3.44238 18.3703 4.05878 18.7486 4.76238 18.7486H19.2416C19.9419 18.7486 20.5541 18.3708 20.8442 17.7642C20.9808 17.4801 21.033 17.1628 20.9947 16.8499C20.9564 16.537 20.8292 16.2417 20.6282 15.9989Z" fill="white"/>
<path d="M11.9994 22.5C12.6768 22.4995 13.3414 22.3156 13.9227 21.9679C14.504 21.6202 14.9804 21.1217 15.3013 20.5252C15.3164 20.4966 15.3239 20.4646 15.323 20.4322C15.322 20.3999 15.3128 20.3684 15.2961 20.3407C15.2794 20.313 15.2558 20.2901 15.2276 20.2742C15.1995 20.2583 15.1677 20.25 15.1353 20.25H8.86441C8.83203 20.2499 8.80017 20.2582 8.77194 20.274C8.74371 20.2899 8.72006 20.3128 8.70331 20.3405C8.68655 20.3682 8.67726 20.3997 8.67633 20.4321C8.6754 20.4645 8.68286 20.4965 8.698 20.5252C9.01888 21.1216 9.49518 21.6201 10.0764 21.9678C10.6576 22.3155 11.3221 22.4994 11.9994 22.5Z" fill="white"/>
</svg>
