<svg width="316" height="228" viewBox="0 0 316 228" fill="none" xmlns="http://www.w3.org/2000/svg">
<path d="M245.295 8.72425C245.65 8.97736 246.147 8.89598 246.402 8.54354L250.349 3.07382C250.603 2.72138 250.522 2.22609 250.167 1.97297C249.813 1.71985 249.315 1.80123 249.061 2.15367L245.114 7.62339C244.859 7.97583 244.941 8.47113 245.295 8.72425Z" fill="#FFE8E2"/>
<path d="M243.648 7.54613C244.002 7.79925 244.5 7.71787 244.754 7.36543L249.169 1.24814C249.423 0.8957 249.341 0.400406 248.987 0.147288C248.633 -0.10583 248.135 -0.0244497 247.881 0.327991L243.466 6.44526C243.212 6.79792 243.294 7.29323 243.648 7.54613Z" fill="#FFE8E2"/>
<path d="M240.992 10.4095L241.107 10.4038C241.679 10.3756 242.124 9.88666 242.096 9.31719L241.851 4.37931C241.823 3.80985 241.331 3.36705 240.759 3.39506L240.644 3.40075C240.071 3.42897 239.626 3.91792 239.655 4.48738L239.9 9.42526C239.928 9.99472 240.419 10.4377 240.992 10.4095Z" fill="#FFE8E2"/>
<path d="M241.998 6.36843C242.352 6.62155 242.85 6.54016 243.104 6.18772L246.643 1.28418C246.897 0.931738 246.815 0.436444 246.461 0.183326C246.107 -0.0695736 245.609 0.0115881 245.355 0.364028L241.816 5.26757C241.562 5.62001 241.643 6.11531 241.998 6.36843Z" fill="#FFE8E2"/>
<path d="M244.169 12.6374C244.169 12.6374 248.311 10.8114 249.101 7.70633C249.374 6.63151 244.425 3.29722 243.326 3.88637C242.228 4.47552 240.162 8.01896 240.162 8.01896L244.169 12.6374Z" fill="#FFE8E2"/>
<path d="M246.929 9.89823C247.282 10.1507 247.779 10.0695 248.033 9.71795L251.564 4.8247C251.818 4.47313 251.736 3.97871 251.383 3.72625C251.029 3.47379 250.532 3.55496 250.279 3.90652L246.747 8.79978C246.493 9.15134 246.575 9.64555 246.929 9.89823Z" fill="#FFE8E2"/>
<path d="M239.734 6.76538C232.833 12.2644 222.486 19.6307 212.388 23.4946C210.048 24.3898 209.142 24.6974 207.707 25.0229C206.552 25.285 205.702 27.6079 206.131 29.5788C206.533 31.4283 208.159 32.7714 209.605 32.7171C210.684 32.6766 211.769 32.3844 214.393 31.4285C223.509 28.1085 233.407 21.8755 244.731 12.3526L239.734 6.76538Z" fill="#FFE8E2"/>
<path d="M217.989 125.732C217.989 125.732 218.542 128.213 220.376 128.586C222.211 128.959 227.249 128.637 225.728 130.598C224.856 131.723 219.774 132.096 218.372 132.369C216.97 132.642 215.774 133.506 214.549 132.775C213.201 131.972 213.341 126.637 213.341 126.637C213.341 126.637 214.674 127.029 215.756 126.789C217.316 126.443 217.989 125.732 217.989 125.732Z" fill="#001828"/>
<path d="M198.514 129.525C198.514 129.525 199.068 132.006 200.901 132.379C202.736 132.752 207.774 132.43 206.253 134.391C205.381 135.516 200.299 135.888 198.898 136.161C197.496 136.435 196.299 137.299 195.074 136.568C193.726 135.764 193.866 130.43 193.866 130.43C193.866 130.43 195.2 130.821 196.282 130.581C197.841 130.235 198.514 129.525 198.514 129.525Z" fill="#001828"/>
<path d="M217.144 54.9177C217.144 54.9177 219.512 65.2945 220.103 85.9701C220.53 100.896 220.542 116.019 220.516 123.275C220.506 125.87 218.754 128.108 216.272 128.695L214.937 129.011C212.253 129.646 209.602 127.761 209.259 124.973L203.361 77.0659L201.139 61.3527L217.144 54.9177Z" fill="#366F90"/>
<path d="M189.315 68.5828C189.567 69.8624 196.892 69.1729 205.792 67.3888C214.692 65.6049 221.698 63.823 221.446 62.5434C221.195 61.2638 213.781 60.9707 204.881 62.7546C195.981 64.5386 189.064 67.303 189.315 68.5828Z" fill="#001828"/>
<path d="M211.894 65.1731L201.457 128.345C201.164 131.024 199.22 133.199 196.627 133.75L195.496 133.99C192.827 134.557 190.295 132.492 190.256 129.716L190.254 69.1182C190.271 68.4153 192.595 67.6409 193.261 67.4529C198.788 65.8944 211.751 62.6109 211.894 65.1731Z" fill="#366F90"/>
<path d="M190.565 33.0088C190.565 33.0088 192.764 25.729 201.883 25.6056C206.193 25.5472 210.894 26.0707 213.405 33.498C215.659 40.1672 219.876 49.0955 221.446 62.5436C221.446 62.5436 206.378 60.0264 189.293 68.4749C189.293 68.4749 186.14 48.8984 187.202 37.2049C187.501 33.9121 189.8 35.3429 190.565 33.0088Z" fill="#005490"/>
<path d="M182.604 30.4761L190.804 36.682C190.804 36.682 212.322 38.4654 213.65 34.2101C215.611 27.9264 211.24 23.0071 211.24 23.0071C211.24 23.0071 203.764 24.7454 200.105 25.5205C198.778 25.8014 195.574 26.1331 194.257 26.3451C185.078 27.824 182.604 30.4761 182.604 30.4761Z" fill="#005490"/>
<path d="M206.218 100.519L205.895 100.507L206.654 79.8595C207.034 76.8282 208.497 74.0866 210.773 72.1255L210.985 72.3688C208.769 74.2778 207.345 76.9472 206.976 79.8853L206.218 100.519Z" fill="#020202"/>
<path d="M203.664 23.0621L203.622 22.9652C203.633 22.9603 204.728 22.4832 204.915 21.6508C205.012 21.2187 204.849 20.7615 204.431 20.2918C204.234 20.0706 204.054 19.8713 203.888 19.6886C202.749 18.43 202.323 17.959 202.363 16.7593L202.469 16.7628C202.43 17.9199 202.817 18.3478 203.967 19.618C204.132 19.8008 204.313 20.0006 204.51 20.2218C204.952 20.7186 205.123 21.2073 205.018 21.6742C204.819 22.5593 203.711 23.0419 203.664 23.0621Z" fill="#001828"/>
<path d="M202.416 16.7603C202.416 16.7603 202.333 18.6211 203.856 20.2888C205.378 21.9565 204.321 23.5529 202.578 23.1129C200.835 22.673 200.58 24.8303 198.314 24.0567C196.049 23.2831 202.416 16.7603 202.416 16.7603Z" fill="#001828"/>
<path d="M194.26 26.3466C195.136 26.0961 195.814 25.4037 196.024 24.5214L196.685 21.7565L196.877 20.9541L198.004 16.2361L198.474 20.8406L198.756 23.6043L198.836 24.3921C198.902 25.0348 199.447 25.519 200.096 25.522H200.107C200.541 26.0099 201.203 27.0399 199.887 27.724C198.34 28.528 195.464 27.706 194.246 26.3507C194.251 26.3494 194.256 26.3481 194.26 26.3466Z" fill="#FFE8E2"/>
<path d="M196.666 21.6818C196.671 21.7067 196.677 21.7314 196.684 21.7562C197.05 23.2031 198.747 23.6135 198.747 23.6135L198.755 23.6037L198.473 20.84C197.96 20.7483 197.243 20.687 196.876 20.9537C196.683 21.0931 196.588 21.3217 196.666 21.6818Z" fill="#001828"/>
<path d="M199.237 22.1992C201.608 21.7865 203.116 19.0922 202.604 16.1815C202.092 13.2707 199.755 11.2456 197.384 11.6583C195.013 12.071 193.506 14.7652 194.017 17.676C194.529 20.5867 196.866 22.6119 199.237 22.1992Z" fill="#FFE8E2"/>
<path d="M194.76 18.37C195.327 18.7473 196.016 18.6765 196.297 18.2113C196.579 17.7465 196.347 17.0635 195.779 16.6861C195.212 16.3087 194.524 16.3796 194.242 16.8447C193.96 17.3096 194.192 17.9926 194.76 18.37Z" fill="#FFE8E2"/>
<path d="M201.25 19.9355C201.25 19.9355 199.789 20.2245 198.232 19.9673C198.232 19.9673 198.363 21.4269 199.969 21.2466C200.902 21.1418 201.25 19.9355 201.25 19.9355Z" fill="#E9633E"/>
<path d="M201.25 19.9355C201.25 19.9355 200.946 20.2904 200.118 20.4308C199.289 20.5713 198.232 19.967 198.232 19.967C198.232 19.967 200.085 20.1427 201.25 19.9355Z" fill="white"/>
<path d="M198.765 16.9051C198.793 16.8925 198.814 16.8675 198.82 16.836C198.831 16.7829 198.797 16.7306 198.744 16.7192C198.713 16.7126 197.996 16.4906 197.529 17.2197C197.499 17.2657 197.511 17.3265 197.557 17.3565C197.602 17.3867 197.654 17.3668 197.694 17.3289C198.09 16.9509 198.677 16.9069 198.703 16.9122C198.725 16.917 198.747 16.9139 198.765 16.9051Z" fill="#080435"/>
<path d="M198.176 18.1097C198.209 18.3427 198.374 18.5122 198.544 18.4881C198.714 18.4641 198.825 18.2556 198.791 18.0226C198.758 17.7896 198.593 17.6201 198.423 17.6441C198.253 17.6682 198.142 17.8767 198.176 18.1097Z" fill="#080435"/>
<path d="M202.339 16.8065C202.37 16.805 202.399 16.7901 202.417 16.7634C202.447 16.7184 202.436 16.6573 202.391 16.6265C202.364 16.6083 201.787 16.1316 201.076 16.6287C201.031 16.6599 201.018 16.7203 201.049 16.7656C201.08 16.8109 201.136 16.8122 201.187 16.7923C201.697 16.5928 202.257 16.7744 202.279 16.7892C202.298 16.8022 202.319 16.8074 202.339 16.8065Z" fill="#080435"/>
<path d="M201.336 17.6949C201.278 17.923 201.366 18.142 201.532 18.1842C201.698 18.2265 201.88 18.0757 201.939 17.8476C201.997 17.6194 201.91 17.4004 201.743 17.3582C201.577 17.3159 201.395 17.4667 201.336 17.6949Z" fill="#080435"/>
<path d="M199.403 12.2943C199.403 12.2943 199.633 14.1392 197.392 14.8504C195.152 15.5616 193.739 16.8036 194.336 18.395C194.934 19.9865 199.234 22.7555 196.747 24.551C194.26 26.3462 194.405 23.7804 191.558 24.8651C188.711 25.9498 187.49 22.1254 189.12 19.4993C190.751 16.873 188.871 11.0011 196.529 9.94294C204.188 8.88474 202.461 15.4124 202.461 15.4124C202.461 15.4124 199.754 14.3146 199.403 12.2943Z" fill="#001828"/>
<path d="M196.024 25.025L195.991 24.9718C196.513 24.6485 196.787 24.2713 196.829 23.8187C196.945 22.5649 195.195 20.9733 193.651 19.5692C193.242 19.1969 192.855 18.8449 192.506 18.5049C191.538 17.5585 191.242 16.2798 191.735 15.1676C192.282 13.9322 193.609 13.2203 195.201 13.3052C195.32 13.3117 195.436 13.3148 195.548 13.3148C198.213 13.3148 199.028 11.5655 199.036 11.5471L199.093 11.5727C199.085 11.5924 198.183 13.5281 195.198 13.368C193.635 13.2813 192.329 13.982 191.792 15.1932C191.303 16.2975 191.587 17.5189 192.551 18.4607C192.898 18.7998 193.284 19.1512 193.693 19.5233C195.248 20.9372 197.01 22.5399 196.892 23.8248C196.848 24.2914 196.556 24.6953 196.024 25.025Z" fill="white"/>
<path d="M202.645 20.3103C202.417 20.3499 202.184 20.3254 201.954 20.2324C200.93 19.8218 200.278 18.1567 200.502 16.5238C200.639 15.523 201.082 14.7155 201.685 14.367C202.046 14.1598 202.438 14.1254 202.82 14.2827C203.844 14.6907 204.494 16.3528 204.271 17.9887C204.135 18.9922 203.692 19.7999 203.088 20.1484C202.945 20.2296 202.797 20.2839 202.645 20.3103ZM200.695 16.5523C200.482 18.1014 201.08 19.6737 202.028 20.0552C202.348 20.1837 202.682 20.1539 202.991 19.9811C203.544 19.6612 203.95 18.9052 204.079 17.9625C204.291 16.4105 203.695 14.8382 202.748 14.4593C202.426 14.3311 202.095 14.3576 201.783 14.5337C201.23 14.8537 200.823 15.607 200.695 16.5523Z" fill="#001828"/>
<g opacity="0.3">
<path d="M195.36 16.3839C195.28 17.9488 196.115 19.4688 197.224 19.7788C198.333 20.0888 199.298 19.0718 199.378 17.5069C199.458 15.942 198.623 14.422 197.513 14.112C196.404 13.802 195.44 14.8193 195.36 16.3839Z" fill="white"/>
</g>
<g opacity="0.3">
<path d="M200.484 16.6597C200.405 18.2316 201.153 19.791 202.155 20.1425C203.158 20.4941 204.035 19.5048 204.114 17.9329C204.194 16.3611 203.446 14.8017 202.443 14.4501C201.441 14.0985 200.564 15.0878 200.484 16.6597Z" fill="white"/>
</g>
<path d="M197.979 19.8416C197.748 19.8816 197.509 19.8696 197.266 19.8015C196.045 19.4734 195.128 17.8433 195.221 16.1677C195.274 15.196 195.65 14.3885 196.252 13.9551C196.673 13.6554 197.153 13.569 197.645 13.7013C198.866 14.0325 199.782 15.6624 199.69 17.3351C199.636 18.31 199.259 19.1174 198.655 19.5513C198.443 19.7013 198.215 19.8004 197.979 19.8416ZM196.967 13.8532C196.756 13.8899 196.554 13.9761 196.367 14.1106C195.82 14.506 195.464 15.2787 195.414 16.1793C195.326 17.7663 196.179 19.3082 197.316 19.6171C197.747 19.7289 198.172 19.6523 198.541 19.3955C199.089 19.0028 199.447 18.227 199.497 17.3235C199.584 15.7368 198.731 14.1949 197.595 13.8857C197.382 13.8293 197.17 13.8179 196.967 13.8532Z" fill="#001828"/>
<path d="M200.785 17.1865C200.745 17.1935 200.703 17.1867 200.665 17.1651C200.642 17.1519 200.117 16.8726 199.345 17.1624C199.254 17.1926 199.147 17.1517 199.111 17.0587C199.075 16.966 199.122 16.8614 199.216 16.8282C200.144 16.46 200.815 16.8358 200.844 16.8505C200.93 16.9008 200.961 17.0115 200.91 17.0966C200.883 17.1467 200.836 17.1775 200.785 17.1865Z" fill="#001828"/>
<path d="M182.565 30.5366C181.99 31.354 183.084 33.1446 185.925 34.9985C188.767 36.8523 190.125 38.3505 191.326 37.3443C192.306 36.5229 191.675 33.3406 187.869 31.2349C185.689 30.0293 182.976 29.9538 182.565 30.5366Z" fill="#001828"/>
<path d="M193.589 67.3616C193.589 67.3616 205.252 63.0271 217.547 63.3182C218.112 63.3316 218.579 63.7599 218.635 64.3191L219.078 68.7777L206.143 68.126L193.589 67.3616Z" fill="#366F90"/>
<path d="M207.389 63.5766L208.892 60.7678C209.058 59.9246 206.918 57.1231 206.058 57.2088C199.759 57.8378 194.113 55.5181 190.783 50.9209C188.422 47.6599 188.901 40.682 190.165 37.3155C190.812 35.5927 188.157 31.4382 184.577 30.6264C183.654 30.417 182.708 30.5128 182.31 31.3676C181.687 32.7053 180.815 34.8036 180.125 37.3326C178.486 43.3389 178.716 48.8579 180.791 53.2926C183.339 58.7356 193.8 65.8024 206.166 67.2266C207.092 67.3331 207.21 64.4867 207.389 63.5766Z" fill="#FFE8E2"/>
<path d="M163.766 53.5373L128.812 180.635L240.917 184.426L250.491 51.3877L163.766 53.5373Z" fill="#005490"/>
<path d="M250.491 51.3877L255.397 54.5071V179.658L240.917 184.426L250.491 51.3877Z" fill="#FFDD00"/>
<path d="M255.397 54.5075L260.125 53.2644L265.733 180.47L255.397 179.658V54.5075Z" fill="#005490"/>
<path d="M184.415 64.9923C185.628 64.9923 186.612 64.0616 186.612 62.9135C186.612 61.7654 185.628 60.8347 184.415 60.8347C183.201 60.8347 182.217 61.7654 182.217 62.9135C182.217 64.0616 183.201 64.9923 184.415 64.9923Z" fill="#001828"/>
<path d="M184.547 65.762C183.593 65.762 182.496 65.1998 181.879 64.395C181.42 63.7971 181.281 63.1414 181.486 62.5487C182.046 60.9294 183.28 59.9626 184.786 59.9626C186.449 59.9626 187.318 61.4969 187.318 63.0125C187.318 64.58 186.127 65.762 184.547 65.762ZM182.556 62.8797C182.441 63.2127 182.62 63.5474 182.791 63.7695C183.196 64.298 183.951 64.6966 184.547 64.6966C185.516 64.6966 186.192 64.004 186.192 63.0121C186.192 62.2145 185.818 61.0276 184.787 61.0276C183.776 61.0278 182.964 61.7027 182.556 62.8797Z" fill="#001828"/>
<path d="M216.886 64.9932C218.1 64.9932 219.084 64.0625 219.084 62.9145C219.084 61.7664 218.1 60.8357 216.886 60.8357C215.672 60.8357 214.688 61.7664 214.688 62.9145C214.688 64.0625 215.672 64.9932 216.886 64.9932Z" fill="#001828"/>
<path d="M217.018 65.7623C216.064 65.7623 214.966 65.2001 214.349 64.3952C213.891 63.7973 213.751 63.1416 213.956 62.549C214.517 60.9296 215.751 59.9629 217.257 59.9629C218.919 59.9629 219.789 61.4971 219.789 63.0128C219.789 64.5803 218.598 65.7623 217.018 65.7623ZM215.027 62.88C214.912 63.213 215.091 63.5477 215.261 63.7697C215.666 64.2983 216.421 64.6969 217.018 64.6969C217.986 64.6969 218.663 64.0043 218.663 63.0123C218.663 62.2147 218.288 61.0279 217.257 61.0279C216.247 61.0281 215.434 61.703 215.027 62.88Z" fill="#001828"/>
<path d="M193.939 79.6673C193.116 79.6673 192.295 79.6143 191.478 79.508C188.75 79.1525 186.595 77.9613 185.072 75.9674C181.38 71.1324 182.871 63.233 182.936 62.8993C183.087 62.128 183.869 61.6178 184.686 61.7609C185.501 61.9033 186.04 62.6438 185.889 63.415C185.869 63.5202 184.577 70.4758 187.511 74.3096C188.549 75.6653 189.98 76.4452 191.888 76.694C196.864 77.3426 201.4 75.5607 205.138 73.0602C211.44 68.8449 215.477 62.5869 215.541 62.4865C215.967 61.8142 216.89 61.5957 217.6 61.9987C218.312 62.4016 218.543 63.273 218.118 63.9459C218.005 64.1242 215.303 68.3583 210.732 72.4058C209.604 73.4047 208.46 74.3032 207.305 75.0996C202.931 78.1155 198.397 79.6673 193.939 79.6673Z" fill="#C8C1E1"/>
<path d="M172.404 115.962L171.43 124.679L161.848 210.481H57.4664L56.282 200.597L44.5654 102.842L56.282 104.044L58.4429 104.266L60.6508 104.494L74.6866 105.935L88.5317 107.356L90.6899 107.577L92.9007 107.802L106.934 109.243L120.779 110.664L122.94 110.886L125.148 111.113L139.18 112.551L153.026 113.972L155.187 114.194L157.397 114.421L171.43 115.863L172.404 115.962Z" fill="#005490"/>
<path d="M74.6842 105.935V210.481H60.6484V104.494L74.6842 105.935Z" fill="#FFDD00"/>
<path d="M58.4402 104.267V210.482H57.4637L56.2793 200.597V104.045L58.4402 104.267Z" fill="#FFDD00"/>
<path d="M106.929 109.244V210.482H92.8965V107.803L106.929 109.244Z" fill="#FFDD00"/>
<path d="M88.5293 107.356V210.482H90.6875V107.578L88.5293 107.356Z" fill="#FFDD00"/>
<path d="M139.179 112.551V210.481H125.146V111.113L139.179 112.551Z" fill="#FFDD00"/>
<path d="M122.938 110.886V210.481H120.777V110.664L122.938 110.886Z" fill="#FFDD00"/>
<path d="M171.427 115.863V124.679L161.845 210.481H157.395V114.422L171.427 115.863Z" fill="#FFDD00"/>
<path d="M155.182 114.195V210.482H153.021V113.973L155.182 114.195Z" fill="#FFDD00"/>
<path d="M50.6318 153.458C51.8954 152.647 167.677 158.294 167.677 158.294L166.99 164.443L52.4889 168.951L50.6318 153.458Z" fill="#E47F89"/>
<path d="M38.2659 96.1901L39.5884 105.047C39.7555 106.166 40.6623 107.03 41.7926 107.148L174.147 120.942C175.618 121.095 176.898 119.948 176.898 118.477V102.346C176.898 101.024 175.856 99.9352 174.529 99.8705L40.8513 93.3505C39.2826 93.2741 38.035 94.6443 38.2659 96.1901Z" fill="#FF443C"/>
<path d="M104.068 96.4355V210.484H112.881L120.211 97.2227L104.068 96.4355Z" fill="#E47F89"/>
<path d="M112.137 96.8287C112.137 96.8287 113.058 79.7256 106.331 65.7799C96.9481 46.3302 81.0854 39.0513 73.8825 42.6348C60.1994 49.442 62.5452 50.6092 47.4939 53.9155C32.4425 57.222 39.3141 74.2612 49.4487 77.2551C74.4691 84.6458 104.066 96.4349 104.066 96.4349L112.137 96.8287Z" fill="#E47F89"/>
<path d="M68.7995 53.5541C66.2039 53.5541 63.657 53.32 61.2441 53.0984C59.9728 52.9816 58.7724 52.8711 57.6002 52.7967C53.8886 52.5607 50.0231 53.4907 49.9844 53.5001C49.9062 53.5189 49.8264 53.4714 49.807 53.3931C49.7877 53.3148 49.8358 53.2358 49.9145 53.2165C49.9534 53.2069 53.8601 52.2666 57.6187 52.5053C58.7948 52.5799 59.9977 52.6906 61.271 52.8076C67.0128 53.3351 73.5207 53.933 79.5895 51.2533C79.6634 51.2207 79.7501 51.2537 79.783 51.3274C79.8158 51.4012 79.7826 51.4874 79.7085 51.52C76.1332 53.0988 72.4192 53.5541 68.7995 53.5541Z" fill="#001828"/>
<path d="M104.066 96.5819C104.028 96.5819 103.989 96.567 103.961 96.5375C103.875 96.4489 95.2425 87.5823 84.3957 78.581C74.3956 70.2825 60.4172 60.1696 50.6126 59.1186C46.2856 58.6548 43.3165 59.5636 41.7884 61.8202C40.4056 63.862 40.0396 67.8318 42.339 72.0977C42.3772 72.1685 42.3504 72.2572 42.2792 72.2952C42.2081 72.3333 42.1189 72.3066 42.0806 72.2355C41.1968 70.5954 40.6152 68.7126 40.4433 66.9336C40.2414 64.8441 40.6224 63.0195 41.5452 61.657C43.1388 59.3037 46.1999 58.3518 50.6441 58.8283C60.5219 59.8872 74.5537 70.0333 84.5854 78.3582C95.4438 87.3694 104.086 96.2456 104.172 96.3342C104.228 96.3922 104.226 96.4845 104.168 96.5405C104.14 96.5683 104.103 96.5819 104.066 96.5819Z" fill="#001828"/>
<path d="M107.357 96.8294C107.357 96.8294 112.195 67.7626 128.81 66.9661C128.81 66.9661 134.87 65.7806 136.483 71.9072C138.096 78.0339 143.96 74.387 146.452 80.8055C148.944 87.2238 146.012 93.0587 133.551 93.2046C121.09 93.3505 117.402 97.2232 117.402 97.2232L107.357 96.8294Z" fill="#E47F89"/>
<path d="M114.198 96.9745C114.183 96.9745 114.167 96.9721 114.151 96.9668C114.075 96.9408 114.034 96.8581 114.06 96.7818C114.08 96.7205 116.258 90.6094 126.107 85.876C130.078 83.9679 134.384 82.6032 137.923 82.1322C141.81 81.6143 144.468 82.2223 145.405 83.8436C146.012 84.8926 146.066 86.0547 145.562 87.2044C144.621 89.3497 141.841 91.1366 138.127 91.9841C138.048 92.002 137.97 91.953 137.952 91.8745C137.934 91.796 137.983 91.7179 138.062 91.6997C141.686 90.8728 144.389 89.1486 145.293 87.0874C145.759 86.0259 145.71 84.9545 145.151 83.9889C144.277 82.477 141.723 81.9202 137.961 82.421C134.453 82.888 130.179 84.2429 126.235 86.1383C116.506 90.8135 114.358 96.8152 114.337 96.8752C114.316 96.9362 114.259 96.9745 114.198 96.9745Z" fill="#001828"/>
<path d="M139.872 76.1282C133.046 76.1282 128.758 72.4423 128.715 72.4041C128.654 72.3509 128.648 72.2588 128.702 72.1982C128.755 72.1376 128.848 72.1319 128.908 72.1851C128.952 72.2234 133.359 76.0083 140.346 75.8304C140.418 75.8309 140.494 75.8919 140.496 75.9727C140.498 76.0532 140.434 76.1201 140.353 76.1223C140.192 76.1262 140.03 76.1282 139.872 76.1282Z" fill="#001828"/>
<path d="M107.384 96.7643C107.379 96.7643 107.373 96.7641 107.367 96.7634C107.287 96.7542 107.229 96.6823 107.238 96.6022C107.248 96.5131 108.282 87.6328 111.246 83.2403C111.292 83.1736 111.382 83.1556 111.45 83.2005C111.517 83.2453 111.535 83.3361 111.49 83.4028C108.565 87.736 107.54 96.5462 107.53 96.6348C107.521 96.7092 107.458 96.7643 107.384 96.7643Z" fill="#001828"/>
<path d="M120.211 97.3679C120.209 97.3679 120.207 97.3679 120.205 97.3679L103.591 96.6825C103.51 96.6792 103.447 96.6112 103.45 96.5307C103.454 96.4502 103.517 96.3867 103.603 96.3911L120.217 97.0765C120.298 97.0798 120.361 97.1478 120.357 97.2283C120.354 97.3066 120.289 97.3679 120.211 97.3679Z" fill="#001828"/>
<path d="M32.7351 220.716C32.7351 220.716 32.8037 223.444 34.6592 224.214C36.5145 224.983 41.8905 225.678 39.8818 227.432C38.7292 228.439 33.2969 227.788 31.7633 227.788C30.2295 227.788 28.7896 228.453 27.65 227.432C26.3961 226.308 27.6502 220.716 27.6502 220.716C27.6502 220.716 28.9736 221.402 30.1638 221.371C31.8787 221.327 32.7351 220.716 32.7351 220.716Z" fill="#001828"/>
<path d="M46.5229 145.922C46.5229 145.922 46.3907 158.497 45.3738 180.683C44.5766 198.077 44.7408 214.197 43.209 221.838C42.6611 224.571 22.3918 223.177 22.6082 220.169L27.4064 166.431L28.3226 149.418L46.5229 145.922Z" fill="#005490"/>
<path d="M16.147 118.328C16.147 118.328 18.8643 110.721 28.5445 111.067C38.2247 111.413 45.9724 124.079 47.7832 151.282C47.7832 151.282 31.5824 147.904 13.0136 155.972C13.0136 155.972 11.8954 129.416 16.147 118.328Z" fill="#FF443C"/>
<path d="M9.34766 117.872L16.2056 122.239C16.2056 122.239 33.8334 123.994 38.5128 123.149C43.1923 122.304 40.7885 119.844 40.7885 119.844C40.7885 119.844 39.469 112.805 30.9977 111.296C30.2018 111.153 29.3999 111.13 28.544 111.069C27.1071 110.967 25.6703 111.011 24.2618 111.162C15.8923 112.061 9.34766 117.872 9.34766 117.872Z" fill="#FF443C"/>
<path d="M9.25067 118.021C9.01277 118.708 10.8062 119.994 13.2567 120.893C15.7069 121.793 17.8862 121.965 18.1241 121.278C18.362 120.591 16.5686 119.305 14.1181 118.406C11.6679 117.506 9.48879 117.334 9.25067 118.021Z" fill="#001828"/>
<path d="M11.4248 220.715C11.4248 220.715 11.4934 223.443 13.3489 224.213C15.2044 224.982 20.5801 225.677 18.5714 227.431C17.4189 228.437 11.9866 227.787 10.453 227.787C8.91918 227.787 7.47926 228.452 6.33946 227.431C5.08555 226.307 6.33968 220.715 6.33968 220.715C6.33968 220.715 7.66307 221.401 8.85322 221.37C10.5686 221.326 11.4248 220.715 11.4248 220.715Z" fill="#001828"/>
<path d="M13.0115 155.972C13.1804 157.362 21.0794 157.193 30.7508 155.975C40.4222 154.757 47.95 152.672 47.7811 151.282C47.6123 149.892 39.8105 149.723 30.1391 150.941C20.4677 152.159 12.8425 154.582 13.0115 155.972Z" fill="#001828"/>
<path d="M35.4204 154.078L17.4191 221.821C16.5548 224.584 -0.522214 224.214 0.0122873 221.28L13.9797 157.207C14.1437 156.47 14.6905 155.884 15.4051 155.679C19.2772 154.568 35.8005 151.349 35.4204 154.078Z" fill="#005490"/>
<path d="M25.1409 193.441L24.8027 193.362L30.2992 170.051C31.3287 166.935 33.4383 164.346 36.2436 162.747L36.4162 163.047C33.6854 164.603 31.6319 167.124 30.6332 170.144L25.1409 193.441Z" fill="#020202"/>
<path d="M20.791 154.465C20.791 154.465 40.0931 150.796 46.3512 152.527L43.3502 156.952L32.1936 157.58L20.791 154.465Z" fill="#F3C5C9"/>
<path d="M31.7349 111.65C31.7349 111.65 29.5384 110.775 29.1932 109.558C28.848 108.34 28.0321 108.715 27.5616 108.403C27.0908 108.09 28.4087 104.781 28.4087 104.781L32.9587 103.126L32.4879 108.933L31.7349 111.65Z" fill="#001828"/>
<path d="M22.2051 111.482C23.118 111.276 24.0295 110.716 24.4189 109.817L25.6236 107.034L25.9754 106.221L28.0448 101.438L27.686 106.394L27.4703 109.369L27.4096 110.207C27.3592 110.901 27.755 110.937 28.443 111.06C28.443 111.06 29.3332 113.739 27.3258 113.739C24.6683 113.739 22.2051 111.482 22.2051 111.482Z" fill="#FFE8E2"/>
<path d="M25.6193 106.952C25.6202 106.98 25.6219 107.007 25.6246 107.034C25.7433 108.632 27.4609 109.378 27.4609 109.378L27.4713 109.37L27.687 106.395C27.1617 106.203 26.4139 106.007 25.9762 106.221C25.7475 106.333 25.6037 106.557 25.6193 106.952Z" fill="#001828"/>
<path d="M28.2712 107.977C30.856 107.977 32.9515 105.405 32.9515 102.232C32.9515 99.0589 30.856 96.4866 28.2712 96.4866C25.6863 96.4866 23.5908 99.0589 23.5908 102.232C23.5908 105.405 25.6863 107.977 28.2712 107.977Z" fill="#FFE8E2"/>
<path d="M30.7907 105.949C30.7907 105.949 29.1921 105.986 27.5932 105.427C27.5932 105.427 27.4604 106.995 29.1918 107.1C30.1988 107.161 30.7907 105.949 30.7907 105.949Z" fill="white"/>
<path d="M28.7232 102.288C28.7544 102.279 28.7812 102.257 28.7942 102.225C28.8159 102.17 28.7896 102.109 28.7353 102.087C28.7032 102.074 27.9866 101.707 27.3571 102.393C27.3175 102.436 27.3182 102.502 27.3609 102.542C27.4035 102.583 27.4624 102.571 27.5115 102.539C28.0004 102.212 28.6293 102.273 28.6561 102.284C28.6783 102.293 28.7016 102.293 28.7232 102.288Z" fill="#080435"/>
<path d="M27.6556 103.397C27.6475 103.649 27.7904 103.859 27.9746 103.864C28.1589 103.87 28.3148 103.67 28.3229 103.418C28.331 103.165 28.1881 102.955 28.0039 102.95C27.8196 102.944 27.6637 103.144 27.6556 103.397Z" fill="#080435"/>
<path d="M30.6836 103.595C30.6594 103.847 30.7885 104.065 30.9718 104.083C31.1554 104.1 31.3239 103.911 31.348 103.659C31.3722 103.407 31.2432 103.189 31.0598 103.171C30.8764 103.154 30.708 103.344 30.6836 103.595Z" fill="#080435"/>
<path d="M25.9996 98.5519C29.5804 99.4027 32.1199 102.594 32.234 106.255C32.2406 106.467 32.2441 106.686 32.2441 106.911C32.2441 106.911 28.5986 107.073 29.1336 109.379C29.5403 111.132 31.9068 112.679 32.7232 112.679C33.9569 112.679 36.0227 108.514 35.3561 103.096C34.6892 97.6772 32.5778 93.6963 27.5767 93.5304C22.5758 93.3646 23.2424 96.682 23.2424 96.682C23.2424 96.682 24.1199 98.1052 25.9996 98.5519Z" fill="#001828"/>
<path d="M26.7 98.5616C26.7 98.5616 26.6152 98.6161 26.478 98.722C25.9487 99.1298 24.6397 100.3 24.4079 102.045C24.1161 104.243 26.2416 105.611 25.6581 107.311C25.0745 109.011 23.5326 107.104 22.2824 107.394C21.0323 107.685 20.1154 107.104 20.0319 104.616C19.9485 102.128 20.5321 96.3225 23.4908 96.3225L26.7 98.5616Z" fill="#001828"/>
<path d="M23.6784 103.095C24.2085 103.599 24.9498 103.651 25.334 103.211C25.7183 102.771 25.6 102.006 25.0699 101.502C24.5398 100.999 23.7984 100.947 23.4141 101.387C23.03 101.827 23.1483 102.592 23.6784 103.095Z" fill="#FFE8E2"/>
<path d="M33.0704 111.926C33.0686 111.926 33.0668 111.926 33.0651 111.926C33.0462 111.923 33.0332 111.905 33.0361 111.887C34.1062 104.97 31.9796 101.331 31.0157 100.087C28.7952 97.2219 26.4288 97.5977 26.405 97.6021C26.3854 97.6054 26.3681 97.5927 26.3648 97.5741C26.3615 97.5553 26.374 97.5373 26.3929 97.534C26.4171 97.5297 28.8247 97.1472 31.0704 100.045C32.0398 101.296 34.1787 104.955 33.1044 111.897C33.102 111.914 33.0873 111.926 33.0704 111.926Z" fill="white"/>
<path d="M24.5158 107.424C24.5105 107.424 24.505 107.422 24.5 107.42C23.0719 106.686 22.1144 105.389 21.7309 103.667C21.1905 101.242 21.8952 98.7684 22.4416 98.0651C23.3892 96.8448 25.0677 97.2537 25.0844 97.2578C25.1029 97.2626 25.1141 97.2814 25.1095 97.2998C25.1046 97.3184 25.0861 97.3294 25.0672 97.3248C25.051 97.3206 23.416 96.9233 22.4965 98.1073C21.9721 98.7824 21.2705 101.282 21.7989 103.652C22.1832 105.377 23.1029 106.624 24.5321 107.358C24.5492 107.367 24.5558 107.388 24.547 107.405C24.5404 107.417 24.5283 107.424 24.5158 107.424Z" fill="white"/>
<path d="M33.7437 105.29C33.7254 105.29 33.71 105.276 33.7092 105.257C33.7052 105.183 33.2901 97.7968 30.6182 96.6575C27.9448 95.5172 25.9493 96.9703 25.9295 96.9852C25.9144 96.9968 25.8926 96.9937 25.8809 96.9784C25.8695 96.9631 25.8726 96.9414 25.8877 96.9301C25.908 96.9152 27.9356 95.4385 30.6455 96.594C31.7855 97.0803 32.6593 98.6866 33.2426 101.369C33.6757 103.361 33.7773 105.235 33.7782 105.254C33.7793 105.273 33.7645 105.289 33.7454 105.29C33.745 105.29 33.7443 105.29 33.7437 105.29Z" fill="white"/>
<path d="M32.4866 108.967H32.4859C32.4668 108.967 32.4516 108.951 32.4518 108.932C32.5064 106.386 32.0103 104.745 32.0055 104.729C31.9998 104.711 32.0101 104.692 32.0283 104.686C32.0464 104.68 32.0662 104.691 32.0717 104.709C32.0767 104.726 32.5758 106.376 32.5213 108.933C32.5208 108.952 32.5052 108.967 32.4866 108.967Z" fill="white"/>
<path d="M30.2889 120.324L20.8229 121.114C19.5683 121.219 18.6202 122.29 18.6741 123.542L19.5599 144.116C19.6153 145.403 20.707 146.402 22.0002 146.35L31.2807 145.975L30.2889 120.324Z" fill="#E47F89"/>
<path d="M52.356 119.399L30.2882 120.324C29.2889 120.366 28.5105 121.202 28.5451 122.197L29.308 144.232C29.3438 145.267 30.2429 146.062 31.28 145.975L55.809 143.927C56.86 143.839 57.6163 142.884 57.4565 141.847L54.2323 120.935C54.0916 120.022 53.2831 119.361 52.356 119.399Z" fill="#CC1728"/>
<path d="M40.5481 138.992L39.0585 138.724C38.5768 138.638 38.3011 138.128 38.4934 137.68L44.2901 124.19C44.4119 123.906 44.6944 123.724 45.0044 123.73L45.6961 123.742C46.2185 123.752 46.5767 124.269 46.3988 124.758L41.4001 138.504C41.2737 138.851 40.9137 139.058 40.5481 138.992Z" fill="#C8C1E1"/>
<path d="M37.3198 125.631C35.4586 126.037 33.8382 127.855 34.0893 129.735C34.3406 131.614 35.9878 132.754 37.8767 132.504C39.7669 132.254 41.616 130.652 41.3649 128.772C41.1139 126.893 39.5972 125.133 37.3198 125.631ZM37.6916 130.586C36.915 130.689 36.4368 129.803 36.3337 129.03C36.2303 128.258 36.8112 127.738 37.5878 127.636C38.3644 127.533 39.0777 128.076 39.181 128.849C39.2841 129.621 38.4682 130.484 37.6916 130.586Z" fill="#C8C1E1"/>
<path d="M47.1518 130.835C45.2906 131.241 43.6702 133.06 43.9213 134.939C44.1724 136.818 45.8199 137.958 47.7088 137.708C49.599 137.458 51.4481 135.855 51.197 133.976C50.9459 132.097 49.4292 130.338 47.1518 130.835ZM47.5238 135.79C46.7473 135.893 46.269 135.007 46.1659 134.235C46.0626 133.462 46.6435 132.942 47.4201 132.839C48.1967 132.737 48.9099 133.28 49.0132 134.052C49.1164 134.825 48.3002 135.688 47.5238 135.79Z" fill="#C8C1E1"/>
<path d="M23.6797 135.183C23.6797 135.183 24.8997 131.509 26.9887 130.61C29.0777 129.71 32.4298 130.133 31.254 130.964C30.0781 131.795 28.2807 132.444 28.2807 132.444C28.2807 132.444 32.1864 131.237 32.0745 132.268C31.9626 133.299 28.5557 134.317 28.5557 134.317C28.5557 134.317 33.3183 133.249 32.8957 134.189C32.4731 135.129 28.8495 135.914 28.8495 135.914C28.8495 135.914 33.3205 135.097 32.8038 136.177C32.2871 137.258 29.1047 136.829 28.9928 137.86C28.8809 138.891 28.0861 142.949 25.1678 142.99L23.6797 135.183Z" fill="#FFE8E2"/>
<path d="M26.888 133.298L26.7363 133.226C27.0578 132.553 28.2185 132.369 28.2677 132.361L28.2932 132.527C28.282 132.528 27.1712 132.705 26.888 133.298Z" fill="#E9845C"/>
<path d="M26.8689 135.343L26.7344 135.243C27.3683 134.399 28.4959 134.24 28.5436 134.233L28.5661 134.399C28.5551 134.401 27.4597 134.557 26.8689 135.343Z" fill="#E9845C"/>
<path d="M27.2822 136.861L27.125 136.802C27.4067 136.056 28.7793 135.84 28.8375 135.832L28.8629 135.997C28.8497 135.999 27.5293 136.207 27.2822 136.861Z" fill="#E9845C"/>
<path d="M58.3199 126.812C58.3199 126.812 58.7732 124.551 56.6964 124.154C54.05 123.647 50.2654 125.541 51.9378 125.885C53.4206 126.19 55.6307 126.12 55.6307 126.12C55.6307 126.12 50.0137 126.374 50.4653 127.517C50.9171 128.659 55.7439 128.375 55.7439 128.375C55.7439 128.375 50.2989 129.136 51.0768 130.077C51.8546 131.019 56.2393 130.789 56.2393 130.789C56.2393 130.789 50.8776 131.247 51.8069 132.32C52.7363 133.392 55.4607 132.597 56.6924 132.522C57.8562 132.451 58.1873 131.682 58.0382 130.569C58.0382 130.569 58.5369 129.376 58.255 128.674C58.1471 128.405 58.3927 128.116 58.4045 127.912C58.4274 127.523 58.3199 126.812 58.3199 126.812Z" fill="#FFE8E2"/>
<path d="M26.0702 141.788L26.1521 136.802C26.1634 136.12 25.6363 135.549 24.9532 135.501C21.4793 135.253 19.0475 134.181 17.7154 132.306C15.8654 129.704 16.0606 125.66 16.576 122.856C16.8398 121.422 16.3638 120.462 14.6218 119.542C14.6218 119.542 13.123 118.722 11.2752 118.409C10.5349 118.283 9.80007 118.579 9.60922 119.302C9.31042 120.433 8.92346 122.192 8.73877 124.262C8.30035 129.179 9.25348 133.456 11.4953 136.631C14.2465 140.528 18.6817 142.684 24.6909 143.05C25.4288 143.095 26.0581 142.524 26.0702 141.788Z" fill="#FFE8E2"/>
<g opacity="0.5">
<path d="M13.3002 135.328C12.8082 135.328 12.242 135.039 11.8249 134.524C11.5323 134.163 11.3533 133.743 11.3208 133.342C11.2865 132.918 11.4186 132.563 11.6928 132.343C11.9672 132.123 12.3434 132.071 12.753 132.195C13.1395 132.311 13.5135 132.575 13.8061 132.937C14.4253 133.701 14.4845 134.68 13.9381 135.118C13.76 135.26 13.5388 135.328 13.3002 135.328ZM12.3357 132.464C12.1677 132.464 12.0197 132.511 11.9038 132.604C11.7189 132.752 11.6308 133.005 11.6558 133.316C11.6829 133.65 11.8359 134.005 12.0866 134.315C12.5808 134.925 13.3323 135.174 13.7275 134.857C14.1226 134.54 14.0388 133.757 13.5445 133.146C13.2936 132.836 12.9779 132.612 12.6553 132.514C12.5434 132.48 12.4359 132.464 12.3357 132.464Z" fill="#EC865C"/>
</g>
<path d="M277.563 108.83C277.563 108.83 266.685 120.983 266.974 122.588C267.263 124.193 277.92 125.074 277.92 125.074L281.002 115.532L277.563 108.83Z" fill="#FFE8E2"/>
<path d="M292.424 210.874C292.424 210.874 292.361 213.365 290.666 214.068C288.972 214.77 284.063 215.405 285.897 217.007C286.95 217.926 291.911 217.332 293.311 217.332C294.712 217.332 296.027 217.939 297.068 217.007C298.213 215.98 297.068 210.873 297.068 210.873C297.068 210.873 295.859 211.5 294.772 211.472C293.206 211.431 292.424 210.874 292.424 210.874Z" fill="#001828"/>
<path d="M276.466 136.093C276.466 136.093 276.128 147.337 279.735 168.908C282.338 184.48 285.412 200.171 286.92 207.694C287.459 210.385 289.734 212.353 292.43 212.46L293.878 212.518C296.793 212.634 299.159 210.143 298.946 207.182L295.288 156.287L294.386 139.535L276.466 136.093Z" fill="#FF443C"/>
<path d="M307.132 211.285C307.132 211.285 307.069 213.777 305.375 214.479C303.68 215.182 298.771 215.816 300.605 217.418C301.658 218.337 306.619 217.743 308.019 217.743C309.42 217.743 310.735 218.351 311.775 217.418C312.92 216.392 311.775 211.285 311.775 211.285C311.775 211.285 310.567 211.911 309.48 211.883C307.914 211.843 307.132 211.285 307.132 211.285Z" fill="#001828"/>
<path d="M292.512 136.093C292.512 136.093 292.174 147.337 295.781 168.907C298.384 184.479 301.458 200.171 302.966 207.694C303.505 210.385 305.78 212.353 308.475 212.46L309.924 212.518C312.839 212.634 315.205 210.143 314.992 207.181L311.334 156.286L310.432 139.535L292.512 136.093Z" fill="#FF443C"/>
<path d="M312.205 148.414C312.17 149.771 303.926 150.31 293.729 149.993C283.532 149.677 275.384 148.274 275.419 146.917C275.454 145.56 283.659 144.764 293.856 145.08C304.052 145.397 312.24 147.058 312.205 148.414Z" fill="#001828"/>
<path d="M309.709 110.012C309.709 110.012 307.906 102.901 294.602 102.829C275.418 102.725 277.194 120.265 275.419 146.921C275.419 146.921 294.316 144.262 312.215 148.084C312.215 148.084 313.875 120.876 309.709 110.012Z" fill="#CC1728"/>
<path d="M314.619 108.99L305.931 113.773C305.931 113.773 286.906 115.492 281.855 114.664C276.805 113.836 275.419 110.146 275.419 110.146C275.419 110.146 280.798 104.608 289.941 103.13C290.8 102.99 291.691 102.887 292.614 102.827C294.165 102.728 295.718 102.748 297.236 102.919C308.824 104.218 314.619 108.99 314.619 108.99Z" fill="#CC1728"/>
<path d="M277.025 148.016C277.025 148.016 288.074 144.782 310.956 149.221L311.132 152.496L277.589 153.676L277.025 148.016Z" fill="#FF443C"/>
<path d="M314.8 109.189C315.537 110.226 314.452 112.275 312.377 113.765C310.302 115.255 308.022 115.623 307.285 114.586C306.549 113.549 307.634 111.5 309.709 110.009C311.784 108.519 314.064 108.152 314.8 109.189Z" fill="#001828"/>
<path d="M278.737 114.099C278.728 114.099 278.718 114.098 278.708 114.095C278.65 114.079 278.616 114.019 278.632 113.961C279.192 111.945 281.069 109.426 281.087 109.401C281.124 109.352 281.192 109.343 281.241 109.379C281.289 109.415 281.299 109.483 281.263 109.531C281.244 109.556 279.392 112.042 278.843 114.019C278.83 114.067 278.786 114.099 278.737 114.099Z" fill="#001828"/>
<path d="M296.497 173.393C296.444 173.393 296.398 173.356 296.389 173.302C296.374 173.21 294.891 164.056 293.874 160.791C293.54 159.719 292.811 158.594 291.705 157.447C291.664 157.403 291.665 157.334 291.708 157.293C291.752 157.251 291.822 157.253 291.863 157.296C292.992 158.468 293.739 159.622 294.083 160.727C295.104 164.007 296.59 173.175 296.605 173.268C296.614 173.327 296.574 173.383 296.514 173.392C296.509 173.393 296.503 173.393 296.497 173.393Z" fill="#001828"/>
<path d="M297.571 104.191C298.302 103.147 297.304 103.022 297.023 101.934L296.152 98.5683L295.898 97.5884L294.408 91.8262L293.9 97.4617L293.596 100.844L293.499 101.915C293.434 102.642 293.229 102.735 292.655 103.342C292.423 103.588 291.552 104.584 292.606 105.133C293.551 105.625 296.638 105.521 297.571 104.191Z" fill="#FFE8E2"/>
<path d="M297.471 97.3265C297.471 97.3265 303.121 95.5671 302.423 91.4045C301.725 87.242 297.207 94.9817 297.207 94.9817L296.911 97.1374L297.471 97.3265Z" fill="#001828"/>
<path d="M296.172 98.4763C296.166 98.5069 296.159 98.5373 296.151 98.5675C295.718 100.34 293.605 100.855 293.605 100.855L293.595 100.844L293.899 97.461C294.538 97.3448 295.435 97.2645 295.898 97.5877C296.14 97.7563 296.264 98.035 296.172 98.4763Z" fill="#001828"/>
<path d="M298.851 94.1403C299.392 90.868 297.619 87.8532 294.892 87.4068C292.164 86.9604 289.515 89.2514 288.974 92.5238C288.433 95.7962 290.205 98.8108 292.933 99.2572C295.66 99.7036 298.31 97.4127 298.851 94.1403Z" fill="#FFE8E2"/>
<path d="M298.843 94.1491C299.384 90.8767 297.611 87.8621 294.884 87.4157C292.156 86.9693 289.507 89.2602 288.966 92.5326C288.425 95.805 290.197 98.8196 292.925 99.266C295.652 99.7124 298.302 97.4215 298.843 94.1491Z" fill="#FFE8E2"/>
<path d="M298.276 93.3151C298.276 93.3151 296.617 93.5932 295.957 92.3481C295.297 91.1031 294.919 90.0436 292.055 90.0578C289.191 90.072 286.927 88.3269 287.098 86.815C287.268 85.303 288.85 84.8561 290.263 85.6275C291.676 86.3989 290.312 84.7612 291.985 83.9036C293.657 83.0458 295.518 85.6848 297.112 85.6345C298.707 85.5842 303.495 87.2072 302.425 91.4037L298.276 93.3151Z" fill="#001828"/>
<path d="M298.859 94.5483C298.342 94.8529 297.7 94.7268 297.427 94.2665C297.153 93.8063 297.351 93.1863 297.869 92.8815C298.386 92.5768 299.028 92.703 299.301 93.1633C299.575 93.6234 299.377 94.2436 298.859 94.5483Z" fill="#FFE8E2"/>
<path d="M290.927 87.7545C290.349 87.7545 289.925 87.6428 289.662 87.4207C289.239 87.0643 289.22 86.758 289.343 86.5905C289.489 86.3916 289.875 86.3321 290.267 86.5758C290.938 86.9932 291.444 86.946 291.448 86.9453L291.456 87.0129C291.434 87.0149 290.924 87.0641 290.231 86.6336C289.872 86.4109 289.526 86.457 289.399 86.6307C289.294 86.7738 289.319 87.0427 289.706 87.3688C290.506 88.0442 292.737 87.4288 292.759 87.4224L292.778 87.4879C292.772 87.4894 292.202 87.648 291.539 87.7193C291.319 87.7427 291.115 87.7545 290.927 87.7545Z" fill="white"/>
<path d="M299.905 87.0383C299.334 86.6077 298.615 86.6252 297.784 86.646C297.363 86.6567 296.927 86.6672 296.454 86.6261C295.032 86.502 293.892 85.1192 293.854 84.9816L293.92 84.9639C293.947 85.049 295.032 86.4338 296.46 86.5583C296.929 86.5992 297.363 86.5882 297.782 86.5782C298.627 86.5576 299.356 86.5392 299.947 86.9842L299.905 87.0383Z" fill="white"/>
<path d="M301.445 90.6008C301.441 90.6008 301.437 90.6005 301.433 90.6001C301.219 90.5795 300.901 89.9361 300.9 89.6143C300.9 89.4496 300.983 89.4168 301.033 89.412C301.041 89.4111 301.049 89.4106 301.057 89.4106C301.441 89.4106 301.595 90.3483 301.601 90.389L301.602 90.3949L301.601 90.4008C301.568 90.5634 301.501 90.6008 301.445 90.6008ZM301.056 89.4787C301.051 89.4787 301.045 89.4789 301.04 89.4796C301.022 89.4813 300.968 89.4866 300.969 89.6143C300.969 89.9162 301.277 90.517 301.44 90.5325C301.441 90.5327 301.443 90.5327 301.444 90.5327C301.493 90.5327 301.519 90.459 301.533 90.3934C301.489 90.1295 301.325 89.4787 301.056 89.4787Z" fill="white"/>
<path d="M292.995 93.1701C292.967 93.1587 292.944 93.1345 292.935 93.1025C292.921 93.0487 292.953 92.9933 293.007 92.9789C293.038 92.9704 293.758 92.7037 294.276 93.4226C294.309 93.4679 294.301 93.5304 294.256 93.5639C294.211 93.5974 294.156 93.5799 294.114 93.5436C293.688 93.1793 293.086 93.167 293.059 93.174C293.037 93.1797 293.015 93.178 292.995 93.1701Z" fill="#080435"/>
<path d="M293.412 94.3436C293.341 94.5738 293.147 94.7188 292.979 94.6672C292.811 94.6158 292.732 94.3874 292.804 94.1572C292.875 93.9271 293.069 93.782 293.237 93.8337C293.405 93.8851 293.483 94.1135 293.412 94.3436Z" fill="#080435"/>
<path d="M289.262 92.5553C289.239 92.5479 289.221 92.5273 289.215 92.4973C289.205 92.447 289.231 92.3892 289.275 92.3682C289.3 92.356 289.88 92.0049 290.28 92.6369C290.305 92.6767 290.297 92.7386 290.261 92.7769C290.224 92.815 290.181 92.8051 290.148 92.7752C289.815 92.4759 289.334 92.5409 289.313 92.5509C289.295 92.5595 289.277 92.5605 289.262 92.5553Z" fill="#080435"/>
<path d="M290.163 93.6783C290.186 93.9181 290.062 94.1257 289.887 94.1417C289.712 94.1577 289.552 93.9763 289.53 93.7363C289.508 93.4963 289.632 93.2889 289.807 93.273C289.981 93.257 290.141 93.4383 290.163 93.6783Z" fill="#080435"/>
<path d="M288.738 96.6209C288.468 96.6209 288.205 96.5386 287.961 96.3756C287.331 95.9556 286.909 95.0503 286.831 93.9541C286.704 92.1702 287.528 90.4148 288.666 90.0411C289.089 89.9026 289.511 89.9624 289.887 90.2135C290.516 90.6336 290.939 91.5388 291.017 92.6351C291.144 94.4189 290.32 96.1744 289.181 96.548C289.033 96.5966 288.884 96.6209 288.738 96.6209ZM289.108 90.1785C288.984 90.1785 288.858 90.1991 288.732 90.2402C287.679 90.5856 286.921 92.245 287.041 93.9394C287.114 94.9718 287.502 95.8176 288.078 96.2017C288.398 96.4155 288.757 96.4666 289.115 96.3489C290.168 96.0035 290.927 94.3441 290.807 92.65C290.733 91.6176 290.346 90.772 289.77 90.3876C289.562 90.2487 289.337 90.1785 289.108 90.1785Z" fill="#FF8548"/>
<g opacity="0.3">
<path d="M296.597 92.8389C296.573 94.5392 295.562 96.127 294.338 96.3851C293.115 96.6433 292.142 95.4742 292.166 93.7739C292.191 92.0736 293.202 90.4858 294.425 90.2276C295.649 89.9695 296.621 91.1386 296.597 92.8389Z" fill="white"/>
</g>
<g opacity="0.3">
<path d="M291.027 92.7777C291.002 94.4857 290.081 96.1221 288.971 96.4327C287.86 96.7434 286.98 95.6106 287.005 93.9026C287.03 92.1947 287.951 90.5583 289.061 90.2476C290.171 89.9368 291.051 91.0696 291.027 92.7777Z" fill="white"/>
</g>
<path d="M293.917 96.4453C293.513 96.4453 293.133 96.3066 292.803 96.0358C292.18 95.5245 291.829 94.6243 291.839 93.5661C291.857 91.7468 292.966 90.045 294.311 89.7724C294.854 89.6623 295.368 89.7908 295.798 90.1439C296.421 90.6551 296.773 91.5554 296.763 92.6133C296.745 94.4326 295.636 96.1345 294.291 96.4071C294.164 96.4326 294.04 96.4453 293.917 96.4453ZM294.682 89.9443C294.574 89.9443 294.464 89.9555 294.353 89.978C293.1 90.2318 292.066 91.8426 292.05 93.5683C292.04 94.5484 292.372 95.4103 292.937 95.8743C293.317 96.1857 293.77 96.2992 294.249 96.2018C295.502 95.9481 296.535 94.3375 296.552 92.6116C296.561 91.6317 296.229 90.7695 295.664 90.3055C295.373 90.0666 295.038 89.9443 294.682 89.9443Z" fill="#FF8548"/>
<path d="M292.306 93.4243C292.278 93.4243 292.25 93.4187 292.224 93.4062C291.411 93.033 290.819 93.3038 290.795 93.3156C290.697 93.362 290.58 93.3213 290.532 93.2242C290.485 93.1273 290.525 93.0111 290.622 92.9638C290.654 92.9487 291.398 92.5961 292.388 93.0511C292.487 93.0964 292.53 93.2126 292.484 93.3108C292.451 93.3823 292.38 93.4243 292.306 93.4243Z" fill="#FF8548"/>
<path d="M302.446 91.4548L302.399 91.3548C303.22 90.977 303.042 90.0857 303.04 90.0767L303.149 90.054C303.151 90.0638 303.345 91.0404 302.446 91.4548Z" fill="#001828"/>
<path d="M302.991 92.6518C302.987 92.645 302.576 91.9718 302.109 91.8526L302.137 91.7458C302.648 91.8762 303.068 92.5656 303.086 92.5949L302.991 92.6518Z" fill="#001828"/>
<path d="M286.449 124.798L295.379 190.971C296.17 196.829 292.039 202.213 286.151 203L154.999 220.523C149.111 221.31 143.699 217.2 142.909 211.342L133.979 145.169C133.188 139.311 137.319 133.925 143.206 133.138L274.359 115.615C280.246 114.829 285.658 118.94 286.449 124.798Z" fill="#E47F89"/>
<path d="M264.984 190.355C264.875 189.55 265.443 188.81 266.252 188.702C267.061 188.594 267.75 189.003 268.031 189.766C268.441 190.875 267.588 191.62 266.529 191.762C265.72 191.87 265.093 191.16 264.984 190.355Z" fill="#C8C1E1"/>
<path d="M270.642 189.599C270.534 188.794 271.101 188.054 271.91 187.946C272.719 187.838 273.728 188.367 273.837 189.172C273.995 190.344 273.13 190.88 272.321 190.988C271.512 191.096 270.751 190.403 270.642 189.599Z" fill="#C8C1E1"/>
<path d="M276.182 188.924C276.119 188.115 276.652 187.376 277.45 187.207C278.493 186.986 279.192 187.595 279.42 188.374C279.681 189.267 279.406 190.042 277.966 190.234C277.157 190.342 276.259 189.929 276.182 188.924Z" fill="#C8C1E1"/>
<path d="M265.75 196.014C265.641 195.209 266.115 194.552 266.909 194.365C268.032 194.1 268.676 194.794 268.82 195.593C268.992 196.549 268.22 197.168 267.411 197.276C266.602 197.384 265.858 196.819 265.75 196.014Z" fill="#C8C1E1"/>
<path d="M271.259 195.351C271.215 194.54 271.283 193.687 272.676 193.605C273.49 193.558 274.229 194.062 274.337 194.867C274.446 195.672 273.878 196.412 273.069 196.52C272.26 196.628 271.317 196.422 271.259 195.351Z" fill="#C8C1E1"/>
<path d="M276.936 194.486C276.886 193.676 277.355 192.912 278.164 192.804C279.425 192.636 279.994 193.358 280.103 194.163C280.212 194.967 279.534 195.657 278.726 195.765C277.917 195.873 276.998 195.483 276.936 194.486Z" fill="#C8C1E1"/>
<path d="M231.813 210.26L152.268 220.888C147.888 221.473 143.699 217.2 142.908 211.343L133.978 145.17C133.188 139.311 136.096 134.088 140.475 133.503L171.363 129.376C171.732 129.585 171.935 129.701 171.935 129.701C171.935 129.701 182.661 131.06 184.72 140.317C186.78 149.574 188.776 158.302 200.059 159.885C211.341 161.466 224.372 164.964 222.993 181.767C221.614 198.57 233.398 195.014 231.813 210.26Z" fill="#005490"/>
<path d="M290.53 96.6108C290.53 96.6108 292.067 97.0248 293.746 96.8629C293.746 96.8629 293.5 98.41 291.801 98.1018C290.813 97.9226 290.53 96.6108 290.53 96.6108Z" fill="white"/>
<path d="M242.06 171.481L238.095 170.42C236.813 170.078 236.183 168.638 236.806 167.471L255.548 132.317C255.942 131.578 256.747 131.15 257.584 131.235L259.451 131.425C260.861 131.568 261.711 133.048 261.119 134.329L244.474 170.354C244.053 171.265 243.033 171.741 242.06 171.481Z" fill="#C8C1E1"/>
<path d="M236.386 134.644C231.263 135.322 226.468 139.871 226.718 145.007C226.969 150.144 231.162 153.596 236.324 153.346C241.49 153.097 246.853 149.184 246.603 144.047C246.352 138.911 242.654 133.814 236.386 134.644ZM236.261 148.122C234.139 148.224 233.048 145.722 232.945 143.61C232.843 141.499 234.531 140.225 236.653 140.123C238.776 140.021 240.58 141.649 240.683 143.761C240.785 145.873 238.383 148.019 236.261 148.122Z" fill="#C8C1E1"/>
<path d="M261.773 150.926C256.649 151.604 251.855 156.153 252.105 161.289C252.356 166.426 256.548 169.878 261.711 169.629C266.877 169.379 272.24 165.466 271.99 160.329C271.739 155.193 268.041 150.096 261.773 150.926ZM261.648 164.404C259.525 164.507 258.435 162.004 258.332 159.892C258.229 157.781 259.917 156.507 262.04 156.405C264.162 156.303 265.966 157.932 266.069 160.043C266.172 162.155 263.77 164.302 261.648 164.404Z" fill="#C8C1E1"/>
<path d="M289.597 133.865L288.778 131.344C288.767 130.629 290.933 128.644 291.625 128.839C296.696 130.272 301.665 129.193 305.071 125.909C307.486 123.58 308.12 117.79 307.578 114.847C307.301 113.34 307.801 112.333 309.63 111.367C309.63 111.367 311.204 110.506 313.144 110.177C313.921 110.045 314.692 110.356 314.893 111.115C315.206 112.302 315.612 114.149 315.806 116.323C316.267 121.485 315.266 125.975 312.913 129.308C310.024 133.399 300.409 137.669 290.063 137.035C289.288 136.988 289.61 134.637 289.597 133.865Z" fill="#FFE8E2"/>
<g opacity="0.5">
<path d="M311.02 127.94C310.77 127.94 310.538 127.869 310.351 127.719C309.777 127.259 309.839 126.232 310.489 125.429C311.139 124.626 312.134 124.347 312.708 124.806C313.281 125.266 313.219 126.293 312.569 127.096C312.132 127.637 311.537 127.94 311.02 127.94ZM312.037 124.935C311.629 124.935 311.129 125.198 310.764 125.649C310.245 126.29 310.157 127.113 310.572 127.445C310.987 127.777 311.775 127.517 312.294 126.876C312.813 126.234 312.901 125.412 312.487 125.08C312.364 124.981 312.208 124.935 312.037 124.935Z" fill="#EC865C"/>
</g>
<path d="M291.625 128.839C291.625 128.839 290.344 124.982 288.151 124.038C285.958 123.093 282.438 123.537 283.673 124.409C284.908 125.282 286.795 125.963 286.795 125.963C286.795 125.963 282.694 124.696 282.812 125.779C282.929 126.861 286.506 127.929 286.506 127.929C286.506 127.929 281.506 126.808 281.95 127.795C282.393 128.782 286.198 129.607 286.198 129.607C286.198 129.607 281.504 128.749 282.046 129.883C282.589 131.017 285.93 130.567 286.047 131.65C286.165 132.732 286.999 136.992 290.063 137.035L291.625 128.839Z" fill="#FFE8E2"/>
<path d="M288.258 126.859C287.96 126.236 286.794 126.051 286.782 126.049L286.809 125.876C286.861 125.884 288.079 126.077 288.417 126.783L288.258 126.859Z" fill="#E9845C"/>
<path d="M288.277 129.007C287.655 128.18 286.507 128.018 286.495 128.016L286.519 127.842C286.569 127.849 287.753 128.016 288.418 128.902L288.277 129.007Z" fill="#E9845C"/>
<path d="M287.847 130.6C287.587 129.913 286.201 129.695 286.188 129.693L286.214 129.52C286.275 129.529 287.717 129.755 288.012 130.539L287.847 130.6Z" fill="#E9845C"/>
<path d="M174.974 168.241H195.999C198.785 168.241 201.076 170.429 201.189 173.199L203.063 218.741C203.18 221.589 200.958 223.994 198.096 224.117L177.558 224.999L174.974 168.241Z" fill="#FF443C"/>
<path d="M126.13 170.266L174.974 168.241C177.186 168.149 179.058 169.85 179.167 172.05L181.583 220.792C181.697 223.081 179.862 224.999 177.558 224.999H123.077C120.743 224.999 118.897 223.032 119.057 220.715L122.277 173.998C122.418 171.959 124.077 170.351 126.13 170.266Z" fill="#E47F89"/>
<path d="M142.732 211.604L139.496 210.739C138.449 210.459 137.936 209.285 138.444 208.332L153.738 179.646C154.06 179.043 154.716 178.694 155.399 178.763L156.923 178.918C158.073 179.035 158.767 180.243 158.284 181.288L144.702 210.684C144.358 211.428 143.526 211.817 142.732 211.604Z" fill="#C8C1E1"/>
<path d="M138.1 181.546C133.92 182.1 130.007 185.811 130.212 190.003C130.416 194.195 133.838 197.011 138.05 196.808C142.266 196.604 146.642 193.411 146.438 189.22C146.233 185.028 143.216 180.869 138.1 181.546ZM137.999 192.545C136.267 192.628 135.377 190.586 135.293 188.863C135.209 187.14 136.587 186.101 138.318 186.017C140.05 185.934 141.522 187.263 141.606 188.986C141.69 190.709 139.731 192.461 137.999 192.545Z" fill="#C8C1E1"/>
<path d="M158.816 194.83C154.636 195.383 150.723 199.095 150.928 203.287C151.132 207.478 154.553 210.295 158.766 210.091C162.982 209.888 167.358 206.695 167.154 202.503C166.949 198.312 163.931 194.152 158.816 194.83ZM158.714 205.828C156.983 205.912 156.093 203.87 156.009 202.147C155.925 200.423 157.302 199.384 159.034 199.301C160.766 199.217 162.238 200.546 162.322 202.27C162.406 203.993 160.446 205.745 158.714 205.828Z" fill="#C8C1E1"/>
<path d="M190.91 48.9709C190.91 48.9709 187.914 48.2356 187.258 50.9617C186.423 54.4352 188.73 59.5592 189.29 57.3654C189.786 55.4205 189.825 52.4901 189.825 52.4901C189.825 52.4901 189.829 59.9423 191.384 59.4124C192.939 58.8826 192.848 52.4747 192.848 52.4747C192.848 52.4747 193.539 59.7294 194.845 58.7557C196.151 57.7819 196.105 51.963 196.105 51.963C196.105 51.963 196.397 59.0895 197.887 57.9228C199.377 56.7563 198.476 53.1017 198.449 51.4666C198.424 49.9215 197.415 49.4371 195.919 49.5682C195.919 49.5682 194.353 48.8368 193.397 49.1678C193.031 49.2947 192.659 48.9523 192.387 48.9243C191.867 48.8709 190.91 48.9709 190.91 48.9709Z" fill="#FFE8E2"/>
<g opacity="0.5">
<path d="M186.872 52.9826C186.856 52.8901 186.466 50.7028 187.555 49.5022C188.068 48.9369 188.821 48.6894 189.797 48.7671L189.778 48.9951C188.879 48.9235 188.188 49.1456 187.726 49.6549C186.713 50.7713 187.094 52.9196 187.098 52.9413L186.872 52.9826Z" fill="#EC865C"/>
</g>
<g opacity="0.5">
<path d="M240.796 9.56044C239.605 8.43005 239.624 6.83105 239.625 6.76367L239.855 6.76805C239.855 6.78358 239.839 8.33555 240.954 9.39505L240.796 9.56044Z" fill="#EC865C"/>
</g>
<path d="M113.217 25.7328C113.217 25.7328 115.481 22.6378 113.334 19.3506C113.334 19.3506 111.066 20.4359 110.813 21.2906C110.813 21.2906 112.503 24.4705 109.305 27.8809C109.305 27.8809 112.319 26.7792 113.217 25.7328Z" fill="#D6654E"/>
<path d="M103.189 31.6244C103.189 31.6244 108.877 32.3221 113.219 25.7329C113.219 25.7329 108.123 29.1803 104.882 27.5472C104.882 27.5472 102.994 29.4059 103.189 31.6244Z" fill="#FF8548"/>
<path d="M35.4483 82.2264C35.4483 82.2264 37.3539 83.2536 39.0387 81.8158C39.0387 81.8158 38.2608 80.6366 37.7622 80.5594C37.7622 80.5594 36.1035 81.7357 33.9512 80.2126C33.9512 80.2126 34.7942 81.8053 35.4483 82.2264Z" fill="#D6654E"/>
<path d="M31.3945 77.092C31.3945 77.092 31.4269 80.3044 35.4483 82.2261C35.4483 82.2261 33.1339 79.6516 33.8089 77.7291C33.8089 77.7291 32.6251 76.8185 31.3945 77.092Z" fill="#FF8548"/>
<path d="M141.898 35.4699C141.898 35.4699 143.194 34.7099 143.786 32.0763C143.786 32.0763 142.974 30.9527 142.342 30.623C141.709 30.2933 140.627 29.7724 140.449 30.1411C140.27 30.5097 139.784 31.837 138.978 32.7705C138.172 33.704 139.653 33.6388 140.247 34.543C140.84 35.4471 141.373 35.9418 141.898 35.4699Z" fill="#FF8548"/>
<path d="M121.378 52.8377C121.378 52.8377 121.79 51.3975 120.393 49.0847C120.393 49.0847 119.026 48.8287 118.339 49.0243C117.653 49.2199 116.508 49.5855 116.635 49.9749C116.761 50.3643 117.329 51.6588 117.393 52.8878C117.457 54.1169 118.484 53.053 119.54 53.3C120.597 53.547 121.326 53.5393 121.378 52.8377Z" fill="#FFDD00"/>
<path d="M53.2065 35.4761C53.2065 35.4761 54.4092 36.2507 56.9149 35.6303C56.9149 35.6303 57.5303 34.4636 57.5428 33.7874C57.5553 33.1111 57.5402 31.9724 57.1488 31.9783C56.7572 31.9843 55.4147 32.1378 54.2725 31.8526C53.1302 31.5675 53.8171 32.7946 53.2965 33.6826C52.7756 34.5706 52.5795 35.2326 53.2065 35.4761Z" fill="#FFBA41"/>
<path d="M278.263 45.0732C278.263 45.0732 281.725 46.9396 284.787 44.327C284.787 44.327 283.373 42.1846 282.467 42.0444C282.467 42.0444 279.454 44.1817 275.543 41.4141C275.543 41.4141 277.075 44.3084 278.263 45.0732Z" fill="#D6654E"/>
<path d="M270.898 35.7443C270.898 35.7443 270.957 41.5813 278.264 45.0729C278.264 45.0729 274.059 40.3954 275.285 36.9018C275.285 36.9018 273.135 35.2479 270.898 35.7443Z" fill="#FF8548"/>
<path d="M289.751 62.0933C289.751 62.0933 291.379 63.1412 294.768 62.302C294.768 62.302 295.601 60.7234 295.618 59.8085C295.635 58.8936 295.615 57.3528 295.085 57.3608C294.555 57.3689 292.739 57.5766 291.193 57.1909C289.648 56.8052 290.577 58.4654 289.873 59.6667C289.168 60.8682 288.903 61.7638 289.751 62.0933Z" fill="#FFBA41"/>
<path d="M259.934 21.9293C259.934 21.9293 261.377 21.6578 262.796 19.4335C262.796 19.4335 262.424 18.1342 261.952 17.6234C261.481 17.1126 260.66 16.278 260.374 16.558C260.087 16.838 259.2 17.8969 258.149 18.4893C257.098 19.0817 258.481 19.509 258.725 20.5348C258.97 21.5602 259.295 22.1898 259.934 21.9293Z" fill="#FFDD00"/>
<path d="M236.365 115.019L208.778 95.7489C206.024 93.8255 205.512 89.9703 207.669 87.401L213.511 80.4424C215.393 78.1997 218.672 77.7296 221.115 79.3525L248.328 97.4335C250.968 99.1876 251.679 102.739 249.916 105.366L244.448 113.514C242.656 116.185 239.006 116.864 236.365 115.019Z" fill="#C8C1E1"/>
<path d="M214.288 86.0385C215.027 84.9368 216.524 84.6401 217.631 85.3759C218.738 86.1114 219.037 87.6008 218.297 88.7025C217.203 90.3326 216.061 90.1009 214.954 89.3651C213.847 88.6294 213.549 87.1402 214.288 86.0385Z" fill="#C8C1E1"/>
<path d="M216.598 90.6051C215.664 90.6051 214.84 89.8488 214.298 89.1879C213.431 88.1284 213.037 87.1479 213.938 85.8059C214.563 84.8748 215.742 83.9792 217.815 85.0011C219.247 85.7068 219.332 87.4857 218.675 88.8784C218.182 89.9241 217.554 90.5008 216.807 90.5924C216.737 90.6012 216.667 90.6051 216.598 90.6051ZM216.115 85.3833C215.347 85.3833 214.915 85.851 214.634 86.2691C214.059 87.126 214.129 87.6626 214.947 88.6613C215.571 89.4233 216.213 89.8256 216.704 89.7653C217.146 89.711 217.554 89.2936 217.916 88.5246C218.4 87.4992 218.393 86.2161 217.443 85.7484C216.913 85.487 216.477 85.3833 216.115 85.3833Z" fill="#001828"/>
<path d="M215.247 86.9037C215.156 86.9037 215.059 86.8905 214.957 86.8614C210.696 86.2301 207.076 84.9142 204.489 83.0559C202.27 81.4613 200.89 79.5326 200.603 77.6251C200.32 75.7402 201.182 74.1263 202.909 73.3079C203.737 72.9157 204.497 72.7864 205.168 72.9238C205.242 72.9388 205.289 73.0106 205.274 73.0839C205.259 73.1574 205.187 73.2044 205.113 73.1893C204.502 73.0638 203.8 73.1861 203.027 73.5527C201.413 74.3171 200.608 75.8244 200.873 77.5851C201.402 81.1073 205.977 85.2592 215.006 86.5948C215.012 86.5959 215.018 86.597 215.024 86.5987C215.434 86.7184 215.692 86.497 215.789 86.2714C215.891 86.0341 215.861 85.6982 215.554 85.5215C215.489 85.4841 215.467 85.4009 215.504 85.3362C215.542 85.2714 215.626 85.2491 215.69 85.2867C216.121 85.5346 216.192 86.0233 216.039 86.3782C215.917 86.663 215.635 86.9037 215.247 86.9037Z" fill="#001828"/>
<path d="M211.485 82.9898C211.455 82.9898 211.426 82.9806 211.401 82.9613C209.399 81.417 208.274 79.7576 207.962 77.8882C207.78 76.7981 207.519 75.8784 207.185 75.1549C207.154 75.0869 207.184 75.0064 207.252 74.9751C207.321 74.9438 207.401 74.9735 207.433 75.0418C207.777 75.7874 208.045 76.7301 208.231 77.8436C208.531 79.6423 209.623 81.2462 211.568 82.7467C211.628 82.7926 211.638 82.8777 211.592 82.937C211.566 82.9718 211.526 82.9898 211.485 82.9898Z" fill="#001828"/>
</svg>
