<svg width="253" height="252" viewBox="0 0 253 252" fill="none" xmlns="http://www.w3.org/2000/svg">
<path d="M116.747 221.786H6.17193C2.76348 221.786 0 219.023 0 215.614V6.17193C0 2.76348 2.76348 0 6.17193 0H116.746C120.154 0 122.918 2.76348 122.918 6.17193V215.615C122.919 219.023 120.155 221.786 116.747 221.786Z" fill="url(#paint0_linear_336_19369)"/>
<path d="M28.0298 1.54298H6.94342C3.53497 1.54298 0.771491 4.30646 0.771491 7.71491V217.158C0.771491 217.845 0.888756 218.504 1.09629 219.122C0.406574 218.126 0 216.919 0 215.615V6.17193C0 2.76348 2.76348 0 6.17193 0H28.1463C28.0962 0.510727 28.0576 1.02531 28.0298 1.54298ZM116.747 0H95.1241C95.175 0.511499 95.219 1.02531 95.2468 1.54298H117.518C119.624 1.54298 121.48 2.59916 122.594 4.20772C121.773 1.76286 119.468 0 116.747 0Z" fill="#CC1728"/>
<g opacity="0.5">
<path d="M117.467 12.8555H6.99609V210.473H117.467V12.8555Z" fill="black"/>
</g>
<path d="M116.695 12.085H6.22461V209.702H116.695V12.085Z" fill="url(#paint1_linear_336_19369)"/>
<path d="M68.3222 6.91617H54.5958C54.1128 6.91617 53.7217 6.52502 53.7217 6.04207C53.7217 5.55911 54.1128 5.16797 54.5958 5.16797H68.3222C68.8051 5.16797 69.1963 5.55911 69.1963 6.04207C69.1963 6.52502 68.8043 6.91617 68.3222 6.91617Z" fill="#CC1728"/>
<path d="M70.0495 50.367H52.8668C49.7477 50.367 47.2188 47.8381 47.2188 44.7189V27.5363C47.2188 24.4171 49.7477 21.8882 52.8668 21.8882H70.0495C73.1686 21.8882 75.6976 24.4171 75.6976 27.5363V44.7189C75.6976 47.8381 73.1686 50.367 70.0495 50.367Z" fill="#FFD9D8"/>
<path d="M36.9958 50.367H19.8131C16.694 50.367 14.165 47.8381 14.165 44.7189V27.5363C14.165 24.4171 16.694 21.8882 19.8131 21.8882H36.9958C40.1149 21.8882 42.6439 24.4171 42.6439 27.5363V44.7189C42.6439 47.8381 40.1149 50.367 36.9958 50.367Z" fill="#E47F89"/>
<path d="M103.105 50.367H85.9225C82.8034 50.367 80.2744 47.8381 80.2744 44.7189V27.5363C80.2744 24.4171 82.8026 21.8882 85.9225 21.8882H103.105C106.224 21.8882 108.753 24.4171 108.753 27.5363V44.7189C108.753 47.8381 106.224 50.367 103.105 50.367Z" fill="#E47F89"/>
<path d="M70.0505 83.4215H52.8678C49.7487 83.4215 47.2197 80.8925 47.2197 77.7734V60.5907C47.2197 57.4716 49.7487 54.9426 52.8678 54.9426H70.0505C73.1696 54.9426 75.6986 57.4716 75.6986 60.5907V77.7734C75.6986 80.8925 73.1696 83.4215 70.0505 83.4215Z" fill="#FFD25E"/>
<path d="M36.9958 83.4215H19.8131C16.694 83.4215 14.165 80.8925 14.165 77.7734V60.5907C14.165 57.4716 16.694 54.9426 19.8131 54.9426H36.9958C40.1149 54.9426 42.6439 57.4716 42.6439 60.5907V77.7734C42.6439 80.8925 40.1149 83.4215 36.9958 83.4215Z" fill="#D43A48"/>
<path d="M103.105 83.4215H85.9225C82.8034 83.4215 80.2744 80.8925 80.2744 77.7734V60.5907C80.2744 57.4716 82.8026 54.9426 85.9225 54.9426H103.105C106.224 54.9426 108.753 57.4716 108.753 60.5907V77.7734C108.753 80.8925 106.224 83.4215 103.105 83.4215Z" fill="#FF7D57"/>
<path d="M70.0495 116.475H52.8668C49.7477 116.475 47.2188 113.946 47.2188 110.827V93.6444C47.2188 90.5253 49.7477 87.9963 52.8668 87.9963H70.0495C73.1686 87.9963 75.6976 90.5253 75.6976 93.6444V110.827C75.6976 113.946 73.1686 116.475 70.0495 116.475Z" fill="#F3C5C9"/>
<path d="M36.9958 116.475H19.8131C16.694 116.475 14.165 113.946 14.165 110.827V93.6444C14.165 90.5253 16.694 87.9963 19.8131 87.9963H36.9958C40.1149 87.9963 42.6439 90.5253 42.6439 93.6444V110.827C42.6439 113.946 40.1149 116.475 36.9958 116.475Z" fill="#F9E4CE"/>
<path d="M103.105 116.475H85.9225C82.8034 116.475 80.2744 113.946 80.2744 110.827V93.6444C80.2744 90.5253 82.8026 87.9963 85.9225 87.9963H103.105C106.224 87.9963 108.753 90.5253 108.753 93.6444V110.827C108.753 113.946 106.224 116.475 103.105 116.475Z" fill="#F3C5C9"/>
<path d="M62.2367 62.4319L63.5359 66.4313C63.6454 66.7685 63.9594 66.9961 64.3135 66.9961H68.5189C69.3113 66.9961 69.6407 68.0098 68.9996 68.4758L65.5973 70.9476C65.3111 71.156 65.1907 71.5247 65.3003 71.8619L66.5995 75.8613C66.844 76.615 65.9823 77.2415 65.3412 76.7755L61.9389 74.3036C61.6519 74.0953 61.2638 74.0953 60.9776 74.3036L57.5753 76.7755C56.9342 77.2415 56.0725 76.615 56.317 75.8613L57.6162 71.8619C57.7258 71.5247 57.6054 71.156 57.3192 70.9476L53.9169 68.4758C53.2758 68.0098 53.6052 66.9961 54.3976 66.9961H58.603C58.9571 66.9961 59.2711 66.7677 59.3806 66.4313L60.6798 62.4319C60.9259 61.6789 61.9921 61.6789 62.2367 62.4319Z" stroke="#FFB63D" stroke-width="2" stroke-miterlimit="10" stroke-linecap="round" stroke-linejoin="round"/>
<path d="M62.2367 62.4319L63.5359 66.4313C63.6454 66.7685 63.9594 66.9961 64.3135 66.9961H68.5189C69.3113 66.9961 69.6407 68.0098 68.9996 68.4758L65.5973 70.9476C65.3111 71.156 65.1907 71.5247 65.3003 71.8619L66.5995 75.8613C66.844 76.615 65.9823 77.2415 65.3412 76.7755L61.9389 74.3036C61.6519 74.0953 61.2638 74.0953 60.9776 74.3036L57.5753 76.7755C56.9342 77.2415 56.0725 76.615 56.317 75.8613L57.6162 71.8619C57.7258 71.5247 57.6054 71.156 57.3192 70.9476L53.9169 68.4758C53.2758 68.0098 53.6052 66.9961 54.3976 66.9961H58.603C58.9571 66.9961 59.2711 66.7677 59.3806 66.4313L60.6798 62.4319C60.9259 61.6789 61.9921 61.6789 62.2367 62.4319Z" fill="white"/>
<path opacity="0.4" d="M122.918 215.613V152.449L110.29 146.99L109.953 130.45C109.881 126.891 106.947 124.103 103.387 124.198L89.5403 124.569C86.1473 124.66 83.2804 127.293 82.9363 130.666L82.4727 159.776L83.1593 87.2376C83.228 80.0049 77.0714 74.2295 69.3534 74.2295C61.5722 74.2295 54.9698 80.0913 54.6596 87.4336L49.8 202.481L51.7966 155.219L36.106 176.812C28.7414 186.946 26.2819 199.893 29.7489 211.366L32.8974 221.785H116.746C120.155 221.785 122.918 219.022 122.918 215.613Z" fill="url(#paint2_linear_336_19369)"/>
<path d="M137.966 168.782L132.715 165.604C130.269 164.123 128.518 161.726 127.851 158.947C127.089 155.776 124.924 153.125 121.967 151.746L107.545 145.022V129.427C107.545 125.997 104.765 123.217 101.335 123.217H88.1167C84.9073 123.217 82.2264 125.662 81.9325 128.858L81.7565 155.554V85.6951C81.7565 78.0851 75.5877 71.9163 67.9777 71.9163C60.3677 71.9163 54.1989 78.0851 54.1989 85.6951V190.11V150.318L41.5171 168.319C35.8173 176.411 34.4757 186.794 37.9335 196.068L52.3303 234.684C53.5663 237.998 54.1989 241.508 54.1989 245.045V251.306H124.399V235.951C136.136 227.735 143.126 214.31 143.126 199.984V177.938C143.126 174.192 141.168 170.721 137.966 168.782Z" fill="url(#paint3_linear_336_19369)"/>
<path d="M54.1988 150.318V190.11L51.6938 186.065C50.1014 183.495 49.4835 180.438 49.951 177.451L54.1988 150.318ZM107.545 145.023V156.988L109.671 146.014L107.545 145.023ZM85.6749 123.723C83.6382 124.596 82.1476 126.525 81.9332 128.859V156.989L85.6749 123.723Z" fill="url(#paint4_linear_336_19369)"/>
<path d="M217.334 110.822L238 101.162L230.945 92.7306L218.238 105.481L231.913 85.7972L220.591 78.9155C220.591 78.9155 213.993 96.6722 208.791 110.821H217.334V110.822Z" fill="url(#paint5_linear_336_19369)"/>
<path opacity="0.4" d="M208.792 110.822H217.334L223.207 107.227H213.338L213.561 97.8904L208.792 110.822Z" fill="url(#paint6_linear_336_19369)"/>
<path d="M211.379 110.822L213.417 79.8296L186.335 88.2396L203.512 110.822H211.379Z" fill="url(#paint7_linear_336_19369)"/>
<path d="M195.895 97.8908L190.205 89.5471L209.495 83.1506L195.177 89.4522L195.895 97.8908Z" fill="white"/>
<path opacity="0.4" d="M203.513 110.823L202.789 109.872L211.446 109.822L211.38 110.823H203.513Z" fill="#CC1728"/>
<path d="M235.391 110.653H171.655V184.755H235.391V110.653Z" fill="url(#paint8_linear_336_19369)"/>
<path d="M235.39 184.755H171.654V182.01H235.39V184.755ZM235.39 176.521H171.654V179.265H235.39V176.521ZM235.39 171.032H171.654V173.776H235.39V171.032ZM235.39 165.543H171.654V168.287H235.39V165.543ZM235.39 160.055H171.654V162.799H235.39V160.055ZM235.39 154.565H171.654V157.31H235.39V154.565ZM235.39 149.076H171.654V151.82H235.39V149.076ZM235.39 143.587H171.654V146.331H235.39V143.587ZM235.39 138.098H171.654V140.842H235.39V138.098ZM235.39 132.609H171.654V135.353H235.39V132.609ZM235.39 127.12H171.654V129.864H235.39V127.12ZM235.39 121.631H171.654V124.375H235.39V121.631ZM235.39 116.142H171.654V118.886H235.39V116.142ZM235.39 110.653H171.654V113.398H235.39V110.653Z" fill="#D43A48"/>
<path d="M252.681 110.653H235.39V184.756H252.681V110.653Z" fill="url(#paint9_linear_336_19369)"/>
<path d="M252.681 184.755H235.39V182.011H252.681V184.755ZM252.681 176.521H235.39V179.266H252.681V176.521ZM252.681 171.032H235.39V173.777H252.681V171.032ZM252.681 165.543H235.39V168.287H252.681V165.543ZM252.681 160.055H235.39V162.799H252.681V160.055ZM252.681 154.566H235.39V157.31H252.681V154.566ZM252.681 149.076H235.39V151.821H252.681V149.076ZM252.681 143.587H235.39V146.331H252.681V143.587ZM252.681 138.098H235.39V140.842H252.681V138.098ZM252.681 132.609H235.39V135.353H252.681V132.609ZM252.681 127.12H235.39V129.864H252.681V127.12ZM252.681 121.631H235.39V124.376H252.681V121.631ZM252.681 116.142H235.39V118.886H252.681V116.142ZM252.681 110.653H235.39V113.398H252.681V110.653Z" fill="#DC5D69"/>
<path opacity="0.4" d="M208.887 110.653H199.7V184.756H208.887V110.653Z" fill="url(#paint10_linear_336_19369)"/>
<path opacity="0.4" d="M248.669 110.653H244.032V184.756H248.669V110.653Z" fill="url(#paint11_linear_336_19369)"/>
<path d="M208.116 110.653H198.929V184.756H208.116V110.653Z" fill="url(#paint12_linear_336_19369)"/>
<path d="M247.897 110.653H243.261V184.756H247.897V110.653Z" fill="url(#paint13_linear_336_19369)"/>
<path opacity="0.4" d="M171.655 153.069V143.882H235.39V153.069H171.655Z" fill="url(#paint14_linear_336_19369)"/>
<path d="M171.655 152.298V143.111H235.39V152.298H171.655Z" fill="url(#paint15_linear_336_19369)"/>
<path d="M172.89 144.193H207.118L172.89 145.399V144.193Z" fill="white"/>
<path opacity="0.4" d="M235.391 153.069V143.882H252.682V153.069H235.391Z" fill="url(#paint16_linear_336_19369)"/>
<path d="M235.391 152.298V143.111H252.682V152.298H235.391Z" fill="url(#paint17_linear_336_19369)"/>
<path d="M177.544 88.4747V91.5606L159.275 83.8889V80.803L177.544 88.4747ZM163.572 79.6635L166.357 78.9251L160.234 73.7631C159.414 73.1521 158.577 72.5758 157.712 72.0504C154.247 69.9512 149.735 68.9436 146.527 68.4383C144.326 68.0919 139.688 68.0039 137.79 68.0039H120.777V71.0899H137.79C139.689 71.0899 144.326 71.1778 146.527 71.5242C149.735 72.0303 154.247 73.0379 157.712 75.1364C158.577 75.6617 159.415 76.2388 160.234 76.8491L163.572 79.6635Z" fill="#CC1728"/>
<path d="M177.544 88.4746L159.276 80.8029L166.357 78.925L160.235 73.763C159.414 73.152 158.577 72.5757 157.712 72.0503C154.247 69.9511 149.735 68.9435 146.527 68.4382C144.326 68.0918 139.688 68.0038 137.79 68.0038H120.777V66.6367C120.777 63.4073 123.396 60.7888 126.625 60.7888H139.184C142.702 60.7888 145.55 61.4546 147.832 62.1258C152.398 63.4659 156.605 65.7487 160.127 68.7336C161.008 69.4804 161.841 70.2743 162.639 71.0952L167.996 77.2879L169.875 70.2049L177.544 88.4746Z" fill="#DC5D69"/>
<path d="M160.235 73.7621C159.414 73.1511 158.577 72.5748 157.712 72.0494C154.247 69.9502 149.735 68.9426 146.527 68.4373C144.326 68.0909 139.688 68.0029 137.79 68.0029H120.777V67.2314H137.79C139.689 67.2314 144.326 67.3194 146.527 67.6658C149.735 68.1711 154.247 69.1795 157.712 71.2779C158.577 71.8033 159.415 72.3796 160.235 72.9906L167.054 78.7398L166.358 78.9242L160.235 73.7621ZM160.402 80.5034L159.276 80.802L177.544 88.4737L177.151 87.5371L160.402 80.5034Z" fill="#DC5D69"/>
<defs>
<linearGradient id="paint0_linear_336_19369" x1="1.55694" y1="-29.4957" x2="174.299" y2="375.346" gradientUnits="userSpaceOnUse">
<stop stop-color="#DC5D69"/>
<stop offset="0.9998" stop-color="#CC1728"/>
</linearGradient>
<linearGradient id="paint1_linear_336_19369" x1="23.9101" y1="-15.2154" x2="174.611" y2="490.914" gradientUnits="userSpaceOnUse">
<stop stop-color="white"/>
<stop offset="1" stop-color="#CCEEEE"/>
</linearGradient>
<linearGradient id="paint2_linear_336_19369" x1="28.3438" y1="70.9584" x2="136.869" y2="325.302" gradientUnits="userSpaceOnUse">
<stop stop-color="#FBE8EA"/>
<stop offset="1" stop-color="#F3C5C9"/>
</linearGradient>
<linearGradient id="paint3_linear_336_19369" x1="61.0297" y1="68.052" x2="115.504" y2="287.232" gradientUnits="userSpaceOnUse">
<stop stop-color="#F9E4CE"/>
<stop offset="1" stop-color="#FFD9D8"/>
</linearGradient>
<linearGradient id="paint4_linear_336_19369" x1="124.742" y1="258.526" x2="47.9454" y2="97.4758" gradientUnits="userSpaceOnUse">
<stop stop-color="#AC692A"/>
<stop offset="1" stop-color="#FFD9D8"/>
</linearGradient>
<linearGradient id="paint5_linear_336_19369" x1="207.577" y1="76.6295" x2="236.743" y2="126.126" gradientUnits="userSpaceOnUse">
<stop stop-color="#FFB63D"/>
<stop offset="0.9933" stop-color="#AC692A"/>
</linearGradient>
<linearGradient id="paint6_linear_336_19369" x1="208.471" y1="96.2483" x2="222.069" y2="119.326" gradientUnits="userSpaceOnUse">
<stop stop-color="#D43A48"/>
<stop offset="1" stop-color="#CC1728"/>
</linearGradient>
<linearGradient id="paint7_linear_336_19369" x1="193.223" y1="72.7441" x2="226.728" y2="129.604" gradientUnits="userSpaceOnUse">
<stop offset="0.0067" stop-color="#FFD25E"/>
<stop offset="1" stop-color="#FFB63D"/>
</linearGradient>
<linearGradient id="paint8_linear_336_19369" x1="316.92" y1="355.242" x2="158.853" y2="65.9487" gradientUnits="userSpaceOnUse">
<stop stop-color="#DC5D69"/>
<stop offset="1" stop-color="#DC5D69"/>
</linearGradient>
<linearGradient id="paint9_linear_336_19369" x1="169.845" y1="-17.7706" x2="321.947" y2="321.478" gradientUnits="userSpaceOnUse">
<stop stop-color="#EBA2A9"/>
<stop offset="1" stop-color="#D43A48"/>
</linearGradient>
<linearGradient id="paint10_linear_336_19369" x1="176.253" y1="100.116" x2="247.601" y2="221.2" gradientUnits="userSpaceOnUse">
<stop stop-color="#E47F89"/>
<stop offset="1" stop-color="#D43A48"/>
</linearGradient>
<linearGradient id="paint11_linear_336_19369" x1="212.094" y1="78.316" x2="283.443" y2="222.836" gradientUnits="userSpaceOnUse">
<stop stop-color="#E47F89"/>
<stop offset="1" stop-color="#D43A48"/>
</linearGradient>
<linearGradient id="paint12_linear_336_19369" x1="175.481" y1="100.116" x2="246.83" y2="221.2" gradientUnits="userSpaceOnUse">
<stop offset="0.0067" stop-color="#FFD25E"/>
<stop offset="1" stop-color="#FFB63D"/>
</linearGradient>
<linearGradient id="paint13_linear_336_19369" x1="211.323" y1="78.316" x2="282.671" y2="222.836" gradientUnits="userSpaceOnUse">
<stop stop-color="#FFB63D"/>
<stop offset="0.9933" stop-color="#AC692A"/>
</linearGradient>
<linearGradient id="paint14_linear_336_19369" x1="175.481" y1="100.887" x2="246.83" y2="221.971" gradientUnits="userSpaceOnUse">
<stop stop-color="#DC5D69"/>
<stop offset="1" stop-color="#CC1728"/>
</linearGradient>
<linearGradient id="paint15_linear_336_19369" x1="175.481" y1="100.116" x2="246.83" y2="221.2" gradientUnits="userSpaceOnUse">
<stop offset="0.0067" stop-color="#FFD25E"/>
<stop offset="1" stop-color="#FFB63D"/>
</linearGradient>
<linearGradient id="paint16_linear_336_19369" x1="263.834" y1="140.278" x2="225.567" y2="156.124" gradientUnits="userSpaceOnUse">
<stop stop-color="#DC5D69"/>
<stop offset="1" stop-color="#CC1728"/>
</linearGradient>
<linearGradient id="paint17_linear_336_19369" x1="263.834" y1="139.506" x2="225.567" y2="155.353" gradientUnits="userSpaceOnUse">
<stop stop-color="#FFB63D"/>
<stop offset="0.9933" stop-color="#AC692A"/>
</linearGradient>
</defs>
</svg>
