<svg width="25" height="24" viewBox="0 0 25 24" fill="none" xmlns="http://www.w3.org/2000/svg">
<path d="M12.8998 12C10.4201 12 8.23569 9.67031 8.02475 6.80625C7.91694 5.35312 8.36694 4.00781 9.29038 3.01875C10.1998 2.03906 11.4841 1.5 12.8998 1.5C14.306 1.5 15.5857 2.04375 16.4998 3.02812C17.4279 4.02656 17.8779 5.36719 17.7701 6.80625C17.5591 9.67031 15.3748 12 12.8998 12ZM12.8998 3C11.906 3 11.0107 3.37031 10.3873 4.04062C9.75444 4.72031 9.44507 5.66719 9.52007 6.69844C9.67007 8.76094 11.2169 10.5047 12.8951 10.5047C14.5732 10.5047 16.1201 8.76094 16.2701 6.69844C16.3451 5.68125 16.0357 4.73906 15.3935 4.05C14.7748 3.37031 13.8841 3 12.8998 3Z" fill="#A8A8A8"/>
<path d="M21.1498 22.4999H4.64976C4.19976 22.4999 3.79664 22.3124 3.51539 21.9796C3.2107 21.614 3.08883 21.1171 3.17789 20.6155C3.57164 18.4218 4.80914 16.5749 6.74976 15.2859C8.47476 14.1374 10.6591 13.5046 12.8998 13.5046C15.1404 13.5046 17.3248 14.1374 19.0498 15.2859C20.9904 16.5796 22.2279 18.4218 22.6216 20.6155C22.7107 21.1171 22.5888 21.614 22.2841 21.9796C22.0029 22.3124 21.5998 22.4999 21.1498 22.4999ZM4.65914 20.9999H21.1404C21.1498 20.9765 21.1544 20.939 21.1451 20.878C20.4185 16.8421 16.3591 14.9999 12.8998 14.9999C9.44039 14.9999 5.38101 16.8421 4.65445 20.878C4.64507 20.939 4.64976 20.9765 4.65914 20.9999Z" fill="#A8A8A8"/>
</svg>
