<svg width="183" height="182" viewBox="0 0 183 182" fill="none" xmlns="http://www.w3.org/2000/svg">
<path d="M65.7251 14.8721H14.918V65.5222H65.7251V14.8721ZM58.6722 58.491H21.9827V21.915H58.6722V58.491Z" fill="black"/>
<path d="M51.3486 29.2041H29.2949V51.1897H51.3486V29.2041Z" fill="black"/>
<path d="M117.274 14.8721V65.5222H168.082V14.8721H117.274ZM161.017 58.491H124.327V21.915H161.017V58.491Z" fill="black"/>
<path d="M153.704 29.2041H131.65V51.1897H153.704V29.2041Z" fill="black"/>
<path d="M14.918 166.905H65.7251V116.255H14.918V166.905ZM21.9827 123.298H58.6722V159.874H21.9827V123.298Z" fill="black"/>
<path d="M51.3486 130.587H29.2949V152.572H51.3486V130.587Z" fill="black"/>
<path d="M29.2947 72.7412H14.918V80.0189H29.2947V72.7412Z" fill="black"/>
<path d="M58.5429 80.3587H65.8667V87.3312H51.3486V88.3172V94.5971V101.851V109.129H58.5429H73.2611V101.851H58.5429V94.5971H73.2611V101.851H80.4553V94.5971V88.3172V87.3312H73.0609V73.0576H65.8667V73.0928H58.5429V80.3587Z" fill="black"/>
<path d="M101.849 94.5977V101.875H94.6551V109.129H87.4726V116.407H80.455V123.638H73.2607V109.129H80.455V101.852H87.6492V94.5977H101.849Z" fill="black"/>
<path d="M116.697 130.587V123.638V123.321V116.36H109.503V123.321H87.6491V130.587H94.7491V138.299H87.6491V130.587H80.4548V138.146H73.084V145.424H80.4548V152.573H73.084V166.905H80.4548H87.2841H87.6491V152.573H94.7491V145.283H101.932V130.587H116.697Z" fill="black"/>
<path d="M109.126 152.573V159.85H131.027V167.116H153.127V159.85H138.174V152.573V145.283H130.98V152.573H109.126Z" fill="black"/>
<path d="M109.126 159.85H94.832V167.127H109.126V159.85Z" fill="black"/>
<path d="M116.839 87.332H101.85V94.6097H116.839V87.332Z" fill="black"/>
<path d="M159.78 94.609V101.793H166.939V109.07H159.756V101.793H152.562V109.07H145.368V101.793H138.232V87.3313L152.48 87.3196V80.2532H145.109V72.9756H159.674V80.2532V87.3313H167.162V94.609H159.78Z" fill="black"/>
<path d="M94.6553 109.129V116.407H101.85V109.153H109.044V101.875H101.85V109.129H94.6553Z" fill="black"/>
<path d="M109.126 145.283H101.932V152.573H109.126V145.283Z" fill="black"/>
<path d="M152.562 145.283H145.368V152.573H152.562V145.283Z" fill="black"/>
<path d="M123.903 101.875H116.709V109.153H123.903V101.875Z" fill="black"/>
<path d="M116.839 87.3313H124.021V80.2532H138.539V72.9873H116.839V80.2532V87.3313Z" fill="black"/>
<path d="M22.1122 87.2969H14.918V109.13H22.1122V87.2969Z" fill="black"/>
<path d="M80.2077 73.0933H80.455V87.3317H87.6492V79.831H94.8317V73.0933H105.535V73.0581H109.538V43.9123H102.356V51.4716H94.8317V58.6319H102.356V65.9213H94.8317V58.6319H87.6492V65.9213H80.243V44.0296H87.4373V14.8721H80.243V22.1615H73.0605V36.7402H80.243V43.9123H73.0605V73.0581H80.2077V73.0933Z" fill="black"/>
<path d="M159.757 123.556V131.162H152.563V123.556H145.368V109.071H138.233V101.781H131.039V109.141H123.892V130.587H116.686V137.864H123.209V145.283H130.98V137.864H138.174V130.575V130.587H145.368V137.864H152.563V145.283H159.757V159.768H166.951V123.556H159.757ZM138.174 123.309H131.086V116.313H138.174V123.309Z" fill="black"/>
<path d="M159.757 109.07H152.562V123.555H159.757V109.07Z" fill="black"/>
<path d="M145.368 137.853H138.174V145.271H145.368V137.853Z" fill="black"/>
<path d="M109.491 22.0441V14.8721H102.356H96.8572H94.832V29.58H102.356V22.0441H109.491Z" fill="black"/>
<path d="M102.356 36.7402H94.832V43.9122H102.356V36.7402Z" fill="black"/>
<path d="M109.879 29.5801H102.355V36.7521H109.879V29.5801Z" fill="black"/>
<path d="M43.6835 101.852H36.4893V109.129H43.6835V101.852Z" fill="black"/>
<path d="M43.6834 94.9267V73.0938H36.4892V80.0193H29.2949V101.852H36.4892V94.9267H43.6834Z" fill="black"/>
<path d="M2.84944 35.8483C1.27165 35.8483 0 34.5806 0 33.0077V2.84063C0 1.26772 1.27165 0 2.84944 0H33.1218C34.6878 0 35.9712 1.26772 35.9712 2.84063C35.9712 4.41354 34.6996 5.68126 33.1218 5.68126H5.68711V33.0194C5.68711 34.5806 4.41545 35.8483 2.84944 35.8483Z" fill="black"/>
<path d="M180.15 35.8483C178.584 35.8483 177.301 34.5806 177.301 33.0077V5.66953H149.878C148.312 5.66953 147.028 4.40181 147.028 2.82889C147.028 1.25598 148.312 0 149.878 0H180.15C181.716 0 183 1.26772 183 2.84063V33.0194C183 34.5806 181.728 35.8483 180.15 35.8483Z" fill="black"/>
<path d="M33.11 182H2.84944C1.28343 182 0 180.732 0 179.159V148.98C0 147.419 1.27165 146.14 2.84944 146.14C4.42723 146.14 5.69888 147.407 5.69888 148.98V176.318H33.1218C34.6878 176.318 35.9712 177.586 35.9712 179.159C35.9595 180.732 34.6878 182 33.11 182Z" fill="black"/>
<path d="M180.15 182H149.878C148.312 182 147.028 180.732 147.028 179.159C147.028 177.598 148.3 176.318 149.878 176.318H177.301V148.98C177.301 147.419 178.572 146.14 180.15 146.14C181.716 146.14 183 147.407 183 148.98V179.159C183 180.732 181.728 182 180.15 182Z" fill="black"/>
</svg>
