<svg width="28" height="28" viewBox="0 0 28 28" fill="none" xmlns="http://www.w3.org/2000/svg">
<path d="M23.5 19H19.5C19.2239 19 19 19.2239 19 19.5V23.5C19 23.7761 19.2239 24 19.5 24H23.5C23.7761 24 24 23.7761 24 23.5V19.5C24 19.2239 23.7761 19 23.5 19Z" fill="#4490C6"/>
<path d="M18.5 15H15.5C15.2239 15 15 15.2239 15 15.5V18.5C15 18.7761 15.2239 19 15.5 19H18.5C18.7761 19 19 18.7761 19 18.5V15.5C19 15.2239 18.7761 15 18.5 15Z" fill="#4490C6"/>
<path d="M27.5 24H24.5C24.2239 24 24 24.2239 24 24.5V27.5C24 27.7761 24.2239 28 24.5 28H27.5C27.7761 28 28 27.7761 28 27.5V24.5C28 24.2239 27.7761 24 27.5 24Z" fill="#4490C6"/>
<path d="M27.5 15H25.5C25.2239 15 25 15.2239 25 15.5V17.5C25 17.7761 25.2239 18 25.5 18H27.5C27.7761 18 28 17.7761 28 17.5V15.5C28 15.2239 27.7761 15 27.5 15Z" fill="#4490C6"/>
<path d="M17.5 25H15.5C15.2239 25 15 25.2239 15 25.5V27.5C15 27.7761 15.2239 28 15.5 28H17.5C17.7761 28 18 27.7761 18 27.5V25.5C18 25.2239 17.7761 25 17.5 25Z" fill="#4490C6"/>
<path d="M26 0H17C16.4696 0 15.9609 0.210714 15.5858 0.585786C15.2107 0.960859 15 1.46957 15 2V11C15 11.5304 15.2107 12.0391 15.5858 12.4142C15.9609 12.7893 16.4696 13 17 13H26C26.5304 13 27.0391 12.7893 27.4142 12.4142C27.7893 12.0391 28 11.5304 28 11V2C28 1.46957 27.7893 0.960859 27.4142 0.585786C27.0391 0.210714 26.5304 0 26 0ZM24 8.5C24 8.63261 23.9473 8.75979 23.8536 8.85355C23.7598 8.94732 23.6326 9 23.5 9H19.5C19.3674 9 19.2402 8.94732 19.1464 8.85355C19.0527 8.75979 19 8.63261 19 8.5V4.5C19 4.36739 19.0527 4.24021 19.1464 4.14645C19.2402 4.05268 19.3674 4 19.5 4H23.5C23.6326 4 23.7598 4.05268 23.8536 4.14645C23.9473 4.24021 24 4.36739 24 4.5V8.5Z" fill="#4490C6"/>
<path d="M11 0H2C1.46957 0 0.960859 0.210714 0.585786 0.585786C0.210714 0.960859 0 1.46957 0 2V11C0 11.5304 0.210714 12.0391 0.585786 12.4142C0.960859 12.7893 1.46957 13 2 13H11C11.5304 13 12.0391 12.7893 12.4142 12.4142C12.7893 12.0391 13 11.5304 13 11V2C13 1.46957 12.7893 0.960859 12.4142 0.585786C12.0391 0.210714 11.5304 0 11 0ZM9 8.5C9 8.63261 8.94732 8.75979 8.85355 8.85355C8.75979 8.94732 8.63261 9 8.5 9H4.5C4.36739 9 4.24021 8.94732 4.14645 8.85355C4.05268 8.75979 4 8.63261 4 8.5V4.5C4 4.36739 4.05268 4.24021 4.14645 4.14645C4.24021 4.05268 4.36739 4 4.5 4H8.5C8.63261 4 8.75979 4.05268 8.85355 4.14645C8.94732 4.24021 9 4.36739 9 4.5V8.5Z" fill="#4490C6"/>
<path d="M11 15H2C1.46957 15 0.960859 15.2107 0.585786 15.5858C0.210714 15.9609 0 16.4696 0 17V26C0 26.5304 0.210714 27.0391 0.585786 27.4142C0.960859 27.7893 1.46957 28 2 28H11C11.5304 28 12.0391 27.7893 12.4142 27.4142C12.7893 27.0391 13 26.5304 13 26V17C13 16.4696 12.7893 15.9609 12.4142 15.5858C12.0391 15.2107 11.5304 15 11 15ZM9 23.5C9 23.6326 8.94732 23.7598 8.85355 23.8536C8.75979 23.9473 8.63261 24 8.5 24H4.5C4.36739 24 4.24021 23.9473 4.14645 23.8536C4.05268 23.7598 4 23.6326 4 23.5V19.5C4 19.3674 4.05268 19.2402 4.14645 19.1464C4.24021 19.0527 4.36739 19 4.5 19H8.5C8.63261 19 8.75979 19.0527 8.85355 19.1464C8.94732 19.2402 9 19.3674 9 19.5V23.5Z" fill="#4490C6"/>
</svg>
