<svg width="24" height="24" viewBox="0 0 24 24" fill="none" xmlns="http://www.w3.org/2000/svg">
<g clip-path="url(#clip0_367_5822)">
<path d="M22.5937 13.4531C22.5937 12.29 21.6474 11.3438 20.4843 11.3438H17.3515C17.7397 10.2944 17.9804 9.04791 18.1211 8.1037C18.2632 7.15055 17.9842 6.18572 17.3557 5.45653C16.7291 4.7295 15.8192 4.3125 14.8593 4.3125C14.471 4.3125 14.1562 4.62731 14.1562 5.01562C14.1562 6.71423 13.18 9.27848 12.0408 9.84966C10.7585 10.4925 8.23589 11.2048 7.73344 11.3438C7.41975 11.3438 1.00631 11.3438 0.703125 11.3438C0.314813 11.3438 5.23402e-09 11.6586 5.23402e-09 12.0469V21.8906C-4.68698e-05 22.2789 0.314766 22.5938 0.703078 22.5938H2.81245V23.2969C2.81245 23.6852 3.12727 24 3.51558 24H6.42183C7.28062 24 8.02064 23.4839 8.34942 22.7457L13.2825 23.979C13.3383 23.9929 13.3956 24 13.4531 24H17.6718C18.8349 24 19.7812 23.0537 19.7812 21.8906C19.7812 21.6163 19.7286 21.3541 19.6329 21.1135C20.5276 20.8693 21.1875 20.0493 21.1875 19.0781C21.1875 18.8038 21.1348 18.5416 21.0391 18.301C21.9339 18.0568 22.5937 17.2368 22.5937 16.2656C22.5937 15.7259 22.3899 15.2328 22.0553 14.8594C22.3899 14.4859 22.5937 13.9929 22.5937 13.4531ZM2.81241 21.1875H1.40616V12.75H2.81241V21.1875ZM7.12491 21.8906C7.12491 22.2783 6.80948 22.5938 6.42178 22.5938H4.21866V12.75H7.12491V21.8906ZM16.2656 15.5625H20.4843C20.872 15.5625 21.1875 15.8779 21.1875 16.2656C21.1875 16.6533 20.872 16.9688 20.4843 16.9688C19.9542 16.9688 16.6989 16.9688 16.2656 16.9688C15.8773 16.9688 15.5625 17.2836 15.5625 17.6719C15.5625 18.0602 15.8773 18.375 16.2656 18.375H19.0781C19.4658 18.375 19.7812 18.6904 19.7812 19.0781C19.7812 19.4658 19.4658 19.7812 19.0781 19.7812C18.78 19.7812 16.5637 19.7812 16.2656 19.7812C15.8773 19.7812 15.5625 20.0961 15.5625 20.4844C15.5625 20.8727 15.8773 21.1875 16.2656 21.1875H17.6718C18.0595 21.1875 18.375 21.5029 18.375 21.8906C18.375 22.2783 18.0595 22.5938 17.6718 22.5938H13.5397L8.5312 21.3417V12.5801C9.47986 12.3077 11.4921 11.6978 12.671 11.1068C14.2859 10.2972 15.2747 7.73653 15.5086 5.83364C15.8077 5.94305 16.0777 6.12764 16.2907 6.37467C16.6518 6.79359 16.812 7.34822 16.7302 7.89633C16.3972 10.1301 15.9794 11.047 15.6367 11.7324C15.5277 11.9504 15.5393 12.2092 15.6675 12.4165C15.7956 12.6238 16.0219 12.75 16.2656 12.75H20.4843C20.872 12.75 21.1875 13.0654 21.1875 13.4531C21.1875 13.8408 20.872 14.1562 20.4843 14.1562H16.2656C15.8773 14.1562 15.5625 14.4711 15.5625 14.8594C15.5625 15.2477 15.8773 15.5625 16.2656 15.5625Z" fill="#005490"/>
<path d="M15.5625 0C15.1742 0 14.8594 0.314812 14.8594 0.703125V2.20312C14.8594 2.59144 15.1742 2.90625 15.5625 2.90625C15.9508 2.90625 16.2656 2.59144 16.2656 2.20312V0.703125C16.2656 0.314812 15.9508 0 15.5625 0Z" fill="#005490"/>
<path d="M11.5853 3.55968L10.5909 2.56532C10.3164 2.29073 9.87116 2.29073 9.59657 2.56532C9.32198 2.83991 9.32198 3.28509 9.59657 3.55968L10.5909 4.55404C10.8655 4.82863 11.3107 4.82863 11.5853 4.55404C11.8599 4.27945 11.8599 3.83427 11.5853 3.55968Z" fill="#005490"/>
<path d="M9.23438 7.82812H7.82812C7.43981 7.82812 7.125 8.14294 7.125 8.53125C7.125 8.91956 7.43981 9.23438 7.82812 9.23438H9.23438C9.62269 9.23438 9.9375 8.91956 9.9375 8.53125C9.9375 8.14294 9.62269 7.82812 9.23438 7.82812Z" fill="#005490"/>
<path d="M23.2969 7.82812H21.8906C21.5023 7.82812 21.1875 8.14294 21.1875 8.53125C21.1875 8.91956 21.5023 9.23438 21.8906 9.23438H23.2969C23.6852 9.23438 24 8.91956 24 8.53125C24 8.14294 23.6852 7.82812 23.2969 7.82812Z" fill="#005490"/>
<path d="M21.5286 2.56532C21.2541 2.29073 20.8089 2.29073 20.5343 2.56532L19.5399 3.55968C19.2653 3.83427 19.2653 4.27945 19.5399 4.55404C19.8145 4.82863 20.2597 4.82863 20.5343 4.55404L21.5286 3.55968C21.8032 3.28509 21.8032 2.83991 21.5286 2.56532Z" fill="#005490"/>
</g>
<defs>
<clipPath id="clip0_367_5822">
<rect width="24" height="24" fill="white"/>
</clipPath>
</defs>
</svg>
