<svg width="59" height="58" viewBox="0 0 59 58" fill="none" xmlns="http://www.w3.org/2000/svg">
<g clip-path="url(#clip0_115_1778)">
<path d="M28.8366 27.9388C32.6749 27.9388 35.9985 26.5621 38.7142 23.8461C41.4298 21.1304 42.8065 17.8077 42.8065 13.9689C42.8065 10.1316 41.4298 6.80835 38.7137 4.09183C35.9976 1.37663 32.6744 0 28.8366 0C24.9978 0 21.6751 1.37663 18.9594 4.09227C16.2438 6.80791 14.8667 10.1311 14.8667 13.9689C14.8667 17.8077 16.2438 21.1309 18.9599 23.8465C21.676 26.5617 24.9992 27.9388 28.8366 27.9388Z" fill="#B8B8B8"/>
<path d="M53.2802 44.5994C53.2019 43.4693 53.0435 42.2364 52.8103 40.9346C52.5749 39.623 52.2718 38.3831 51.9089 37.2499C51.5341 36.0786 51.0243 34.9219 50.3942 33.8134C49.7402 32.6629 48.972 31.6611 48.11 30.8367C47.2086 29.9742 46.105 29.2808 44.8288 28.7751C43.5571 28.2719 42.1477 28.017 40.6401 28.017C40.048 28.017 39.4754 28.26 38.3696 28.9799C37.689 29.4238 36.8929 29.9371 36.0044 30.5048C35.2446 30.9889 34.2153 31.4425 32.944 31.8531C31.7037 32.2545 30.4443 32.458 29.2013 32.458C27.9583 32.458 26.6994 32.2545 25.4577 31.8531C24.1877 31.4429 23.1585 30.9893 22.3996 30.5052C21.5194 29.9428 20.7229 29.4295 20.0322 28.9795C18.9277 28.2595 18.3546 28.0166 17.7626 28.0166C16.2545 28.0166 14.8456 28.2719 13.5743 28.7755C12.299 29.2804 11.1949 29.9738 10.2926 30.8371C9.43109 31.6619 8.66246 32.6633 8.00932 33.8134C7.37964 34.9219 6.86987 36.0781 6.49463 37.2503C6.13222 38.3836 5.8291 39.623 5.59369 40.9346C5.36049 42.2347 5.20207 43.4679 5.12375 44.6007C5.04675 45.7105 5.00781 46.8624 5.00781 48.0257C5.00781 51.0533 5.97026 53.5043 7.86816 55.312C9.74261 57.0957 12.2229 58.0006 15.239 58.0006H43.1663C46.1824 58.0006 48.6618 57.0961 50.5367 55.312C52.435 53.5057 53.3975 51.0542 53.3975 48.0253C53.397 46.8566 53.3577 45.7039 53.2802 44.5994Z" fill="#B8B8B8"/>
</g>
<defs>
<clipPath id="clip0_115_1778">
<rect width="58" height="58" fill="white" transform="translate(0.25)"/>
</clipPath>
</defs>
</svg>
