<svg width="300" height="300" viewBox="0 0 300 300" fill="none" xmlns="http://www.w3.org/2000/svg">
<path d="M191.726 275.798C186.613 277.546 181.151 278.922 175.333 279.861C172.421 280.332 169.416 280.696 166.325 280.937C162.633 281.23 158.811 281.352 154.864 281.297C149.001 281.211 143.51 280.989 138.36 280.633C122.131 279.516 109.29 277.119 98.9751 273.883C93.5877 272.195 88.8905 270.273 84.7572 268.188C82.1414 266.871 79.7557 265.487 77.5629 264.047C74.5353 262.066 71.8787 259.988 69.5078 257.855C64.0722 252.954 60.1504 247.759 56.7517 242.765C55.8427 241.429 54.9708 240.105 54.1174 238.806C32.3564 205.68 39.4987 152.786 70.8064 151.476C88.82 150.719 102.838 157.506 116.799 162.815C127.099 166.733 137.37 169.85 149.183 168.536C152.897 168.125 156.619 167.379 160.336 166.44C160.344 166.436 160.351 166.436 160.359 166.433C160.518 166.392 160.681 166.355 160.837 166.31C166.087 164.96 171.33 163.234 176.543 161.509C177.615 161.157 178.691 160.8 179.764 160.448C180.892 160.081 182.016 159.713 183.14 159.353C199.454 154.159 215.375 150.604 230.153 160.567C263.554 183.088 251.848 255.243 191.726 275.798Z" fill="#E2E1F0"/>
<path d="M58.478 208.326L56.8863 209.951L56.2296 210.623L53.6175 207.877C53.6138 207.873 53.6101 207.866 53.6064 207.862L41.5701 195.206L41.5664 195.203L44.0449 192.717L56.6117 206.308L56.6563 206.352L58.478 208.326Z" fill="#9D78B4"/>
<path d="M67.9947 203.755C67.9798 207.161 65.0079 210.957 61.6204 213.869C61.5944 213.891 61.5647 213.914 61.5387 213.94C61.5053 213.969 61.4719 214.003 61.4386 214.025C61.2605 214.177 61.0787 214.329 60.8969 214.474C57.3312 217.368 53.5059 219.212 52.2592 218.596C50.9346 217.939 55.9658 210.393 53.6172 207.877C53.6135 207.873 53.6098 207.866 53.6061 207.862C53.6061 207.862 53.7879 207.458 54.0958 207.013C54.6487 206.211 55.6022 205.272 56.6114 206.308L56.656 206.352C58.244 208.07 68.0021 201.892 67.9947 203.755Z" fill="#9D78B4"/>
<path opacity="0.23" d="M60.8974 214.474C57.3318 217.368 53.5064 219.212 52.2597 218.596C50.9352 217.94 55.9663 210.393 53.6177 207.877C53.614 207.873 53.6103 207.866 53.6066 207.862L41.5703 195.206L43.8522 194.331C42.7317 195.284 52.5751 205.796 56.2298 208.278C56.8049 208.667 56.8939 209.573 56.7529 210.537C56.4301 212.697 53.6771 216.199 54.6826 216.363C55.9775 216.57 59.1461 215.791 60.8974 214.474Z" fill="#593E6B"/>
<path d="M75.805 25.0845L74.6771 25.6818C74.5472 25.7486 74.4582 25.8711 74.4285 26.0158L74.3691 26.3089L74.9108 26.4239L75.805 25.0845Z" fill="#43618F"/>
<path d="M111.929 49.8881C111.981 49.5764 111.781 49.2276 111.629 48.9605C111.477 48.6933 111.365 49.7322 111.414 49.8547C111.462 49.9771 111.495 50.081 111.532 50.107C111.573 50.1329 111.692 50.1181 111.703 50.107C111.714 50.0958 111.929 49.8881 111.929 49.8881Z" fill="#43608C"/>
<path d="M196.093 103.962C197.396 94.3674 208.712 88.6721 211.172 92.3973C213.632 96.1224 213.001 99.4988 213.001 99.4988C216.515 100.976 217.643 111.309 199.997 111.309C182.35 111.309 196.093 103.962 196.093 103.962Z" fill="#192440"/>
<path d="M193.297 104.701C195.356 103.962 196.094 103.962 196.094 103.962C198.358 105.888 199.634 108.351 199.998 111.309L198.977 113.138L193.301 111.557V104.701H193.297Z" fill="#005490"/>
<path d="M36.453 167.223L36.0301 174.439C36.0301 174.439 16.2986 189.86 15.8311 186.765C15.8014 186.565 15.8237 186.316 15.8979 186.019C15.8979 186.016 15.8979 186.016 15.8979 186.012C16.9553 181.741 28.1085 168.139 35.3511 166.344C35.4364 166.321 35.5218 166.303 35.6071 166.284L35.8705 166.34L36.453 167.223Z" fill="#593E6B"/>
<path d="M69.4453 101.465C70.2876 96.59 89.1767 87.5925 89.1767 87.5925L87.8633 99.2169C87.8633 99.2169 74.4134 106.389 74.2242 106.434C74.035 106.482 69.7718 103.387 69.7718 103.387L69.4453 101.465Z" fill="#9E5F44"/>
<path d="M110.011 52.259C109.87 53.3127 104.668 61.2565 103.606 62.9447C102.549 64.6292 99.6773 85.0174 99.6773 85.0174C99.6773 85.0174 98.0818 89.3288 96.7684 91.4845C96.1673 92.4751 91.9413 95.6029 87.5928 98.4079C82.4836 101.703 77.2076 104.541 77.4599 102.92C77.5563 102.315 77.8977 100.508 78.38 97.9924C80.2983 88.0413 84.4798 67.0372 84.6319 65.9909C84.8174 64.6774 85.0549 61.9578 83.0328 57.2271C83.0328 57.2271 85.1217 54.155 85.4037 53.873C85.6857 53.5947 87.0214 50.9938 87.8636 50.0069C88.7096 49.0236 90.8875 48.6711 92.1527 48.6711C93.418 48.6711 100.449 49.3761 101.013 49.5876C101.573 49.7954 110.152 51.2016 110.011 52.259Z" fill="#FFE1D5"/>
<path d="M94.3945 57.1082L95.4297 57.52C95.4297 57.52 94.9696 57.8243 94.9103 57.8502C94.8546 57.8762 94.5541 57.7612 94.4984 57.6833C94.4428 57.6016 94.3945 57.1082 94.3945 57.1082Z" fill="#43608C"/>
<path d="M87.5927 98.408C82.4836 101.703 77.2076 104.541 77.4599 102.92C77.5563 102.315 77.8977 100.508 78.38 97.9924C81.0144 98.6825 85.7116 97.0871 86.7876 96.5639C87.3701 96.2782 87.641 97.191 87.5927 98.408Z" fill="#FFDD00"/>
<path d="M168.5 88.108C152.824 88.8093 148.747 107.442 142.981 114.611C137.215 121.783 129.765 126.703 127.935 129.092C126.106 131.482 125.264 133.663 122.17 134.858C119.075 136.053 112.326 136.335 109.306 138.583C106.282 140.832 103.47 145.121 103.611 147.863C103.752 150.605 133.23 167 146.164 162.518C159.098 158.033 177.847 181.842 186.659 179.029C195.471 176.217 185.579 168.251 188.673 160.938C191.768 153.625 201.162 135.964 202.171 130.71C203.578 123.397 201.748 112.362 194.792 109.197C195.567 99.5692 179.605 87.6108 168.5 88.108Z" fill="#192440"/>
<path d="M143.263 137.11C141.085 141.329 136.247 142.594 133.008 145.548C129.769 148.501 128.923 151.952 129.624 154.163C130.325 156.374 141.95 159.02 141.95 159.02C141.95 159.02 147.341 156.549 147.411 156.074C147.482 155.599 150.854 149.343 150.995 148.991C151.136 148.638 149.801 143.143 149.66 142.973C149.519 142.802 143.263 137.11 143.263 137.11Z" fill="#0E172D"/>
<path d="M109.424 197.967C100.986 198.531 96.7121 195.236 96.7121 195.236C94.5416 191.515 91.7848 187.66 88.8092 183.745C88.8054 183.742 88.8054 183.738 88.8054 183.738C79.1438 171.015 67.2225 157.651 65.9313 146.037C65.0557 138.171 66.0315 126.499 67.1706 117.071C68.2354 108.296 69.445 101.469 69.445 101.469C69.9162 106.107 88.1821 99.0052 99.6767 85.0173C98.686 90.0893 97.6174 95.6251 96.6787 101.139C95.1427 110.196 93.9591 119.197 94.0555 126.002C94.0518 126.02 94.0555 126.039 94.0555 126.057C94.0889 128.421 94.2782 130.521 94.664 132.261C94.9757 133.689 95.4209 134.877 96.0183 135.775C102.114 144.913 110.247 151.714 118.811 153.688C118.844 153.695 118.874 153.703 118.904 153.706C119.924 153.94 120.952 154.103 121.983 154.193C131.697 155.038 117.861 197.407 109.424 197.967Z" fill="#FFDD00"/>
<path d="M56.0137 243.711C56.1769 243.429 56.3773 243.162 56.6222 242.902C56.4181 243.125 56.214 243.4 56.0137 243.711Z" fill="#FFDD00"/>
<path d="M111.458 172.243C105.299 185.689 101.106 194.334 96.7133 195.236C94.5428 191.514 91.786 187.659 88.8104 183.745C88.8066 183.741 88.8066 183.738 88.8066 183.738C94.6615 186.439 106.672 182.398 111.458 172.243Z" fill="#CA6734"/>
<path d="M183.381 217.858V217.861C182.035 233.311 179.211 250.49 173.965 264.964C172.807 268.162 171.527 271.231 170.121 274.117C168.948 276.525 167.687 278.807 166.325 280.937C162.633 281.23 158.812 281.352 154.864 281.297C149.002 281.211 143.51 280.989 138.36 280.633C122.131 279.516 109.29 277.119 98.9754 273.884C93.588 272.195 88.8907 270.273 84.7574 268.188C82.1417 266.871 79.7559 265.487 77.5631 264.048C74.5355 262.066 71.8789 259.988 69.508 257.855C64.0724 252.954 60.1506 247.759 56.752 242.765C60.7146 238.803 64.4583 234.877 67.9942 231.011C68.4357 230.529 68.8698 230.05 69.304 229.571C70.1722 228.61 71.0293 227.657 71.8715 226.703C72.5394 225.946 73.2035 225.189 73.8565 224.44C75.2034 222.896 76.5131 221.368 77.7895 219.85C77.8451 219.787 77.897 219.72 77.9527 219.657C98.634 195.05 110.633 174.009 116.8 162.815C119.801 157.361 121.423 154.244 121.983 154.192C122.896 154.111 126.617 154.129 131.73 155.046C132.494 155.183 133.196 155.328 133.908 155.502C134.951 155.751 136.012 156.044 137.303 156.408L137.47 156.344C142.13 157.658 147.614 159.788 152.738 162.967C153.454 163.413 154.166 163.876 154.864 164.362C154.864 164.362 157.305 165.134 160.748 166.281C160.778 166.292 160.808 166.303 160.837 166.31C168.433 168.844 180.799 173.171 182.725 175.096C183.307 175.679 183.856 179.2 184.161 184.695V184.699C184.595 192.598 184.532 204.59 183.381 217.858Z" fill="#FFDD00"/>
<path d="M173.966 264.964C172.808 268.162 171.528 271.23 170.122 274.117C168.95 276.525 167.688 278.807 166.326 280.937C162.635 281.23 158.813 281.352 154.865 281.297C160 272.017 161.696 256.092 158.672 245.6C158.672 245.6 165.102 248.022 166.415 248.026C167.729 248.03 172.601 258.144 172.601 259.116C172.601 259.498 173.213 261.94 173.966 264.964Z" fill="#CA6734"/>
<path d="M162.386 174.722C161.822 174.863 148.468 183.638 140.591 187.656C132.714 191.678 125.309 195.44 125.309 195.44C125.309 195.44 126.952 190.609 128.711 183.953C130.47 177.297 132.93 161.576 133.772 155.669C133.772 155.669 133.82 155.61 133.909 155.502C134.61 155.669 135.323 155.858 136.106 156.074C136.484 156.177 136.881 156.289 137.304 156.408L137.471 156.344C139.055 156.79 140.736 157.331 142.465 157.977C145.819 159.227 149.359 160.867 152.739 162.967C157.139 168.065 162.727 174.636 162.386 174.722Z" fill="white"/>
<path d="M142.464 157.977C142.268 158.448 142.049 158.878 141.949 159.019C141.715 159.35 137.685 163.238 137.685 163.238L135.059 157.988C135.059 157.988 135.671 156.808 136.105 156.073C136.483 156.177 136.88 156.289 137.303 156.407L137.47 156.344C139.055 156.79 140.735 157.331 142.464 157.977Z" fill="#5E6576"/>
<path d="M130.18 161.543C126.811 174.017 119.936 202.746 112.797 212.259C118.514 210.43 127.582 193.136 127.582 193.136C127.582 193.136 132.821 178.091 132.84 173.312C132.859 168.533 130.18 161.543 130.18 161.543Z" fill="#D66A3A"/>
<path d="M153.422 182.807L152.932 184.632C152.932 184.636 152.932 184.636 152.932 184.636C146.584 188.892 129.297 201.247 112.798 224.025C100.127 241.523 87.6639 262.575 84.7588 268.189C82.143 266.871 79.7573 265.487 77.5645 264.048C81.5011 255.926 90.0571 244.031 98.4572 231.994C103.37 224.952 108.356 217.921 112.798 211.814C120.125 201.74 125.977 194.168 127.587 193.14C131.921 190.376 133.891 186.057 140.358 183.742C143.419 182.643 146.51 182.376 148.918 182.402C150.528 182.413 151.834 182.562 152.617 182.673C153.132 182.747 153.422 182.807 153.422 182.807Z" fill="#D66A3A"/>
<path opacity="0.17" d="M140.152 186.458C149.072 185.126 154.378 188.78 155.992 189.344C157.602 189.908 154.979 180.721 154.979 180.721C154.979 180.721 153.105 181.096 150.949 181.564C148.79 182.031 140.152 186.458 140.152 186.458Z" fill="#351F15"/>
<path d="M187.737 282.569L193.295 253.644C193.295 253.644 193.295 253.64 193.291 253.636C193.291 253.632 193.291 253.632 193.288 253.629C193.288 253.625 193.288 253.621 193.284 253.618C193.28 253.606 193.276 253.599 193.273 253.588C192.739 252.07 181.225 219.242 181.225 199.466C181.225 199.466 180.398 200.712 179.021 202.671C178.751 200.53 178.547 198.419 178.435 196.367C178.109 190.772 178.42 185.604 179.663 181.355C180.365 178.944 181.366 176.829 182.724 175.096C185.362 175.786 187.874 177.541 190.197 180.127C191.737 181.842 193.199 183.923 194.56 186.298C197.139 190.783 199.365 196.327 201.135 202.456C205.398 217.227 210.229 276.232 187.737 282.569Z" fill="#FFDD00"/>
<path d="M193.289 253.629C193.082 253.365 186.418 244.865 185.724 243.897C185.023 242.913 182.351 233.493 181.646 231.664C180.945 229.838 178.274 213.528 178.741 211.557C179.209 209.591 178.314 197.84 178.314 197.84L178.437 196.367L179.665 181.355C180.366 178.944 181.368 176.829 182.726 175.096C185.364 175.786 187.876 177.541 190.199 180.127C189.52 182.483 188.496 185.255 186.993 188.494C179.739 204.148 189.419 241.637 193.274 253.588C193.278 253.599 193.282 253.606 193.286 253.618C193.289 253.621 193.289 253.625 193.289 253.629Z" fill="#CA6734"/>
<path d="M176.726 147.584C176.726 147.584 166.392 173.033 157.462 177.323C148.535 181.612 142.067 180.065 137.496 179.222C132.929 178.376 131.311 164.808 135.177 161.858C137.148 160.352 139.76 157.328 142.335 154.026C144.338 151.451 146.319 148.705 147.952 146.382C148.33 145.844 148.69 145.329 149.028 144.843L176.726 147.584Z" fill="#FFE1D5"/>
<path d="M158.307 149.506L156.515 152.129C153.829 152.816 147.425 156.111 142.334 154.025C144.338 151.45 146.319 148.705 147.951 146.382L158.307 149.506Z" fill="#FFDD00"/>
<path d="M151.511 106.763C139.137 124.384 140.825 132.914 141.857 137.414C142.888 141.915 148.417 150.445 157.978 152.504C167.54 154.567 185.535 147.35 185.724 147.068C185.913 146.786 190.224 138.164 190.785 135.819C191.349 133.474 191.067 118.948 189.378 118.198C187.69 117.449 178.225 111.264 177.379 110.885C176.533 110.507 171.098 106.949 170.537 106.76C169.973 106.57 168.289 98.6043 168.289 98.6043C168.289 98.6043 164.82 96.2594 164.352 96.0739C163.885 95.8846 159.759 101.699 159.759 101.699L151.511 106.763Z" fill="#FFE1D5"/>
<path d="M167.165 95.2801C166.464 100.129 158.097 106.389 149.166 107.09L161.187 92.8906L167.165 95.2801Z" fill="#192440"/>
<path d="M167.164 95.28C165.057 102.73 165.969 112.503 175.46 115.316C175.249 119.605 180.169 121.293 182.139 121.43C184.109 121.568 181.924 133.801 181.297 137.459C180.031 144.839 170.886 147.076 167.869 151.028C163.791 156.37 161.613 161.995 157.042 163.75C152.471 165.509 164.025 167.924 168.652 170.618C173.279 173.312 186.287 153.065 187.2 151.169C188.113 149.269 194.231 130.992 193.177 126.914C192.123 122.837 190.435 114.681 189.871 113.628C189.307 112.574 185.653 109.197 184.951 108.778C184.246 108.355 167.164 95.28 167.164 95.28Z" fill="#192440"/>
<path d="M177.498 122.277C191.048 111.309 197.181 141.047 178.904 135.986L177.498 122.277Z" fill="#FFE1D5"/>
<path d="M74.7781 26.3164L94.5578 57.2605C94.6988 57.4831 94.9808 57.5647 95.2182 57.4534L111.529 49.8027C111.777 49.6877 111.87 49.3835 111.737 49.146L92.9215 16.4062C92.7397 16.0908 92.3427 15.9795 92.0236 16.1539L74.9784 25.541C74.6964 25.6931 74.6074 26.0493 74.7781 26.3164Z" fill="#6F8AB3"/>
<path d="M74.7781 26.3164L94.5578 57.2605C94.6988 57.4831 94.9808 57.5647 95.2182 57.4534L111.529 49.8027C111.777 49.6877 111.87 49.3835 111.737 49.146L92.9215 16.4062C92.7397 16.0908 92.3427 15.9795 92.0236 16.1539L74.9784 25.541C74.6964 25.6931 74.6074 26.0493 74.7781 26.3164Z" fill="#6F8AB3"/>
<path d="M74.7781 26.3164L94.5578 57.2605C94.6988 57.4831 94.9808 57.5647 95.2182 57.4534L111.529 49.8027C111.777 49.6877 111.87 49.3835 111.737 49.146L92.9215 16.4062C92.7397 16.0908 92.3427 15.9795 92.0236 16.1539L74.9784 25.541C74.6964 25.6931 74.6074 26.0493 74.7781 26.3164Z" fill="#6F8AB3"/>
<path d="M74.7781 26.3164L94.5578 57.2605C94.6988 57.4831 94.9808 57.5647 95.2182 57.4534L111.529 49.8027C111.777 49.6877 111.87 49.3835 111.737 49.146L92.9215 16.4062C92.7397 16.0908 92.3427 15.9795 92.0236 16.1539L74.9784 25.541C74.6964 25.6931 74.6074 26.0493 74.7781 26.3164Z" fill="#6F8AB3"/>
<path d="M78.3979 26.1978L91.0242 19.2447C91.4249 19.022 91.9332 19.1667 92.1558 19.5675L106.945 45.6992C107.186 46.1222 107.012 46.6639 106.57 46.8717L94.8309 52.3778C94.4488 52.5559 93.9924 52.426 93.7661 52.0698L78.0863 27.3851C77.834 26.9733 77.975 26.4315 78.3979 26.1978Z" fill="#6F8AB3"/>
<path d="M78.3979 26.1978L91.0242 19.2447C91.4249 19.022 91.9332 19.1667 92.1558 19.5675L106.945 45.6992C107.186 46.1222 107.012 46.6639 106.57 46.8717L94.8309 52.3778C94.4488 52.5559 93.9924 52.426 93.7661 52.0698L78.0863 27.3851C77.834 26.9733 77.975 26.4315 78.3979 26.1978Z" fill="#6F8AB3"/>
<path d="M78.3979 26.1978L91.0242 19.2447C91.4249 19.022 91.9332 19.1667 92.1558 19.5675L106.945 45.6992C107.186 46.1222 107.012 46.6639 106.57 46.8717L94.8309 52.3778C94.4488 52.5559 93.9924 52.426 93.7661 52.0698L78.0863 27.3851C77.834 26.9733 77.975 26.4315 78.3979 26.1978Z" fill="#6F8AB3"/>
<path d="M78.3979 26.1978L91.0242 19.2447C91.4249 19.022 91.9332 19.1667 92.1558 19.5675L106.945 45.6992C107.186 46.1222 107.012 46.6639 106.57 46.8717L94.8309 52.3778C94.4488 52.5559 93.9924 52.426 93.7661 52.0698L78.0863 27.3851C77.834 26.9733 77.975 26.4315 78.3979 26.1978Z" fill="white"/>
<path d="M106.782 46.727C106.775 46.7122 106.767 46.7011 106.76 46.6862L91.9704 20.5582C91.7441 20.1575 91.2395 20.0128 90.8351 20.2354L78.2089 27.1885C78.1495 27.2219 78.0976 27.259 78.0493 27.3035C77.8527 26.9065 78.0011 26.4168 78.3981 26.1979L91.0243 19.2447C91.425 19.0258 91.9296 19.1668 92.156 19.5675L106.949 45.6956C107.146 46.0443 107.064 46.471 106.782 46.727Z" fill="#6F8AB3"/>
<path d="M106.782 46.727C106.775 46.7122 106.767 46.7011 106.76 46.6862L91.9704 20.5582C91.7441 20.1575 91.2395 20.0128 90.8351 20.2354L78.2089 27.1885C78.1495 27.2219 78.0976 27.259 78.0493 27.3035C77.8527 26.9065 78.0011 26.4168 78.3981 26.1979L91.0243 19.2447C91.425 19.0258 91.9296 19.1668 92.156 19.5675L106.949 45.6956C107.146 46.0443 107.064 46.471 106.782 46.727Z" fill="#6F8AB3"/>
<path d="M106.782 46.727C106.775 46.7122 106.767 46.7011 106.76 46.6862L91.9704 20.5582C91.7441 20.1575 91.2395 20.0128 90.8351 20.2354L78.2089 27.1885C78.1495 27.2219 78.0976 27.259 78.0493 27.3035C77.8527 26.9065 78.0011 26.4168 78.3981 26.1979L91.0243 19.2447C91.425 19.0258 91.9296 19.1668 92.156 19.5675L106.949 45.6956C107.146 46.0443 107.064 46.471 106.782 46.727Z" fill="#6F8AB3"/>
<path d="M106.782 46.727C106.775 46.7122 106.767 46.7011 106.76 46.6862L91.9704 20.5582C91.7441 20.1575 91.2395 20.0128 90.8351 20.2354L78.2089 27.1885C78.1495 27.2219 78.0976 27.259 78.0493 27.3035C77.8527 26.9065 78.0011 26.4168 78.3981 26.1979L91.0243 19.2447C91.425 19.0258 91.9296 19.1668 92.156 19.5675L106.949 45.6956C107.146 46.0443 107.064 46.471 106.782 46.727Z" fill="#D1D3D9"/>
<path d="M94.7604 57.5796C94.7864 57.6204 94.7976 57.6724 94.7864 57.7206L94.3634 59.932L94.2187 60.674C93.9961 60.5998 93.8291 60.4143 93.6882 60.1954L74.0383 29.4591C73.901 29.2476 73.8528 28.9879 73.901 28.7393L74.3685 26.3054C74.4019 26.131 74.632 26.0865 74.7284 26.2349L94.7604 57.5796Z" fill="#43618F"/>
<path opacity="0.27" d="M92.1447 57.7835C92.115 58.3697 87.9372 57.6796 87.2804 57.4867C86.8018 57.3457 86.4716 56.8967 86.5087 56.4033C86.6571 54.2624 89.6625 50.8415 89.6625 50.8415C89.6625 50.8415 92.5083 50.2887 94.7048 50.2553C96.1889 50.233 92.8756 51.1012 92.4192 53.9285C92.319 54.5296 92.1892 56.9487 92.1447 57.7835Z" fill="#FFDD00"/>
<path d="M111.928 49.8878L111.435 52.4628C111.383 52.7299 111.205 52.96 110.96 53.075L94.9089 60.6032C94.6343 60.7331 94.408 60.7442 94.2188 60.6774L94.3634 59.9354L94.8013 57.6461L111.705 49.7172C111.82 49.6615 111.95 49.7617 111.928 49.8878Z" fill="#43608C"/>
<path d="M111.82 44.8607C111.701 46.0034 111.512 47.1611 111.245 48.3038L105.446 38.2118C105.368 38.0745 105.271 37.9261 105.164 37.7628L105.16 37.7591C103.283 34.9652 97.2498 28.6614 99.1124 26.669C100.266 25.4334 103.498 28.0826 106.774 31.8003C109.097 34.431 111.891 37.2434 111.976 41.1503C112.002 42.3339 111.954 43.588 111.82 44.8607Z" fill="#FFE1D5"/>
<path d="M96.8649 50.5707C94.7538 49.9028 92.5573 50.4112 91.0657 50.9566C89.5148 51.5205 87.4073 53.2755 86.5651 56.0879C86.5651 56.0879 85.1923 61.4419 83.7415 58.6777C82.2871 55.9135 81.0701 52.3034 80.239 48.6376C79.5081 45.4282 78.0945 41.9591 78.5137 38.5493C78.9367 35.1395 84.209 32.8205 85.1218 32.3976C86.0382 31.9746 89.4109 32.2158 90.8876 32.8317C93.6703 33.9893 94.6499 35.8074 93.9078 36.4863C93.752 36.6273 93.5256 36.7201 93.2251 36.7461C95.8186 37.7478 96.787 40.1855 96.2639 41.0723C96.0895 41.3654 95.7481 41.4878 95.2472 41.3246C97.5588 42.9052 98.2006 45.1462 97.4437 45.8883C97.4066 45.9328 97.3621 45.9662 97.3102 45.9996C97.21 46.0627 97.095 46.1072 96.9651 46.1257C96.9095 46.1332 96.8649 46.1406 96.8278 46.1406C96.8315 46.1443 96.839 46.1443 96.8427 46.148C97.095 46.2556 97.3176 46.4003 97.5105 46.5784H97.5142C99.054 47.9735 98.7312 51.1643 96.8649 50.5707Z" fill="#FFE1D5"/>
<path d="M165.758 171.958L164.634 180.198C164.634 180.198 155.9 182.354 147.715 183.344C142.851 183.934 138.005 184.532 135.794 182.877C131.405 179.597 132.024 175.015 131.405 169.286C130.755 163.272 130.336 157.406 131.731 155.046C133.605 155.38 135.163 155.569 137.341 156.181C133.338 169.249 138.265 175.189 141.148 176.313C144.031 177.441 154.323 178.94 165.758 171.958Z" fill="#D1D3D9"/>
<path d="M142.844 153.365L142.199 154.196C140.303 152.86 139.011 151.495 138.236 154.163C137.464 156.831 132.841 184.773 127.587 193.14C132.411 179.809 131.335 164.036 127.587 157.309C127.55 157.242 127.513 157.179 127.48 157.116C126.611 155.621 125.606 154.604 124.504 154.2L122.842 154.163L123.966 153.246C124.267 153.005 124.619 152.838 124.997 152.768L138.036 150.345C138.455 150.267 138.885 150.367 139.227 150.623L142.844 153.365Z" fill="#005490"/>
<path opacity="0.17" d="M156.516 172.377L151.488 180.198L148.917 182.402C146.509 182.376 143.418 182.643 140.357 183.741C133.89 186.057 131.92 190.376 127.586 193.14C125.976 194.167 120.125 201.74 112.797 211.814C116.014 205.833 122.729 196.401 129.772 188.487C129.857 188.391 129.115 190.042 129.2 189.949C133.682 184.944 140.969 179.067 144.576 176.926C153.922 171.368 156.516 172.377 156.516 172.377Z" fill="#351F15"/>
<path d="M127.586 193.14C133.842 187.059 146.779 176.198 154.089 174.51C161.398 172.822 155.992 184.164 155.992 184.164C155.992 184.164 142.138 182.395 127.586 193.14Z" fill="#005490"/>
<path d="M154.98 226.651C154.72 223.301 159.15 215.353 162.033 213.246C164.916 211.139 165.406 224.355 165.406 224.355C160.946 226.006 156.456 227.679 154.98 226.651Z" fill="#9E5F44"/>
<path d="M180.521 192.156C180.569 195.763 181.805 208.133 181.805 208.133L169.509 221.868L167.805 222.039L162.426 222.573C162.051 220.473 161.672 218.396 161.286 216.366C161.286 216.362 161.286 216.362 161.286 216.362C159.153 205.172 156.882 195.436 154.979 191.31C152.73 186.439 148.861 171.36 159.39 166.833C160.637 166.299 161.509 165.991 162.084 165.817C162.778 165.605 163.053 165.583 163.053 165.583C164.125 163.913 167.572 162.043 168.269 162.863C168.399 163.008 168.44 163.238 168.362 163.572C168.366 163.568 168.369 163.561 168.377 163.553C169.917 161.576 171.449 161.327 172.124 161.594C172.354 161.683 172.484 161.828 172.484 161.988C172.477 162.036 172.473 162.066 172.473 162.066C173.519 160.567 175.816 160.522 177.226 162.106C177.567 162.489 177.853 162.967 178.061 163.542C178.079 163.498 178.098 163.453 178.113 163.409C179.938 158.875 183.96 155.71 183.719 163.26C183.474 170.889 184.88 174.369 184.88 178.235C184.88 185.5 182.673 189.203 180.521 192.156Z" fill="#FFE1D5"/>
<path d="M167.806 222.039L162.426 222.574C162.051 220.474 161.673 218.396 161.287 216.366C163.05 218.44 171.242 213.034 172.181 211.843C172.871 210.968 169.717 218.073 167.806 222.039Z" fill="#FFDD00"/>
<path d="M187.739 282.57C186.975 282.785 186.177 282.941 185.349 283.03C169.644 284.736 161.188 257.517 157.433 240.29C157.433 240.29 157.433 240.287 157.429 240.279C155.715 232.425 154.98 226.651 154.98 226.651C161.251 226.948 173.918 209.925 179.023 202.672C180.4 200.712 181.227 199.466 181.227 199.466C181.227 204.497 181.973 210.374 183.094 216.363C186.444 234.291 193.156 253.243 193.293 253.636C193.297 253.64 193.297 253.644 193.297 253.644C195.753 263.892 194.41 273.605 187.739 282.57Z" fill="#FFDD00"/>
<path d="M149.107 251.848L138.362 280.633C122.133 279.516 109.291 277.119 98.9766 273.883L107.525 254.757L113.031 242.442C113.313 241.811 114.066 241.544 114.682 241.856L131.92 250.553L147.945 250.215C148.483 250.204 148.921 250.534 149.099 250.983C149.203 251.247 149.218 251.551 149.107 251.848Z" fill="#D66A3A"/>
<path d="M114.412 241.496L148.176 249.792C148.955 249.985 149.337 250.868 148.94 251.566L142.466 262.968C141.887 263.988 140.689 264.482 139.561 264.162L108.717 255.488C107.096 255.031 106.353 253.154 107.229 251.711L113.091 242.042C113.362 241.593 113.9 241.37 114.412 241.496Z" fill="#005490"/>
<path d="M87.8036 233.541L69.508 257.855C64.0724 252.954 60.1506 247.759 56.752 242.765C60.7146 238.803 64.4583 234.877 67.9942 231.011C69.3151 229.568 70.6063 228.132 71.8715 226.703C72.5394 225.946 73.2035 225.189 73.8565 224.44C75.2034 222.897 76.5131 221.368 77.7895 219.85L87.7368 231.438C87.7368 231.438 87.7405 231.441 87.7442 231.445C88.2488 232.042 88.2748 232.914 87.8036 233.541Z" fill="#D66A3A"/>
<path d="M87.4549 233.541L80.1159 240.383C79.4666 240.988 78.4574 240.984 77.8155 240.368L67.998 231.007C71.5191 227.156 74.8362 223.364 77.9565 219.654L87.6034 231.237C88.171 231.924 88.108 232.936 87.4549 233.541Z" fill="#005490"/>
<path d="M104.562 51.3127C104.648 50.7391 104.15 50.1895 103.451 50.0853C102.752 49.981 102.115 50.3614 102.03 50.935C101.944 51.5086 102.442 52.0582 103.141 52.1624C103.84 52.2667 104.477 51.8863 104.562 51.3127Z" fill="white"/>
<path d="M44.0926 194.078C38.4195 200.122 29.563 200.122 27.3108 198.434C26.1272 197.547 23.0105 194.765 20.3206 192.327C18.8921 191.032 17.5824 189.834 16.7512 189.069C16.165 188.528 15.8311 187.767 15.8311 186.966V186.765C15.8014 186.565 15.8237 186.316 15.8979 186.019C15.909 186.428 16.7067 186.557 17.0777 186.398C18.9032 185.645 21.6266 183.827 24.4353 181.548C24.4427 181.541 24.4501 181.537 24.4576 181.53C24.5206 181.478 24.5837 181.422 24.6505 181.374C24.6579 181.363 24.6691 181.359 24.6765 181.352C24.7952 181.252 24.9177 181.151 25.0364 181.051C28.2347 178.387 31.4664 175.185 33.5441 172.317C33.8521 171.89 34.1378 171.475 34.3901 171.067C35.4995 169.278 36.0152 167.698 35.7035 166.544C35.6516 166.351 35.4624 166.347 35.3511 166.344C35.4364 166.321 35.5217 166.303 35.6071 166.284L35.8705 166.34L36.1748 166.407C36.9836 166.577 37.7108 167.015 38.2414 167.65C40.3266 170.132 45.7919 176.643 47.558 178.751C49.7619 181.378 49.7619 188.03 44.0926 194.078Z" fill="#9D78B4"/>
<path d="M33.5445 172.318C29.5076 177.89 21.1075 184.736 17.0781 186.398C14.121 184.94 11.3234 183.363 10.1138 180.625C8.77068 177.594 10.3921 173.516 13.7907 170.481C15.0819 169.331 17.9129 169.327 16.8629 171.453C16.1802 172.822 14.4957 174.087 13.7462 176.15C13.0598 178.039 24.8772 176.551 29.3295 173.783C30.7246 172.919 32.1679 172.477 33.5445 172.318Z" fill="#598DC2"/>
<path d="M42.2638 193.232C39.6406 195.811 32.6095 197.852 29.4446 196.935C26.2834 196.022 18.655 187.177 17.5308 186.624C17.3787 186.55 17.2265 186.476 17.0781 186.398C21.1075 184.736 29.5077 177.89 33.5445 172.317C36.5647 171.961 39.277 172.933 40.531 173.642C42.3565 174.673 46.4824 179.456 46.8571 181.753C47.2319 184.049 44.887 190.657 42.2638 193.232Z" fill="#6F5EA5"/>
<path d="M21.5941 166.882C19.2678 166.6 18.867 170.715 21.0079 170.819C23.1525 170.923 22.4586 166.986 21.5941 166.882Z" fill="#598DC2"/>
<path d="M16.8363 196.327C14.9626 196.42 15.5933 201.132 17.6562 200.497C19.7192 199.863 17.9642 196.271 16.8363 196.327Z" fill="#598DC2"/>
<path d="M42.0302 162.63C40.2789 162.786 41.3957 167.023 42.5571 166.778C43.7184 166.533 43.2249 162.522 42.0302 162.63Z" fill="#598DC2"/>
<path d="M66.541 178.562V186.435" stroke="#3B6CB3" stroke-width="2" stroke-miterlimit="10" stroke-linecap="round" stroke-linejoin="round"/>
<path d="M70.4768 182.499H62.6035" stroke="#3B6CB3" stroke-width="2" stroke-miterlimit="10" stroke-linecap="round" stroke-linejoin="round"/>
<path d="M227.616 161.183L225.39 185.96L225.275 187.233L219.646 188.988L219.739 187.938L220.786 176.313L227.616 161.183Z" fill="#91B6DB"/>
<path d="M220.786 176.313L219.74 187.938L219.647 188.988L216.983 189.815C215.948 190.138 215.016 189.084 215.465 188.097L215.855 187.233L220.786 176.313Z" fill="#3B6CB3"/>
<path d="M238.536 143.473L235.167 180.888L234.867 184.25L229.238 186.001L229.416 184.038L232.425 150.534L232.429 150.53L235.776 143.113C236.139 142.308 237.193 142.119 237.817 142.746L238.536 143.473Z" fill="#91B6DB"/>
<path d="M232.425 150.534L229.416 184.038L229.238 186.001L225.275 187.233L225.39 185.96L227.617 161.183L232.425 150.534Z" fill="#3B6CB3"/>
<path d="M247.08 152.122L245.054 174.64L244.457 181.263L238.828 183.014L239.24 178.436L242.064 147.046L247.08 152.122Z" fill="#91B6DB"/>
<path d="M242.065 147.046L239.242 178.436L238.83 183.014L234.867 184.25L235.168 180.888L238.537 143.473L242.065 147.046Z" fill="#3B6CB3"/>
<path d="M255.625 160.764L255.076 166.882L254.048 178.28L248.42 180.031L249.169 171.717L250.609 155.692L255.625 160.764Z" fill="#91B6DB"/>
<path d="M250.609 155.692L249.169 171.717L248.42 180.031L244.457 181.263L245.054 174.64L247.08 152.122L250.609 155.692Z" fill="#3B6CB3"/>
<path d="M266.516 174.399L258.201 176.985L259.325 164.507L267.039 172.314C267.7 172.985 267.418 174.117 266.516 174.399Z" fill="#91B6DB"/>
<path d="M259.325 164.507L258.201 176.985L254.049 178.28L255.077 166.882L255.626 160.764L257.611 162.775L257.614 162.778H257.618L259.325 164.507Z" fill="#3B6CB3"/>
<path d="M220.785 137.741C220.592 138.286 224.529 137.741 224.529 137.741C224.529 137.741 225.071 135.578 225.561 133.912C226.191 131.76 225.371 130.057 225.98 128.554C226.406 127.504 227.386 126.165 227.386 126.165C227.386 126.165 222.232 125.041 221.342 125.79C221.342 125.79 220.273 128.554 220.785 130.758C221.297 132.962 221.401 136.008 220.785 137.741Z" fill="#005490"/>
<path d="M248.105 141.585L250.825 143.93C263.385 141.351 253.307 128.84 263.715 127.244L260.294 123.634C248.54 121.527 257.292 138.446 248.105 141.585Z" fill="#91B6DB"/>
<path d="M271.584 156.864C272.333 158.27 274.819 160.771 275.569 160.763C278.474 153.443 284.24 160.567 289.583 149.039C289.256 147.024 284.663 145.525 284.663 145.525C280.863 157.049 272.567 151.332 271.584 156.864Z" fill="#005490"/>
<path d="M267.039 189.203L265.117 192.435L274.348 196.794L277.443 191.218L267.039 189.203Z" fill="#91B6DB"/>
<path d="M284.392 175.037C283.828 172.436 278.24 174.336 278.838 176.128C279.435 177.92 284.952 177.638 284.392 175.037Z" fill="#3B6CB3"/>
<path d="M265.164 147.34C267.261 149.269 262.281 152.226 261.157 150.783C260.029 149.343 263.369 145.685 265.164 147.34Z" fill="#3B6CB3"/>
<path d="M237.571 128.71C239.82 128.606 238.625 134.019 236.763 133.982C234.9 133.945 235.319 128.814 237.571 128.71Z" fill="#3B6CB3"/>
<path d="M224.883 211.558V222.737" stroke="#3B6CB3" stroke-width="2" stroke-miterlimit="10" stroke-linecap="round" stroke-linejoin="round"/>
<path d="M230.47 217.145H219.291" stroke="#3B6CB3" stroke-width="2" stroke-miterlimit="10" stroke-linecap="round" stroke-linejoin="round"/>
<path d="M237.193 259.925C239.562 259.925 241.483 258.005 241.483 255.636C241.483 253.267 239.562 251.347 237.193 251.347C234.825 251.347 232.904 253.267 232.904 255.636C232.904 258.005 234.825 259.925 237.193 259.925Z" stroke="#3B6CB3" stroke-width="2" stroke-miterlimit="10" stroke-linecap="round" stroke-linejoin="round"/>
<path d="M114.202 116.136C116.376 116.136 118.139 114.373 118.139 112.199C118.139 110.025 116.376 108.263 114.202 108.263C112.028 108.263 110.266 110.025 110.266 112.199C110.266 114.373 112.028 116.136 114.202 116.136Z" stroke="#3B6CB3" stroke-width="2" stroke-miterlimit="10" stroke-linecap="round" stroke-linejoin="round"/>
<path d="M133.782 99.8401C135.344 99.8401 136.61 98.5743 136.61 97.0128C136.61 95.4514 135.344 94.1855 133.782 94.1855C132.221 94.1855 130.955 95.4514 130.955 97.0128C130.955 98.5743 132.221 99.8401 133.782 99.8401Z" stroke="#3B6CB3" stroke-width="2" stroke-miterlimit="10" stroke-linecap="round" stroke-linejoin="round"/>
<path d="M30.9217 225.546C32.8233 225.546 34.3649 224.004 34.3649 222.103C34.3649 220.201 32.8233 218.659 30.9217 218.659C29.0201 218.659 27.4785 220.201 27.4785 222.103C27.4785 224.004 29.0201 225.546 30.9217 225.546Z" stroke="#3B6CB3" stroke-width="2" stroke-miterlimit="10" stroke-linecap="round" stroke-linejoin="round"/>
<path d="M133.069 193.949C131.589 192.85 128.569 197.006 129.589 197.744C130.606 198.482 134.156 194.757 133.069 193.949Z" fill="#E2E1F0"/>
<path d="M118.889 210.716C117.39 209.402 114.86 213.294 116.311 214.136C117.765 214.979 119.642 211.369 118.889 210.716Z" fill="#E2E1F0"/>
<path d="M107.48 225.898C106.278 225.123 103.896 228.673 104.95 229.519C106.004 230.365 108.567 226.603 107.48 225.898Z" fill="#E2E1F0"/>
<path d="M94.7904 244.88C93.911 244.246 91.6626 247.128 92.4714 247.904C93.2765 248.676 95.6697 245.514 94.7904 244.88Z" fill="#E2E1F0"/>
<path d="M137.675 259.117C138.646 259.117 139.433 258.329 139.433 257.358C139.433 256.387 138.646 255.599 137.675 255.599C136.703 255.599 135.916 256.387 135.916 257.358C135.916 258.329 136.703 259.117 137.675 259.117Z" fill="#E2E1F0"/>
<path d="M115.491 253.306C116.462 253.306 117.25 252.519 117.25 251.547C117.25 250.576 116.462 249.789 115.491 249.789C114.52 249.789 113.732 250.576 113.732 251.547C113.732 252.519 114.52 253.306 115.491 253.306Z" fill="#E2E1F0"/>
<path d="M79.7489 234.84C80.7202 234.84 81.5076 234.053 81.5076 233.081C81.5076 232.11 80.7202 231.323 79.7489 231.323C78.7776 231.323 77.9902 232.11 77.9902 233.081C77.9902 234.053 78.7776 234.84 79.7489 234.84Z" fill="#E2E1F0"/>
<path d="M163.319 128.84C162.889 132.48 161.624 135.348 159.847 137.381C156.993 140.668 152.823 141.8 148.745 140.553C145.989 139.715 144.738 137.618 144.263 135.277C143.421 131.111 145.05 126.168 145.05 126.168C145.343 126.376 145.714 126.565 146.148 126.747C149.884 128.287 158.262 128.844 161.895 128.87C162.533 128.877 163.026 128.866 163.319 128.84Z" fill="#0E172D"/>
<path d="M159.847 137.381C156.994 140.668 152.823 141.8 148.746 140.553C145.989 139.715 144.739 137.619 144.264 135.277C146.994 133.333 151.758 134.001 152.118 135.964C152.118 135.964 156.615 134.84 159.847 137.381Z" fill="#E77472"/>
<path d="M161.895 128.87C161.569 130.228 160.719 131.163 159.977 131.749C159.298 132.287 158.433 132.535 157.569 132.476C154.322 132.25 151.432 131.701 148.898 130.821C147.996 130.51 147.273 129.827 146.887 128.955C146.627 128.369 146.353 127.619 146.148 126.747C149.885 128.287 158.263 128.844 161.895 128.87Z" fill="white"/>
<path d="M183.094 216.363C178.315 226.18 170.568 236.124 157.433 240.29C157.433 240.29 157.433 240.287 157.429 240.279C155.715 232.425 154.98 226.651 154.98 226.651C161.251 226.948 173.918 209.925 179.023 202.672C180.4 200.712 181.227 199.466 181.227 199.466C181.227 204.497 181.973 210.374 183.094 216.363Z" fill="#005490"/>
<path d="M99.6779 85.0173C98.6873 90.0893 97.6187 95.6251 96.68 101.139C88.3763 109.858 78.6664 117.223 67.1719 117.071C68.2367 108.296 69.4463 101.469 69.4463 101.469C69.9175 106.107 88.1834 99.0052 99.6779 85.0173Z" fill="#005490"/>
<path d="M94.0527 126.001C94.0527 126.001 94.0527 126.001 94.0565 126.001C94.0527 126.02 94.0565 126.039 94.0565 126.057C94.0565 126.039 94.0527 126.02 94.0527 126.001Z" fill="#CA6734"/>
<path d="M118.811 153.688C111.116 152.33 99.3168 146.03 97.8475 143.789C96.7604 142.134 95.4469 137.741 94.6641 132.261C94.9757 133.689 95.421 134.877 96.0183 135.774C102.114 144.913 110.247 151.714 118.811 153.688Z" fill="#CA6734"/>
<path opacity="0.17" d="M127.586 193.14C129.382 184.773 131.382 164.014 127.586 157.309C131.333 164.036 132.409 179.808 127.586 193.14Z" fill="#351F15"/>
<path d="M183.648 124.069C186.216 125.757 186.776 129.868 183.897 132.224C186.145 129.586 184.283 124.525 183.648 124.069Z" fill="#FFDD00"/>
<path d="M178.06 163.543C177.593 164.607 177.663 171.698 176.91 174.158C177.148 170.941 177.637 163.238 177.226 162.107C177.567 162.489 177.853 162.967 178.06 163.543Z" fill="#FFDD00"/>
<path d="M172.473 162.066C172.124 163.205 171.779 166.618 171.968 167.85C171.742 166.577 171.719 162.526 172.124 161.594C172.354 161.684 172.484 161.828 172.484 161.988C172.476 162.036 172.473 162.066 172.473 162.066Z" fill="#FFDD00"/>
<path d="M168.359 163.58C166.782 165.03 165.824 168.37 165.754 169.832C165.802 167.412 167.283 163.591 168.269 162.864C168.399 163.008 168.44 163.242 168.359 163.58Z" fill="#FFDD00"/>
<path d="M163.053 165.583C161.91 166.967 160.975 168.551 160.619 169.408C160.968 168.351 161.584 166.663 162.085 165.817C162.779 165.605 163.053 165.583 163.053 165.583Z" fill="#FFDD00"/>
<path d="M93.9085 36.4863C93.7526 36.6273 93.5263 36.72 93.2258 36.746C90.3503 35.644 88.5062 35.4474 87.7716 35.5958C86.818 35.785 81.26 39.1614 80.1543 40.5862C81.6904 38.3785 86.421 35.2359 87.69 34.9762C89.1184 34.6831 92.8325 35.8704 93.9085 36.4863Z" fill="#FFDD00"/>
<path d="M96.2634 41.0724C96.089 41.3655 95.7476 41.4879 95.2467 41.3247C93.3025 40.7978 90.3491 40.5863 89.5069 40.8906C88.6609 41.1985 82.1011 45.4617 81.5371 46.1184C82.8283 44.267 88.4272 40.2673 89.4995 40.0817C90.8352 39.848 95.4731 40.4639 96.2634 41.0724Z" fill="#FFDD00"/>
<path d="M97.4443 45.8882C97.4072 45.9327 97.3627 45.9661 97.3107 45.9995C97.2106 46.0626 97.0955 46.1071 96.9657 46.1256C96.91 46.133 96.8655 46.1405 96.8284 46.1405C96.8321 46.1442 96.8395 46.1442 96.8432 46.1479C94.2275 45.8882 92.0495 45.8028 90.7657 46.211C87.5749 47.2202 85.601 49.2349 84.4062 50.2515C85.0036 49.1792 88.5692 46.1219 90.5209 45.5765C91.3334 45.3502 94.1607 45.1906 96.9174 45.788C97.025 45.8177 97.2662 45.8474 97.4443 45.8882Z" fill="#FFDD00"/>
<path d="M111.82 44.8605C111.702 46.0033 111.512 47.1609 111.245 48.3037L105.446 38.2116C105.368 38.0744 105.272 37.9259 105.164 37.7627C106.615 38.9871 110.781 41.8849 111.82 44.8605Z" fill="#FFDD00"/>
<path d="M20.2794 192.29C19.7637 191.823 19.2665 191.37 18.8027 190.947C19.2665 191.37 19.7674 191.823 20.2794 192.29Z" fill="#735587"/>
<path opacity="0.23" d="M47.0608 190.027C46.3225 191.374 45.3466 192.739 44.0926 194.079C38.4195 200.123 29.563 200.123 27.3108 198.435C26.1272 197.548 23.0105 194.765 20.3206 192.327C20.3057 192.316 20.2946 192.301 20.2798 192.29C19.7677 191.823 19.2668 191.37 18.803 190.947C18.15 190.35 17.5601 189.815 17.0852 189.378C16.588 188.91 16.217 188.639 15.9869 188.012C15.8719 187.701 15.8311 187.363 15.8311 187.033V186.766C15.8014 186.565 15.8237 186.317 15.8979 186.02C15.8979 186.046 15.9016 186.072 15.9127 186.098C15.9164 186.124 15.9275 186.146 15.9424 186.172C15.9572 186.194 15.9721 186.213 15.9906 186.231C16.0611 186.305 16.165 186.361 16.2837 186.402C16.3023 186.409 16.3246 186.417 16.3468 186.42C16.3542 186.424 16.3617 186.424 16.3691 186.428C16.3876 186.432 16.4062 186.435 16.4284 186.439V186.443C16.6585 186.484 16.9108 186.469 17.0777 186.398C18.9032 185.645 21.6266 183.827 24.4353 181.549C22.2648 183.508 21.0626 187.615 23.4706 191.619C28.2495 199.574 38.9835 199.165 44.6565 193.121C45.6138 192.101 46.4115 191.058 47.0608 190.027Z" fill="#593E6B"/>
<path d="M25.0376 181.052C24.956 181.137 24.8373 181.237 24.6777 181.352C24.7965 181.252 24.9189 181.152 25.0376 181.052Z" fill="#593E6B"/>
<path opacity="0.23" d="M266.516 174.399L258.201 176.985L254.049 178.28L248.42 180.031L244.458 181.263L238.829 183.014L234.867 184.25L229.238 186.001L225.275 187.233L219.647 188.988L216.983 189.815C215.948 190.138 215.016 189.085 215.465 188.098L215.855 187.233C243.838 181.263 259.325 171.16 257.615 162.778H257.618L259.325 164.507L267.039 172.314C267.699 172.985 267.417 174.117 266.516 174.399Z" fill="#593E6B"/>
<path d="M191.726 275.798C186.613 277.546 181.151 278.922 175.333 279.861C172.421 280.332 169.416 280.696 166.325 280.937C162.633 281.23 158.811 281.352 154.864 281.297C149.001 281.211 143.51 280.989 138.36 280.633C122.131 279.516 109.29 277.119 98.9751 273.883C93.5877 272.195 88.8905 270.273 84.7572 268.188C82.1414 266.871 79.7557 265.487 77.5629 264.047C74.5353 262.066 71.8787 259.988 69.5078 257.855C64.0722 252.954 60.1504 247.759 56.7517 242.765C55.8427 241.429 54.9708 240.105 54.1174 238.806C32.3564 205.68 39.4987 152.786 70.8064 151.476C88.82 150.719 102.838 157.506 116.799 162.815C127.099 166.733 137.37 169.85 149.183 168.536C152.897 168.125 156.619 167.379 160.336 166.44C160.344 166.436 160.351 166.436 160.359 166.433C160.518 166.392 160.681 166.355 160.837 166.31C166.087 164.96 171.33 163.234 176.543 161.509C177.615 161.157 178.691 160.8 179.764 160.448C180.892 160.081 182.016 159.713 183.14 159.353C199.454 154.159 215.375 150.604 230.153 160.567C263.554 183.088 251.848 255.243 191.726 275.798Z" fill="#E8E8E8"/>
<path d="M58.478 208.326L56.8863 209.951L56.2296 210.623L53.6175 207.877C53.6138 207.873 53.6101 207.866 53.6064 207.862L41.5701 195.206L41.5664 195.203L44.0449 192.717L56.6117 206.308L56.6563 206.352L58.478 208.326Z" fill="#2D2D2D"/>
<path d="M67.9947 203.755C67.9798 207.161 65.0079 210.957 61.6204 213.869C61.5944 213.891 61.5647 213.914 61.5387 213.94C61.5053 213.969 61.4719 214.003 61.4386 214.025C61.2605 214.177 61.0787 214.329 60.8969 214.474C57.3312 217.368 53.5059 219.212 52.2592 218.596C50.9346 217.939 55.9658 210.393 53.6172 207.877C53.6135 207.873 53.6098 207.866 53.6061 207.862C53.6061 207.862 53.7879 207.458 54.0958 207.013C54.6487 206.211 55.6022 205.272 56.6114 206.308L56.656 206.352C58.244 208.07 68.0021 201.892 67.9947 203.755Z" fill="#2D2D2D"/>
<path opacity="0.23" d="M60.8974 214.474C57.3318 217.368 53.5064 219.212 52.2597 218.596C50.9352 217.94 55.9663 210.393 53.6177 207.877C53.614 207.873 53.6103 207.866 53.6066 207.862L41.5703 195.206L43.8522 194.331C42.7317 195.284 52.5751 205.796 56.2298 208.278C56.8049 208.667 56.8939 209.573 56.7529 210.537C56.4301 212.697 53.6771 216.199 54.6826 216.363C55.9775 216.57 59.1461 215.791 60.8974 214.474Z" fill="#593E6B"/>
<path d="M75.805 25.0845L74.6771 25.6818C74.5472 25.7486 74.4582 25.8711 74.4285 26.0158L74.3691 26.3089L74.9108 26.4239L75.805 25.0845Z" fill="#43618F"/>
<path d="M111.929 49.8881C111.981 49.5764 111.781 49.2276 111.629 48.9605C111.477 48.6933 111.365 49.7322 111.414 49.8547C111.462 49.9771 111.495 50.081 111.532 50.107C111.573 50.1329 111.692 50.1181 111.703 50.107C111.714 50.0958 111.929 49.8881 111.929 49.8881Z" fill="#43608C"/>
<path d="M196.093 103.962C197.396 94.3674 208.712 88.6721 211.172 92.3973C213.632 96.1224 213.001 99.4988 213.001 99.4988C216.515 100.976 217.643 111.309 199.997 111.309C182.35 111.309 196.093 103.962 196.093 103.962Z" fill="#192440"/>
<path d="M193.297 104.701C195.356 103.962 196.094 103.962 196.094 103.962C198.358 105.888 199.634 108.351 199.998 111.309L198.977 113.138L193.301 111.557V104.701H193.297Z" fill="#005490"/>
<path d="M36.453 167.223L36.0301 174.439C36.0301 174.439 16.2986 189.86 15.8311 186.765C15.8014 186.565 15.8237 186.316 15.8979 186.019C15.8979 186.016 15.8979 186.016 15.8979 186.012C16.9553 181.741 28.1085 168.139 35.3511 166.344C35.4364 166.321 35.5218 166.303 35.6071 166.284L35.8705 166.34L36.453 167.223Z" fill="#8B8080"/>
<path d="M69.4453 101.465C70.2876 96.59 89.1767 87.5925 89.1767 87.5925L87.8633 99.2169C87.8633 99.2169 74.4134 106.389 74.2242 106.434C74.035 106.482 69.7718 103.387 69.7718 103.387L69.4453 101.465Z" fill="#9E5F44"/>
<path d="M110.011 52.259C109.87 53.3127 104.668 61.2565 103.606 62.9447C102.549 64.6292 99.6773 85.0174 99.6773 85.0174C99.6773 85.0174 98.0818 89.3288 96.7684 91.4845C96.1673 92.4751 91.9413 95.6029 87.5928 98.4079C82.4836 101.703 77.2076 104.541 77.4599 102.92C77.5563 102.315 77.8977 100.508 78.38 97.9924C80.2983 88.0413 84.4798 67.0372 84.6319 65.9909C84.8174 64.6774 85.0549 61.9578 83.0328 57.2271C83.0328 57.2271 85.1217 54.155 85.4037 53.873C85.6857 53.5947 87.0214 50.9938 87.8636 50.0069C88.7096 49.0236 90.8875 48.6711 92.1527 48.6711C93.418 48.6711 100.449 49.3761 101.013 49.5876C101.573 49.7954 110.152 51.2016 110.011 52.259Z" fill="#FFE1D5"/>
<path d="M94.3945 57.1082L95.4297 57.52C95.4297 57.52 94.9696 57.8243 94.9103 57.8502C94.8546 57.8762 94.5541 57.7612 94.4984 57.6833C94.4428 57.6016 94.3945 57.1082 94.3945 57.1082Z" fill="#43608C"/>
<path d="M87.5927 98.408C82.4836 101.703 77.2076 104.541 77.4599 102.92C77.5563 102.315 77.8977 100.508 78.38 97.9924C81.0144 98.6825 85.7116 97.0871 86.7876 96.5639C87.3701 96.2782 87.641 97.191 87.5927 98.408Z" fill="#FFDD00"/>
<path d="M168.5 88.108C152.824 88.8093 148.747 107.442 142.981 114.611C137.215 121.783 129.765 126.703 127.935 129.092C126.106 131.482 125.264 133.663 122.17 134.858C119.075 136.053 112.326 136.335 109.306 138.583C106.282 140.832 103.47 145.121 103.611 147.863C103.752 150.605 133.23 167 146.164 162.518C159.098 158.033 177.847 181.842 186.659 179.029C195.471 176.217 185.579 168.251 188.673 160.938C191.768 153.625 201.162 135.964 202.171 130.71C203.578 123.397 201.748 112.362 194.792 109.197C195.567 99.5692 179.605 87.6108 168.5 88.108Z" fill="#192440"/>
<path d="M143.263 137.11C141.085 141.329 136.247 142.594 133.008 145.548C129.769 148.501 128.923 151.952 129.624 154.163C130.325 156.374 141.95 159.02 141.95 159.02C141.95 159.02 147.341 156.549 147.411 156.074C147.482 155.599 150.854 149.343 150.995 148.991C151.136 148.638 149.801 143.143 149.66 142.973C149.519 142.802 143.263 137.11 143.263 137.11Z" fill="#0E172D"/>
<path d="M109.424 197.967C100.986 198.531 96.7121 195.236 96.7121 195.236C94.5416 191.515 91.7848 187.66 88.8092 183.745C88.8054 183.742 88.8054 183.738 88.8054 183.738C79.1438 171.015 67.2225 157.651 65.9313 146.037C65.0557 138.171 66.0315 126.499 67.1706 117.071C68.2354 108.296 69.445 101.469 69.445 101.469C69.9162 106.107 88.1821 99.0052 99.6767 85.0173C98.686 90.0893 97.6174 95.6251 96.6787 101.139C95.1427 110.196 93.9591 119.197 94.0555 126.002C94.0518 126.02 94.0555 126.039 94.0555 126.057C94.0889 128.421 94.2782 130.521 94.664 132.261C94.9757 133.689 95.4209 134.877 96.0183 135.775C102.114 144.913 110.247 151.714 118.811 153.688C118.844 153.695 118.874 153.703 118.904 153.706C119.924 153.94 120.952 154.103 121.983 154.193C131.697 155.038 117.861 197.407 109.424 197.967Z" fill="#FFDD00"/>
<path d="M56.0137 243.711C56.1769 243.429 56.3773 243.162 56.6222 242.902C56.4181 243.125 56.214 243.4 56.0137 243.711Z" fill="#FFDD00"/>
<path d="M111.458 172.243C105.299 185.689 101.106 194.334 96.7133 195.236C94.5428 191.514 91.786 187.659 88.8104 183.745C88.8066 183.741 88.8066 183.738 88.8066 183.738C94.6615 186.439 106.672 182.398 111.458 172.243Z" fill="#CA6734"/>
<path d="M183.381 217.858V217.861C182.035 233.311 179.211 250.49 173.965 264.964C172.807 268.162 171.527 271.231 170.121 274.117C168.948 276.525 167.687 278.807 166.325 280.937C162.633 281.23 158.812 281.352 154.864 281.297C149.002 281.211 143.51 280.989 138.36 280.633C122.131 279.516 109.29 277.119 98.9754 273.884C93.588 272.195 88.8907 270.273 84.7574 268.188C82.1417 266.871 79.7559 265.487 77.5631 264.048C74.5355 262.066 71.8789 259.988 69.508 257.855C64.0724 252.954 60.1506 247.759 56.752 242.765C60.7146 238.803 64.4583 234.877 67.9942 231.011C68.4357 230.529 68.8698 230.05 69.304 229.571C70.1722 228.61 71.0293 227.657 71.8715 226.703C72.5394 225.946 73.2035 225.189 73.8565 224.44C75.2034 222.896 76.5131 221.368 77.7895 219.85C77.8451 219.787 77.897 219.72 77.9527 219.657C98.634 195.05 110.633 174.009 116.8 162.815C119.801 157.361 121.423 154.244 121.983 154.192C122.896 154.111 126.617 154.129 131.73 155.046C132.494 155.183 133.196 155.328 133.908 155.502C134.951 155.751 136.012 156.044 137.303 156.408L137.47 156.344C142.13 157.658 147.614 159.788 152.738 162.967C153.454 163.413 154.166 163.876 154.864 164.362C154.864 164.362 157.305 165.134 160.748 166.281C160.778 166.292 160.808 166.303 160.837 166.31C168.433 168.844 180.799 173.171 182.725 175.096C183.307 175.679 183.856 179.2 184.161 184.695V184.699C184.595 192.598 184.532 204.59 183.381 217.858Z" fill="#FFDD00"/>
<path d="M173.966 264.964C172.808 268.162 171.528 271.23 170.122 274.117C168.95 276.525 167.688 278.807 166.326 280.937C162.635 281.23 158.813 281.352 154.865 281.297C160 272.017 161.696 256.092 158.672 245.6C158.672 245.6 165.102 248.022 166.415 248.026C167.729 248.03 172.601 258.144 172.601 259.116C172.601 259.498 173.213 261.94 173.966 264.964Z" fill="#CA6734"/>
<path d="M162.386 174.722C161.822 174.863 148.468 183.638 140.591 187.656C132.714 191.678 125.309 195.44 125.309 195.44C125.309 195.44 126.952 190.609 128.711 183.953C130.47 177.297 132.93 161.576 133.772 155.669C133.772 155.669 133.82 155.61 133.909 155.502C134.61 155.669 135.323 155.858 136.106 156.074C136.484 156.177 136.881 156.289 137.304 156.408L137.471 156.344C139.055 156.79 140.736 157.331 142.465 157.977C145.819 159.227 149.359 160.867 152.739 162.967C157.139 168.065 162.727 174.636 162.386 174.722Z" fill="white"/>
<path d="M142.464 157.977C142.268 158.448 142.049 158.878 141.949 159.019C141.715 159.35 137.685 163.238 137.685 163.238L135.059 157.988C135.059 157.988 135.671 156.808 136.105 156.073C136.483 156.177 136.88 156.289 137.303 156.407L137.47 156.344C139.055 156.79 140.735 157.331 142.464 157.977Z" fill="#5E6576"/>
<path d="M130.18 161.543C126.811 174.017 119.936 202.746 112.797 212.259C118.514 210.43 127.582 193.136 127.582 193.136C127.582 193.136 132.821 178.091 132.84 173.312C132.859 168.533 130.18 161.543 130.18 161.543Z" fill="#D66A3A"/>
<path d="M153.422 182.807L152.932 184.632C152.932 184.636 152.932 184.636 152.932 184.636C146.584 188.892 129.297 201.247 112.798 224.025C100.127 241.523 87.6639 262.575 84.7588 268.189C82.143 266.871 79.7573 265.487 77.5645 264.048C81.5011 255.926 90.0571 244.031 98.4572 231.994C103.37 224.952 108.356 217.921 112.798 211.814C120.125 201.74 125.977 194.168 127.587 193.14C131.921 190.376 133.891 186.057 140.358 183.742C143.419 182.643 146.51 182.376 148.918 182.402C150.528 182.413 151.834 182.562 152.617 182.673C153.132 182.747 153.422 182.807 153.422 182.807Z" fill="#D66A3A"/>
<path opacity="0.17" d="M140.152 186.458C149.072 185.126 154.378 188.78 155.992 189.344C157.602 189.908 154.979 180.721 154.979 180.721C154.979 180.721 153.105 181.096 150.949 181.564C148.79 182.031 140.152 186.458 140.152 186.458Z" fill="#351F15"/>
<path d="M187.737 282.569L193.295 253.644C193.295 253.644 193.295 253.64 193.291 253.636C193.291 253.632 193.291 253.632 193.288 253.629C193.288 253.625 193.288 253.621 193.284 253.618C193.28 253.606 193.276 253.599 193.273 253.588C192.739 252.07 181.225 219.242 181.225 199.466C181.225 199.466 180.398 200.712 179.021 202.671C178.751 200.53 178.547 198.419 178.435 196.367C178.109 190.772 178.42 185.604 179.663 181.355C180.365 178.944 181.366 176.829 182.724 175.096C185.362 175.786 187.874 177.541 190.197 180.127C191.737 181.842 193.199 183.923 194.56 186.298C197.139 190.783 199.365 196.327 201.135 202.456C205.398 217.227 210.229 276.232 187.737 282.569Z" fill="#FFDD00"/>
<path d="M193.289 253.629C193.082 253.365 186.418 244.865 185.724 243.897C185.023 242.913 182.351 233.493 181.646 231.664C180.945 229.838 178.274 213.528 178.741 211.557C179.209 209.591 178.314 197.84 178.314 197.84L178.437 196.367L179.665 181.355C180.366 178.944 181.368 176.829 182.726 175.096C185.364 175.786 187.876 177.541 190.199 180.127C189.52 182.483 188.496 185.255 186.993 188.494C179.739 204.148 189.419 241.637 193.274 253.588C193.278 253.599 193.282 253.606 193.286 253.618C193.289 253.621 193.289 253.625 193.289 253.629Z" fill="#CA6734"/>
<path d="M176.726 147.584C176.726 147.584 166.392 173.033 157.462 177.323C148.535 181.612 142.067 180.065 137.496 179.222C132.929 178.376 131.311 164.808 135.177 161.858C137.148 160.352 139.76 157.328 142.335 154.026C144.338 151.451 146.319 148.705 147.952 146.382C148.33 145.844 148.69 145.329 149.028 144.843L176.726 147.584Z" fill="#FFE1D5"/>
<path d="M158.307 149.506L156.515 152.129C153.829 152.816 147.425 156.111 142.334 154.025C144.338 151.45 146.319 148.705 147.951 146.382L158.307 149.506Z" fill="#FFDD00"/>
<path d="M151.511 106.763C139.137 124.384 140.825 132.914 141.857 137.414C142.888 141.915 148.417 150.445 157.978 152.504C167.54 154.567 185.535 147.35 185.724 147.068C185.913 146.786 190.224 138.164 190.785 135.819C191.349 133.474 191.067 118.948 189.378 118.198C187.69 117.449 178.225 111.264 177.379 110.885C176.533 110.507 171.098 106.949 170.537 106.76C169.973 106.57 168.289 98.6043 168.289 98.6043C168.289 98.6043 164.82 96.2594 164.352 96.0739C163.885 95.8846 159.759 101.699 159.759 101.699L151.511 106.763Z" fill="#FFE1D5"/>
<path d="M167.165 95.2801C166.464 100.129 158.097 106.389 149.166 107.09L161.187 92.8906L167.165 95.2801Z" fill="#192440"/>
<path d="M167.164 95.28C165.057 102.73 165.969 112.503 175.46 115.316C175.249 119.605 180.169 121.293 182.139 121.43C184.109 121.568 181.924 133.801 181.297 137.459C180.031 144.839 170.886 147.076 167.869 151.028C163.791 156.37 161.613 161.995 157.042 163.75C152.471 165.509 164.025 167.924 168.652 170.618C173.279 173.312 186.287 153.065 187.2 151.169C188.113 149.269 194.231 130.992 193.177 126.914C192.123 122.837 190.435 114.681 189.871 113.628C189.307 112.574 185.653 109.197 184.951 108.778C184.246 108.355 167.164 95.28 167.164 95.28Z" fill="#192440"/>
<path d="M177.498 122.277C191.048 111.309 197.181 141.047 178.904 135.986L177.498 122.277Z" fill="#FFE1D5"/>
<path d="M74.7781 26.3164L94.5578 57.2605C94.6988 57.4831 94.9808 57.5647 95.2182 57.4534L111.529 49.8027C111.777 49.6877 111.87 49.3835 111.737 49.146L92.9215 16.4062C92.7397 16.0908 92.3427 15.9795 92.0236 16.1539L74.9784 25.541C74.6964 25.6931 74.6074 26.0493 74.7781 26.3164Z" fill="#6F8AB3"/>
<path d="M74.7781 26.3164L94.5578 57.2605C94.6988 57.4831 94.9808 57.5647 95.2182 57.4534L111.529 49.8027C111.777 49.6877 111.87 49.3835 111.737 49.146L92.9215 16.4062C92.7397 16.0908 92.3427 15.9795 92.0236 16.1539L74.9784 25.541C74.6964 25.6931 74.6074 26.0493 74.7781 26.3164Z" fill="#6F8AB3"/>
<path d="M74.7781 26.3164L94.5578 57.2605C94.6988 57.4831 94.9808 57.5647 95.2182 57.4534L111.529 49.8027C111.777 49.6877 111.87 49.3835 111.737 49.146L92.9215 16.4062C92.7397 16.0908 92.3427 15.9795 92.0236 16.1539L74.9784 25.541C74.6964 25.6931 74.6074 26.0493 74.7781 26.3164Z" fill="#6F8AB3"/>
<path d="M74.7781 26.3164L94.5578 57.2605C94.6988 57.4831 94.9808 57.5647 95.2182 57.4534L111.529 49.8027C111.777 49.6877 111.87 49.3835 111.737 49.146L92.9215 16.4062C92.7397 16.0908 92.3427 15.9795 92.0236 16.1539L74.9784 25.541C74.6964 25.6931 74.6074 26.0493 74.7781 26.3164Z" fill="#6F8AB3"/>
<path d="M78.3979 26.1978L91.0242 19.2447C91.4249 19.022 91.9332 19.1667 92.1558 19.5675L106.945 45.6992C107.186 46.1222 107.012 46.6639 106.57 46.8717L94.8309 52.3778C94.4488 52.5559 93.9924 52.426 93.7661 52.0698L78.0863 27.3851C77.834 26.9733 77.975 26.4315 78.3979 26.1978Z" fill="#6F8AB3"/>
<path d="M78.3979 26.1978L91.0242 19.2447C91.4249 19.022 91.9332 19.1667 92.1558 19.5675L106.945 45.6992C107.186 46.1222 107.012 46.6639 106.57 46.8717L94.8309 52.3778C94.4488 52.5559 93.9924 52.426 93.7661 52.0698L78.0863 27.3851C77.834 26.9733 77.975 26.4315 78.3979 26.1978Z" fill="#6F8AB3"/>
<path d="M78.3979 26.1978L91.0242 19.2447C91.4249 19.022 91.9332 19.1667 92.1558 19.5675L106.945 45.6992C107.186 46.1222 107.012 46.6639 106.57 46.8717L94.8309 52.3778C94.4488 52.5559 93.9924 52.426 93.7661 52.0698L78.0863 27.3851C77.834 26.9733 77.975 26.4315 78.3979 26.1978Z" fill="#6F8AB3"/>
<path d="M78.3979 26.1978L91.0242 19.2447C91.4249 19.022 91.9332 19.1667 92.1558 19.5675L106.945 45.6992C107.186 46.1222 107.012 46.6639 106.57 46.8717L94.8309 52.3778C94.4488 52.5559 93.9924 52.426 93.7661 52.0698L78.0863 27.3851C77.834 26.9733 77.975 26.4315 78.3979 26.1978Z" fill="white"/>
<path d="M106.782 46.727C106.775 46.7122 106.767 46.7011 106.76 46.6862L91.9704 20.5582C91.7441 20.1575 91.2395 20.0128 90.8351 20.2354L78.2089 27.1885C78.1495 27.2219 78.0976 27.259 78.0493 27.3035C77.8527 26.9065 78.0011 26.4168 78.3981 26.1979L91.0243 19.2447C91.425 19.0258 91.9296 19.1668 92.156 19.5675L106.949 45.6956C107.146 46.0443 107.064 46.471 106.782 46.727Z" fill="#6F8AB3"/>
<path d="M106.782 46.727C106.775 46.7122 106.767 46.7011 106.76 46.6862L91.9704 20.5582C91.7441 20.1575 91.2395 20.0128 90.8351 20.2354L78.2089 27.1885C78.1495 27.2219 78.0976 27.259 78.0493 27.3035C77.8527 26.9065 78.0011 26.4168 78.3981 26.1979L91.0243 19.2447C91.425 19.0258 91.9296 19.1668 92.156 19.5675L106.949 45.6956C107.146 46.0443 107.064 46.471 106.782 46.727Z" fill="#6F8AB3"/>
<path d="M106.782 46.727C106.775 46.7122 106.767 46.7011 106.76 46.6862L91.9704 20.5582C91.7441 20.1575 91.2395 20.0128 90.8351 20.2354L78.2089 27.1885C78.1495 27.2219 78.0976 27.259 78.0493 27.3035C77.8527 26.9065 78.0011 26.4168 78.3981 26.1979L91.0243 19.2447C91.425 19.0258 91.9296 19.1668 92.156 19.5675L106.949 45.6956C107.146 46.0443 107.064 46.471 106.782 46.727Z" fill="#6F8AB3"/>
<path d="M106.782 46.727C106.775 46.7122 106.767 46.7011 106.76 46.6862L91.9704 20.5582C91.7441 20.1575 91.2395 20.0128 90.8351 20.2354L78.2089 27.1885C78.1495 27.2219 78.0976 27.259 78.0493 27.3035C77.8527 26.9065 78.0011 26.4168 78.3981 26.1979L91.0243 19.2447C91.425 19.0258 91.9296 19.1668 92.156 19.5675L106.949 45.6956C107.146 46.0443 107.064 46.471 106.782 46.727Z" fill="#D1D3D9"/>
<path d="M94.7604 57.5796C94.7864 57.6204 94.7976 57.6724 94.7864 57.7206L94.3634 59.932L94.2187 60.674C93.9961 60.5998 93.8291 60.4143 93.6882 60.1954L74.0383 29.4591C73.901 29.2476 73.8528 28.9879 73.901 28.7393L74.3685 26.3054C74.4019 26.131 74.632 26.0865 74.7284 26.2349L94.7604 57.5796Z" fill="#005490"/>
<path opacity="0.27" d="M92.1447 57.7835C92.115 58.3697 87.9372 57.6796 87.2804 57.4867C86.8018 57.3457 86.4716 56.8967 86.5087 56.4033C86.6571 54.2624 89.6625 50.8415 89.6625 50.8415C89.6625 50.8415 92.5083 50.2887 94.7048 50.2553C96.1889 50.233 92.8756 51.1012 92.4192 53.9285C92.319 54.5296 92.1892 56.9487 92.1447 57.7835Z" fill="#FFDD00"/>
<path d="M111.928 49.8878L111.435 52.4628C111.383 52.7299 111.205 52.96 110.96 53.075L94.9089 60.6032C94.6343 60.7331 94.408 60.7442 94.2188 60.6774L94.3634 59.9354L94.8013 57.6461L111.705 49.7172C111.82 49.6615 111.95 49.7617 111.928 49.8878Z" fill="#005490"/>
<path d="M111.82 44.8607C111.701 46.0034 111.512 47.1611 111.245 48.3038L105.446 38.2118C105.368 38.0745 105.271 37.9261 105.164 37.7628L105.16 37.7591C103.283 34.9652 97.2498 28.6614 99.1124 26.669C100.266 25.4334 103.498 28.0826 106.774 31.8003C109.097 34.431 111.891 37.2434 111.976 41.1503C112.002 42.3339 111.954 43.588 111.82 44.8607Z" fill="#FFE1D5"/>
<path d="M96.8649 50.5707C94.7538 49.9028 92.5573 50.4112 91.0657 50.9566C89.5148 51.5205 87.4073 53.2755 86.5651 56.0879C86.5651 56.0879 85.1923 61.4419 83.7415 58.6777C82.2871 55.9135 81.0701 52.3034 80.239 48.6376C79.5081 45.4282 78.0945 41.9591 78.5137 38.5493C78.9367 35.1395 84.209 32.8205 85.1218 32.3976C86.0382 31.9746 89.4109 32.2158 90.8876 32.8317C93.6703 33.9893 94.6499 35.8074 93.9078 36.4863C93.752 36.6273 93.5256 36.7201 93.2251 36.7461C95.8186 37.7478 96.787 40.1855 96.2639 41.0723C96.0895 41.3654 95.7481 41.4878 95.2472 41.3246C97.5588 42.9052 98.2006 45.1462 97.4437 45.8883C97.4066 45.9328 97.3621 45.9662 97.3102 45.9996C97.21 46.0627 97.095 46.1072 96.9651 46.1257C96.9095 46.1332 96.8649 46.1406 96.8278 46.1406C96.8315 46.1443 96.839 46.1443 96.8427 46.148C97.095 46.2556 97.3176 46.4003 97.5105 46.5784H97.5142C99.054 47.9735 98.7312 51.1643 96.8649 50.5707Z" fill="#FFE1D5"/>
<path d="M165.758 171.958L164.634 180.198C164.634 180.198 155.9 182.354 147.715 183.344C142.851 183.934 138.005 184.532 135.794 182.877C131.405 179.597 132.024 175.015 131.405 169.286C130.755 163.272 130.336 157.406 131.731 155.046C133.605 155.38 135.163 155.569 137.341 156.181C133.338 169.249 138.265 175.189 141.148 176.313C144.031 177.441 154.323 178.94 165.758 171.958Z" fill="#D1D3D9"/>
<path d="M142.844 153.365L142.199 154.196C140.303 152.86 139.011 151.495 138.236 154.163C137.464 156.831 132.841 184.773 127.587 193.14C132.411 179.809 131.335 164.036 127.587 157.309C127.55 157.242 127.513 157.179 127.48 157.116C126.611 155.621 125.606 154.604 124.504 154.2L122.842 154.163L123.966 153.246C124.267 153.005 124.619 152.838 124.997 152.768L138.036 150.345C138.455 150.267 138.885 150.367 139.227 150.623L142.844 153.365Z" fill="#005490"/>
<path opacity="0.17" d="M156.516 172.377L151.488 180.198L148.917 182.402C146.509 182.376 143.418 182.643 140.357 183.741C133.89 186.057 131.92 190.376 127.586 193.14C125.976 194.167 120.125 201.74 112.797 211.814C116.014 205.833 122.729 196.401 129.772 188.487C129.857 188.391 129.115 190.042 129.2 189.949C133.682 184.944 140.969 179.067 144.576 176.926C153.922 171.368 156.516 172.377 156.516 172.377Z" fill="#351F15"/>
<path d="M127.586 193.14C133.842 187.059 146.779 176.198 154.089 174.51C161.398 172.822 155.992 184.164 155.992 184.164C155.992 184.164 142.138 182.395 127.586 193.14Z" fill="#005490"/>
<path d="M154.98 226.651C154.72 223.301 159.15 215.353 162.033 213.246C164.916 211.139 165.406 224.355 165.406 224.355C160.946 226.006 156.456 227.679 154.98 226.651Z" fill="#9E5F44"/>
<path d="M180.521 192.156C180.569 195.763 181.805 208.133 181.805 208.133L169.509 221.868L167.805 222.039L162.426 222.573C162.051 220.473 161.672 218.396 161.286 216.366C161.286 216.362 161.286 216.362 161.286 216.362C159.153 205.172 156.882 195.436 154.979 191.31C152.73 186.439 148.861 171.36 159.39 166.833C160.637 166.299 161.509 165.991 162.084 165.817C162.778 165.605 163.053 165.583 163.053 165.583C164.125 163.913 167.572 162.043 168.269 162.863C168.399 163.008 168.44 163.238 168.362 163.572C168.366 163.568 168.369 163.561 168.377 163.553C169.917 161.576 171.449 161.327 172.124 161.594C172.354 161.683 172.484 161.828 172.484 161.988C172.477 162.036 172.473 162.066 172.473 162.066C173.519 160.567 175.816 160.522 177.226 162.106C177.567 162.489 177.853 162.967 178.061 163.542C178.079 163.498 178.098 163.453 178.113 163.409C179.938 158.875 183.96 155.71 183.719 163.26C183.474 170.889 184.88 174.369 184.88 178.235C184.88 185.5 182.673 189.203 180.521 192.156Z" fill="#FFE1D5"/>
<path d="M167.806 222.039L162.426 222.574C162.051 220.474 161.673 218.396 161.287 216.366C163.05 218.44 171.242 213.034 172.181 211.843C172.871 210.968 169.717 218.073 167.806 222.039Z" fill="#FFDD00"/>
<path d="M187.739 282.57C186.975 282.785 186.177 282.941 185.349 283.03C169.644 284.736 161.188 257.517 157.433 240.29C157.433 240.29 157.433 240.287 157.429 240.279C155.715 232.425 154.98 226.651 154.98 226.651C161.251 226.948 173.918 209.925 179.023 202.672C180.4 200.712 181.227 199.466 181.227 199.466C181.227 204.497 181.973 210.374 183.094 216.363C186.444 234.291 193.156 253.243 193.293 253.636C193.297 253.64 193.297 253.644 193.297 253.644C195.753 263.892 194.41 273.605 187.739 282.57Z" fill="#FFDD00"/>
<path d="M149.107 251.848L138.362 280.633C122.133 279.516 109.291 277.119 98.9766 273.883L107.525 254.757L113.031 242.442C113.313 241.811 114.066 241.544 114.682 241.856L131.92 250.553L147.945 250.215C148.483 250.204 148.921 250.534 149.099 250.983C149.203 251.247 149.218 251.551 149.107 251.848Z" fill="#D66A3A"/>
<path d="M114.412 241.496L148.176 249.792C148.955 249.985 149.337 250.868 148.94 251.566L142.466 262.968C141.887 263.988 140.689 264.482 139.561 264.162L108.717 255.488C107.096 255.031 106.353 253.154 107.229 251.711L113.091 242.042C113.362 241.593 113.9 241.37 114.412 241.496Z" fill="#005490"/>
<path d="M87.8036 233.541L69.508 257.855C64.0724 252.954 60.1506 247.759 56.752 242.765C60.7146 238.803 64.4583 234.877 67.9942 231.011C69.3151 229.568 70.6063 228.132 71.8715 226.703C72.5394 225.946 73.2035 225.189 73.8565 224.44C75.2034 222.897 76.5131 221.368 77.7895 219.85L87.7368 231.438C87.7368 231.438 87.7405 231.441 87.7442 231.445C88.2488 232.042 88.2748 232.914 87.8036 233.541Z" fill="#D66A3A"/>
<path d="M87.4549 233.541L80.1159 240.383C79.4666 240.988 78.4574 240.984 77.8155 240.368L67.998 231.007C71.5191 227.156 74.8362 223.364 77.9565 219.654L87.6034 231.237C88.171 231.924 88.108 232.936 87.4549 233.541Z" fill="#005490"/>
<path d="M104.562 51.3127C104.648 50.7391 104.15 50.1895 103.451 50.0853C102.752 49.981 102.115 50.3614 102.03 50.935C101.944 51.5086 102.442 52.0582 103.141 52.1624C103.84 52.2667 104.477 51.8863 104.562 51.3127Z" fill="white"/>
<path d="M44.0926 194.078C38.4195 200.122 29.563 200.122 27.3108 198.434C26.1272 197.547 23.0105 194.765 20.3206 192.327C18.8921 191.032 17.5824 189.834 16.7512 189.069C16.165 188.528 15.8311 187.767 15.8311 186.966V186.765C15.8014 186.565 15.8237 186.316 15.8979 186.019C15.909 186.428 16.7067 186.557 17.0777 186.398C18.9032 185.645 21.6266 183.827 24.4353 181.548C24.4427 181.541 24.4501 181.537 24.4576 181.53C24.5206 181.478 24.5837 181.422 24.6505 181.374C24.6579 181.363 24.6691 181.359 24.6765 181.352C24.7952 181.252 24.9177 181.151 25.0364 181.051C28.2347 178.387 31.4664 175.185 33.5441 172.317C33.8521 171.89 34.1378 171.475 34.3901 171.067C35.4995 169.278 36.0152 167.698 35.7035 166.544C35.6516 166.351 35.4624 166.347 35.3511 166.344C35.4364 166.321 35.5217 166.303 35.6071 166.284L35.8705 166.34L36.1748 166.407C36.9836 166.577 37.7108 167.015 38.2414 167.65C40.3266 170.132 45.7919 176.643 47.558 178.751C49.7619 181.378 49.7619 188.03 44.0926 194.078Z" fill="#2D2D2D"/>
<path d="M33.5445 172.318C29.5076 177.89 21.1075 184.736 17.0781 186.398C14.121 184.94 11.3234 183.363 10.1138 180.625C8.77068 177.594 10.3921 173.516 13.7907 170.481C15.0819 169.331 17.9129 169.327 16.8629 171.453C16.1802 172.822 14.4957 174.087 13.7462 176.15C13.0598 178.039 24.8772 176.551 29.3295 173.783C30.7246 172.919 32.1679 172.477 33.5445 172.318Z" fill="#005490"/>
<path d="M42.2638 193.232C39.6406 195.811 32.6095 197.852 29.4446 196.935C26.2834 196.022 18.655 187.177 17.5308 186.624C17.3787 186.55 17.2265 186.476 17.0781 186.398C21.1075 184.736 29.5077 177.89 33.5445 172.317C36.5647 171.961 39.277 172.933 40.531 173.642C42.3565 174.673 46.4824 179.456 46.8571 181.753C47.2319 184.049 44.887 190.657 42.2638 193.232Z" fill="#005490"/>
<path d="M21.5941 166.882C19.2678 166.6 18.867 170.715 21.0079 170.819C23.1525 170.923 22.4586 166.986 21.5941 166.882Z" fill="#005490"/>
<path d="M16.8363 196.327C14.9626 196.42 15.5933 201.132 17.6562 200.497C19.7192 199.863 17.9642 196.271 16.8363 196.327Z" fill="#005490"/>
<path d="M42.0302 162.63C40.2789 162.786 41.3957 167.023 42.5571 166.778C43.7184 166.533 43.2249 162.522 42.0302 162.63Z" fill="#005490"/>
<path d="M66.541 178.562V186.435" stroke="#005490" stroke-width="2" stroke-miterlimit="10" stroke-linecap="round" stroke-linejoin="round"/>
<path d="M70.4768 182.499H62.6035" stroke="#005490" stroke-width="2" stroke-miterlimit="10" stroke-linecap="round" stroke-linejoin="round"/>
<path d="M227.616 161.183L225.39 185.96L225.275 187.233L219.646 188.988L219.739 187.938L220.786 176.313L227.616 161.183Z" fill="#F0C688"/>
<path d="M220.786 176.313L219.74 187.938L219.647 188.988L216.983 189.815C215.948 190.138 215.016 189.084 215.465 188.097L215.855 187.233L220.786 176.313Z" fill="#005490"/>
<path d="M238.536 143.473L235.167 180.888L234.867 184.25L229.238 186.001L229.416 184.038L232.425 150.534L232.429 150.53L235.776 143.113C236.139 142.308 237.193 142.119 237.817 142.746L238.536 143.473Z" fill="#F0C688"/>
<path d="M232.425 150.534L229.416 184.038L229.238 186.001L225.275 187.233L225.39 185.96L227.617 161.183L232.425 150.534Z" fill="#005490"/>
<path d="M247.08 152.122L245.054 174.64L244.457 181.263L238.828 183.014L239.24 178.436L242.064 147.046L247.08 152.122Z" fill="#F0C688"/>
<path d="M242.065 147.046L239.242 178.436L238.83 183.014L234.867 184.25L235.168 180.888L238.537 143.473L242.065 147.046Z" fill="#005490"/>
<path d="M255.625 160.764L255.076 166.882L254.048 178.28L248.42 180.031L249.169 171.717L250.609 155.692L255.625 160.764Z" fill="#F0C688"/>
<path d="M250.609 155.692L249.169 171.717L248.42 180.031L244.457 181.263L245.054 174.64L247.08 152.122L250.609 155.692Z" fill="#005490"/>
<path d="M266.516 174.399L258.201 176.985L259.325 164.507L267.039 172.314C267.7 172.985 267.418 174.117 266.516 174.399Z" fill="#91B6DB"/>
<path d="M259.325 164.507L258.201 176.985L254.049 178.28L255.077 166.882L255.626 160.764L257.611 162.775L257.614 162.778H257.618L259.325 164.507Z" fill="#005490"/>
<path d="M220.785 137.741C220.592 138.286 224.529 137.741 224.529 137.741C224.529 137.741 225.071 135.578 225.561 133.912C226.191 131.76 225.371 130.057 225.98 128.554C226.406 127.504 227.386 126.165 227.386 126.165C227.386 126.165 222.232 125.041 221.342 125.79C221.342 125.79 220.273 128.554 220.785 130.758C221.297 132.962 221.401 136.008 220.785 137.741Z" fill="#F84844"/>
<path d="M248.105 141.585L250.825 143.93C263.385 141.351 253.307 128.84 263.715 127.244L260.294 123.634C248.54 121.527 257.292 138.446 248.105 141.585Z" fill="#A3A3A3"/>
<path d="M271.584 156.864C272.333 158.27 274.819 160.771 275.569 160.763C278.474 153.443 284.24 160.567 289.583 149.039C289.256 147.024 284.663 145.525 284.663 145.525C280.863 157.049 272.567 151.332 271.584 156.864Z" fill="#F84844"/>
<path d="M267.039 189.203L265.117 192.435L274.348 196.794L277.443 191.218L267.039 189.203Z" fill="#A3A3A3"/>
<path d="M279.312 175.97C279.26 175.815 279.305 175.558 279.702 175.214C280.08 174.885 280.666 174.591 281.309 174.418C281.954 174.245 282.592 174.212 283.072 174.341C283.529 174.464 283.811 174.716 283.903 175.143C283.998 175.585 283.851 175.907 283.529 176.169C283.18 176.453 282.626 176.655 281.987 176.734C281.355 176.812 280.7 176.763 280.185 176.602C279.649 176.435 279.385 176.19 279.312 175.97Z" fill="#005490" stroke="#005490"/>
<path d="M264.826 147.707L264.826 147.707C265.026 147.892 265.118 148.065 265.154 148.216C265.19 148.368 265.178 148.537 265.11 148.725C264.969 149.118 264.597 149.549 264.078 149.919C263.566 150.283 262.972 150.543 262.466 150.633C261.929 150.727 261.657 150.611 261.552 150.476L261.552 150.476L261.551 150.474C261.419 150.307 261.371 150.013 261.527 149.57C261.679 149.138 261.997 148.661 262.412 148.26C262.828 147.858 263.303 147.569 263.74 147.463C264.159 147.361 264.523 147.428 264.826 147.707Z" fill="#005490" stroke="#005490"/>
<path d="M237.595 129.209L237.595 129.209C237.77 129.201 237.877 129.245 237.953 129.304C238.036 129.368 238.119 129.48 238.184 129.662C238.318 130.039 238.334 130.606 238.217 131.229C238.102 131.844 237.87 132.446 237.577 132.879C237.27 133.332 236.981 133.486 236.773 133.482C236.594 133.479 236.403 133.368 236.253 132.978C236.103 132.588 236.05 132.026 236.121 131.43C236.191 130.836 236.377 130.263 236.651 129.847C236.923 129.434 237.243 129.225 237.595 129.209Z" fill="#005490" stroke="#005490"/>
<path d="M224.883 211.558V222.737" stroke="#005490" stroke-width="2" stroke-miterlimit="10" stroke-linecap="round" stroke-linejoin="round"/>
<path d="M230.47 217.145H219.291" stroke="#005490" stroke-width="2" stroke-miterlimit="10" stroke-linecap="round" stroke-linejoin="round"/>
<path d="M237.193 259.925C239.562 259.925 241.483 258.005 241.483 255.636C241.483 253.267 239.562 251.347 237.193 251.347C234.825 251.347 232.904 253.267 232.904 255.636C232.904 258.005 234.825 259.925 237.193 259.925Z" fill="#005490" stroke="#005490" stroke-width="2" stroke-miterlimit="10" stroke-linecap="round" stroke-linejoin="round"/>
<path d="M114.202 116.136C116.376 116.136 118.139 114.373 118.139 112.199C118.139 110.025 116.376 108.263 114.202 108.263C112.028 108.263 110.266 110.025 110.266 112.199C110.266 114.373 112.028 116.136 114.202 116.136Z" stroke="#005490" stroke-width="2" stroke-miterlimit="10" stroke-linecap="round" stroke-linejoin="round"/>
<path d="M133.782 99.8401C135.344 99.8401 136.61 98.5743 136.61 97.0128C136.61 95.4514 135.344 94.1855 133.782 94.1855C132.221 94.1855 130.955 95.4514 130.955 97.0128C130.955 98.5743 132.221 99.8401 133.782 99.8401Z" stroke="#005490" stroke-width="2" stroke-miterlimit="10" stroke-linecap="round" stroke-linejoin="round"/>
<path d="M30.9217 225.546C32.8233 225.546 34.3649 224.004 34.3649 222.103C34.3649 220.201 32.8233 218.659 30.9217 218.659C29.0201 218.659 27.4785 220.201 27.4785 222.103C27.4785 224.004 29.0201 225.546 30.9217 225.546Z" stroke="#005490" stroke-width="2" stroke-miterlimit="10" stroke-linecap="round" stroke-linejoin="round"/>
<path d="M133.069 193.949C131.589 192.85 128.569 197.006 129.589 197.744C130.606 198.482 134.156 194.757 133.069 193.949Z" fill="#E2E1F0"/>
<path d="M118.889 210.716C117.39 209.402 114.86 213.294 116.311 214.136C117.765 214.979 119.642 211.369 118.889 210.716Z" fill="#E2E1F0"/>
<path d="M107.48 225.898C106.278 225.123 103.896 228.673 104.95 229.519C106.004 230.365 108.567 226.603 107.48 225.898Z" fill="#E2E1F0"/>
<path d="M94.7904 244.88C93.911 244.246 91.6626 247.128 92.4714 247.904C93.2765 248.676 95.6697 245.514 94.7904 244.88Z" fill="#E2E1F0"/>
<path d="M137.675 259.117C138.646 259.117 139.433 258.329 139.433 257.358C139.433 256.387 138.646 255.599 137.675 255.599C136.703 255.599 135.916 256.387 135.916 257.358C135.916 258.329 136.703 259.117 137.675 259.117Z" fill="#E2E1F0"/>
<path d="M115.491 253.306C116.462 253.306 117.25 252.519 117.25 251.547C117.25 250.576 116.462 249.789 115.491 249.789C114.52 249.789 113.732 250.576 113.732 251.547C113.732 252.519 114.52 253.306 115.491 253.306Z" fill="#E2E1F0"/>
<path d="M79.7489 234.84C80.7202 234.84 81.5076 234.053 81.5076 233.081C81.5076 232.11 80.7202 231.323 79.7489 231.323C78.7776 231.323 77.9902 232.11 77.9902 233.081C77.9902 234.053 78.7776 234.84 79.7489 234.84Z" fill="#E2E1F0"/>
<path d="M163.319 128.84C162.889 132.48 161.624 135.348 159.847 137.381C156.993 140.668 152.823 141.8 148.745 140.553C145.989 139.715 144.738 137.618 144.263 135.277C143.421 131.111 145.05 126.168 145.05 126.168C145.343 126.376 145.714 126.565 146.148 126.747C149.884 128.287 158.262 128.844 161.895 128.87C162.533 128.877 163.026 128.866 163.319 128.84Z" fill="#0E172D"/>
<path d="M159.847 137.381C156.994 140.668 152.823 141.8 148.746 140.553C145.989 139.715 144.739 137.619 144.264 135.277C146.994 133.333 151.758 134.001 152.118 135.964C152.118 135.964 156.615 134.84 159.847 137.381Z" fill="#F84844"/>
<path d="M161.895 128.87C161.569 130.228 160.719 131.163 159.977 131.749C159.298 132.287 158.433 132.535 157.569 132.476C154.322 132.25 151.432 131.701 148.898 130.821C147.996 130.51 147.273 129.827 146.887 128.955C146.627 128.369 146.353 127.619 146.148 126.747C149.885 128.287 158.263 128.844 161.895 128.87Z" fill="white"/>
<path d="M183.094 216.363C178.315 226.18 170.568 236.124 157.433 240.29C157.433 240.29 157.433 240.287 157.429 240.279C155.715 232.425 154.98 226.651 154.98 226.651C161.251 226.948 173.918 209.925 179.023 202.672C180.4 200.712 181.227 199.466 181.227 199.466C181.227 204.497 181.973 210.374 183.094 216.363Z" fill="#005490"/>
<path d="M99.6779 85.0173C98.6873 90.0893 97.6187 95.6251 96.68 101.139C88.3763 109.858 78.6664 117.223 67.1719 117.071C68.2367 108.296 69.4463 101.469 69.4463 101.469C69.9175 106.107 88.1834 99.0052 99.6779 85.0173Z" fill="#005490"/>
<path d="M94.0527 126.001C94.0527 126.001 94.0527 126.001 94.0565 126.001C94.0527 126.02 94.0565 126.039 94.0565 126.057C94.0565 126.039 94.0527 126.02 94.0527 126.001Z" fill="#CA6734"/>
<path d="M118.811 153.688C111.116 152.33 99.3168 146.03 97.8475 143.789C96.7604 142.134 95.4469 137.741 94.6641 132.261C94.9757 133.689 95.421 134.877 96.0183 135.774C102.114 144.913 110.247 151.714 118.811 153.688Z" fill="#CA6734"/>
<path opacity="0.17" d="M127.586 193.14C129.382 184.773 131.382 164.014 127.586 157.309C131.333 164.036 132.409 179.808 127.586 193.14Z" fill="#351F15"/>
<path d="M183.648 124.069C186.216 125.757 186.776 129.868 183.897 132.224C186.145 129.586 184.283 124.525 183.648 124.069Z" fill="#FFDD00"/>
<path d="M178.06 163.543C177.593 164.607 177.663 171.698 176.91 174.158C177.148 170.941 177.637 163.238 177.226 162.107C177.567 162.489 177.853 162.967 178.06 163.543Z" fill="#FFDD00"/>
<path d="M172.473 162.066C172.124 163.205 171.779 166.618 171.968 167.85C171.742 166.577 171.719 162.526 172.124 161.594C172.354 161.684 172.484 161.828 172.484 161.988C172.476 162.036 172.473 162.066 172.473 162.066Z" fill="#FFDD00"/>
<path d="M168.359 163.58C166.782 165.03 165.824 168.37 165.754 169.832C165.802 167.412 167.283 163.591 168.269 162.864C168.399 163.008 168.44 163.242 168.359 163.58Z" fill="#FFDD00"/>
<path d="M163.053 165.583C161.91 166.967 160.975 168.551 160.619 169.408C160.968 168.351 161.584 166.663 162.085 165.817C162.779 165.605 163.053 165.583 163.053 165.583Z" fill="#FFDD00"/>
<path d="M93.9085 36.4863C93.7526 36.6273 93.5263 36.72 93.2258 36.746C90.3503 35.644 88.5062 35.4474 87.7716 35.5958C86.818 35.785 81.26 39.1614 80.1543 40.5862C81.6904 38.3785 86.421 35.2359 87.69 34.9762C89.1184 34.6831 92.8325 35.8704 93.9085 36.4863Z" fill="#FFDD00"/>
<path d="M96.2634 41.0724C96.089 41.3655 95.7476 41.4879 95.2467 41.3247C93.3025 40.7978 90.3491 40.5863 89.5069 40.8906C88.6609 41.1985 82.1011 45.4617 81.5371 46.1184C82.8283 44.267 88.4272 40.2673 89.4995 40.0817C90.8352 39.848 95.4731 40.4639 96.2634 41.0724Z" fill="#FFDD00"/>
<path d="M97.4443 45.8882C97.4072 45.9327 97.3627 45.9661 97.3107 45.9995C97.2106 46.0626 97.0955 46.1071 96.9657 46.1256C96.91 46.133 96.8655 46.1405 96.8284 46.1405C96.8321 46.1442 96.8395 46.1442 96.8432 46.1479C94.2275 45.8882 92.0495 45.8028 90.7657 46.211C87.5749 47.2202 85.601 49.2349 84.4062 50.2515C85.0036 49.1792 88.5692 46.1219 90.5209 45.5765C91.3334 45.3502 94.1607 45.1906 96.9174 45.788C97.025 45.8177 97.2662 45.8474 97.4443 45.8882Z" fill="#FFDD00"/>
<path d="M111.82 44.8605C111.702 46.0033 111.512 47.1609 111.245 48.3037L105.446 38.2116C105.368 38.0744 105.272 37.9259 105.164 37.7627C106.615 38.9871 110.781 41.8849 111.82 44.8605Z" fill="#FFDD00"/>
<path d="M20.2794 192.29C19.7637 191.823 19.2665 191.37 18.8027 190.947C19.2665 191.37 19.7674 191.823 20.2794 192.29Z" fill="#735587"/>
<path opacity="0.23" d="M47.0608 190.027C46.3225 191.374 45.3466 192.739 44.0926 194.079C38.4195 200.123 29.563 200.123 27.3108 198.435C26.1272 197.548 23.0105 194.765 20.3206 192.327C20.3057 192.316 20.2946 192.301 20.2798 192.29C19.7677 191.823 19.2668 191.37 18.803 190.947C18.15 190.35 17.5601 189.815 17.0852 189.378C16.588 188.91 16.217 188.639 15.9869 188.012C15.8719 187.701 15.8311 187.363 15.8311 187.033V186.766C15.8014 186.565 15.8237 186.317 15.8979 186.02C15.8979 186.046 15.9016 186.072 15.9127 186.098C15.9164 186.124 15.9275 186.146 15.9424 186.172C15.9572 186.194 15.9721 186.213 15.9906 186.231C16.0611 186.305 16.165 186.361 16.2837 186.402C16.3023 186.409 16.3246 186.417 16.3468 186.42C16.3542 186.424 16.3617 186.424 16.3691 186.428C16.3876 186.432 16.4062 186.435 16.4284 186.439V186.443C16.6585 186.484 16.9108 186.469 17.0777 186.398C18.9032 185.645 21.6266 183.827 24.4353 181.549C22.2648 183.508 21.0626 187.615 23.4706 191.619C28.2495 199.574 38.9835 199.165 44.6565 193.121C45.6138 192.101 46.4115 191.058 47.0608 190.027Z" fill="#593E6B"/>
<path d="M25.0376 181.052C24.956 181.137 24.8373 181.237 24.6777 181.352C24.7965 181.252 24.9189 181.152 25.0376 181.052Z" fill="#593E6B"/>
<path opacity="0.23" d="M266.516 174.399L258.201 176.985L254.049 178.28L248.42 180.031L244.458 181.263L238.829 183.014L234.867 184.25L229.238 186.001L225.275 187.233L219.647 188.988L216.983 189.815C215.948 190.138 215.016 189.085 215.465 188.098L215.855 187.233C243.838 181.263 259.325 171.16 257.615 162.778H257.618L259.325 164.507L267.039 172.314C267.699 172.985 267.417 174.117 266.516 174.399Z" fill="#F0C688"/>
</svg>
